# https://github.com/mikedh/trimesh
v 0.62291640 0.20184445 -0.03774924
v 0.62291640 0.20184445 -0.07413438
v 0.56300316 0.20184445 -0.06002956
v 0.56300316 0.13368464 -0.08495248
v 0.56300316 0.12763121 -0.08724823
v 0.62291640 0.12141054 -0.06949333
v 0.56300316 0.20184445 -0.07401877
v 0.62291640 0.11786542 -0.11260056
v 0.56300316 0.11786542 -0.11260056
v 0.56300316 -0.13979073 -0.19293527
v 0.62291640 -0.13249984 -0.17014294
v 0.62291640 0.10930364 -0.11611851
v 0.56300316 0.10943742 -0.11606897
v 0.56300316 -0.13979073 -0.20593350
v 0.62291640 -0.13979073 -0.17559328
v 0.56300316 0.10930364 -0.11611851
v 0.62291640 0.01261570 -0.15139707
v 0.62291640 -0.13979073 -0.20647853
v 0.56300316 -0.12039294 -0.19990510
v 0.56300316 0.01261570 -0.15139707
v 0.62291640 -0.08370436 -0.18652699
v 0.62291640 -0.12039294 -0.19990510
v 0.62291640 -0.11989127 -0.19972341
f 1 2 7
f 1 7 3
f 1 3 4
f 1 4 5
f 1 5 6
f 1 6 11
f 1 11 15
f 1 15 18
f 1 18 22
f 1 22 23
f 1 23 21
f 1 21 17
f 1 17 12
f 1 12 8
f 1 8 2
f 2 8 9
f 2 9 7
f 3 7 9
f 3 9 13
f 3 13 16
f 3 16 20
f 3 20 19
f 3 19 14
f 3 14 10
f 3 10 5
f 3 5 4
f 5 10 6
f 6 10 11
f 8 12 13
f 8 13 9
f 10 14 18
f 10 18 15
f 10 15 11
f 12 16 13
f 12 17 20
f 12 20 16
f 14 19 18
f 17 21 20
f 18 19 22
f 19 21 23
f 19 23 22
f 19 20 21

