# https://github.com/mikedh/trimesh
v 0.62291640 0.23228432 0.00867446
v 0.57529664 0.23124446 0.00867446
v 0.62291640 0.20439265 0.00867446
v 0.62291640 0.23231711 -0.04476373
v 0.56300316 0.23170628 -0.04476373
v 0.57169538 0.22976064 0.00867446
v 0.56300316 0.23170034 -0.04456920
v 0.56300316 0.23124446 -0.03267874
v 0.62291640 0.20188088 -0.03774455
v 0.56672170 0.22209125 0.00867446
v 0.56300316 0.20188088 -0.06000978
v 0.62291640 0.23082137 -0.05685683
v 0.56300316 0.23073198 -0.05685683
v 0.56300316 0.23074986 -0.05665419
v 0.56672170 0.22771069 0.00867446
v 0.56300316 0.22841387 -0.02033438
v 0.62291640 0.20188088 -0.07412920
v 0.56300316 0.22167113 -0.02038301
v 0.56300316 0.20188088 -0.07399952
v 0.62291640 0.22673639 -0.06450011
v 0.56300316 0.22673639 -0.06450011
v 0.56300316 0.21812843 -0.06809076
v 0.62291640 0.21812843 -0.06813939
v 0.62291640 0.21864986 -0.06792055
f 1 2 6
f 1 6 15
f 1 15 10
f 1 10 3
f 1 3 9
f 1 9 17
f 1 17 23
f 1 23 24
f 1 24 20
f 1 20 12
f 1 12 4
f 1 4 5
f 1 5 2
f 2 5 7
f 2 7 8
f 2 8 6
f 3 10 11
f 3 11 9
f 4 12 13
f 4 13 14
f 4 14 5
f 5 14 13
f 5 13 21
f 5 21 22
f 5 22 19
f 5 19 11
f 5 11 18
f 5 18 16
f 5 16 8
f 5 8 7
f 6 8 15
f 8 16 15
f 9 11 19
f 9 19 17
f 10 15 16
f 10 16 18
f 10 18 11
f 12 20 21
f 12 21 13
f 17 19 22
f 17 22 23
f 20 24 21
f 21 24 23
f 21 23 22

