# https://github.com/mikedh/trimesh
v -0.57334824 -0.13979072 0.18882385
v -0.58247021 -0.12041253 0.18198774
v -0.58247021 -0.13979072 0.18456991
v -0.55767561 -0.13979072 0.18827763
v -0.55767561 -0.12041253 0.18490095
v -0.55767561 -0.11680643 0.18422231
v -0.55767561 -0.10831938 0.18261673
v -0.57334824 -0.10831938 0.18261673
v -0.58050139 -0.09855743 0.17970352
v -0.58163992 -0.10831938 0.18076288
v -0.58496382 -0.10831938 0.17286742
v -0.58579411 -0.12041253 0.17286742
v -0.58271733 -0.13250569 0.18309676
v -0.58227303 -0.05994674 0.16949074
v -0.58525541 0.00051904 0.14868450
v -0.58604404 -0.13979072 0.17286742
v -0.58604404 -0.13250569 0.17286742
v -0.55767561 -0.13979072 0.17491990
v -0.55767561 -0.10485898 0.18187188
v -0.57334824 -0.03845589 0.16753758
v -0.57950729 0.18821793 0.11852618
v -0.57964890 0.01938728 0.15489161
v -0.58010711 -0.03958507 0.16728929
v -0.57998495 0.12924560 0.13094042
v -0.58039588 0.07027324 0.14333810
v -0.58059861 0.01261219 0.15561991
v -0.58101516 0.12137775 0.13178459
v -0.58116232 -0.04785359 0.16818311
v -0.58151221 0.06094839 0.14434779
v -0.58182045 0.16975037 0.12051247
v -0.58193150 0.00051904 0.15692754
v -0.58559975 -0.05994674 0.16076769
v -0.58569697 0.21812300 0.10033519
v -0.58586352 0.15765723 0.11240182
v -0.58590243 -0.01157412 0.14868450
v -0.58602740 -0.07203991 0.16076769
v -0.58218417 0.10928460 0.13309222
v -0.58237306 0.21812300 0.10922378
v -0.58514709 0.16975037 0.11240182
v -0.58550808 0.10928460 0.12450157
v -0.58604404 -0.13979072 0.01972544
v -0.58604404 0.20602985 0.10033519
v -0.57274287 -0.13979072 0.01972544
v -0.55767561 0.21917934 0.01972544
v -0.55767561 0.01261219 0.15651373
v -0.57334824 0.01261219 0.15651373
v -0.57334824 0.16975037 0.12258150
v -0.57334824 0.18836365 0.11855929
v -0.57334824 0.21812300 0.11205423
v -0.58114842 0.22642794 0.10784994
v -0.58042370 0.18184354 0.11920483
v -0.58237306 0.22795779 0.10033519
v -0.58271733 0.22835847 0.08823545
v -0.58604404 0.21812300 0.08823545
v -0.58599403 0.09719144 0.12450157
v -0.58604404 0.21812300 0.01972544
v -0.55767561 0.23152747 0.01972544
v -0.55767561 0.11289068 0.13486332
v -0.55767561 0.18377407 0.11955242
v -0.55767561 0.18836365 0.11855929
v -0.55767561 0.21812300 0.11202113
v -0.55767561 0.22755713 0.10859480
v -0.57334824 0.22755713 0.10859480
v -0.57334824 0.23163674 0.10033519
v -0.57334824 0.23232882 0.08823545
v -0.58271733 0.22835847 0.01972544
v -0.58493327 0.22154698 0.01972544
v -0.57334824 0.23229239 0.01972544
v -0.55767561 0.23181887 0.08823545
v -0.55767561 0.22875915 0.10614505
v -0.55767561 0.23152747 0.10033519
v -0.57647775 0.23098109 0.01972544
f 1 2 3
f 1 3 16
f 1 16 41
f 1 41 43
f 1 43 18
f 1 18 4
f 1 4 5
f 1 5 6
f 1 6 7
f 1 7 8
f 1 8 9
f 1 9 10
f 1 10 2
f 2 11 12
f 2 12 13
f 2 13 3
f 2 10 14
f 2 14 15
f 2 15 11
f 3 13 12
f 3 12 17
f 3 17 16
f 4 18 44
f 4 44 57
f 4 57 69
f 4 69 71
f 4 71 70
f 4 70 62
f 4 62 61
f 4 61 60
f 4 60 59
f 4 59 58
f 4 58 45
f 4 45 19
f 4 19 7
f 4 7 6
f 4 6 5
f 7 19 8
f 8 19 20
f 8 20 21
f 8 21 22
f 8 22 9
f 9 22 23
f 9 23 24
f 9 24 25
f 9 25 26
f 9 26 27
f 9 27 28
f 9 28 10
f 10 28 29
f 10 29 30
f 10 30 31
f 10 31 14
f 11 15 32
f 11 32 12
f 12 32 33
f 12 33 34
f 12 34 35
f 12 35 36
f 12 36 17
f 14 31 37
f 14 37 38
f 14 38 15
f 15 38 39
f 15 39 40
f 15 40 32
f 16 17 42
f 16 42 54
f 16 54 56
f 16 56 41
f 17 36 42
f 18 43 44
f 19 45 46
f 19 46 20
f 20 46 21
f 21 47 48
f 21 48 49
f 21 49 50
f 21 50 38
f 21 38 51
f 21 51 24
f 21 24 22
f 21 46 47
f 22 24 23
f 24 51 27
f 24 27 25
f 25 27 26
f 27 29 28
f 27 51 30
f 27 30 29
f 30 51 38
f 30 38 37
f 30 37 31
f 32 40 33
f 33 40 39
f 33 39 38
f 33 38 50
f 33 50 52
f 33 52 53
f 33 53 54
f 33 54 42
f 33 42 34
f 34 42 55
f 34 55 35
f 35 55 36
f 36 55 42
f 41 56 67
f 41 67 66
f 41 66 72
f 41 72 68
f 41 68 57
f 41 57 44
f 41 44 43
f 45 58 46
f 46 58 47
f 47 58 59
f 47 59 48
f 48 59 60
f 48 60 49
f 49 61 62
f 49 62 63
f 49 63 50
f 49 60 61
f 50 63 64
f 50 64 52
f 52 64 65
f 52 65 53
f 53 66 67
f 53 67 54
f 53 65 66
f 54 67 56
f 57 68 69
f 62 70 64
f 62 64 63
f 64 70 71
f 64 71 65
f 65 69 68
f 65 68 72
f 65 72 66
f 65 71 69

