# https://github.com/mikedh/trimesh
v 0.02525158 -0.39444853 -0.01746364
v 0.02525158 -0.38377610 -0.01746364
v 0.62365005 -0.39444853 -0.01746364
v 0.02525158 -0.39445001 0.16074129
v 0.02525158 -0.38211328 0.20910577
v 0.61176090 -0.37917339 -0.01746364
v 0.62359031 -0.39445001 0.16074129
v 0.63111807 -0.39345410 -0.01746364
v 0.62365005 -0.39444853 0.16074129
v 0.02525158 -0.39445001 0.22122220
v 0.02525158 -0.38211328 0.24069952
v 0.61176090 -0.37917339 0.16074129
v 0.63559887 -0.37917339 -0.01746364
v 0.62359031 -0.39445001 0.22122220
v 0.63446374 -0.38641842 -0.01746364
v 0.63111807 -0.39345410 0.22122220
v 0.02525158 -0.39397746 0.23331332
v 0.02525158 -0.38641842 0.24090188
v 0.62359031 -0.38211328 0.24069952
v 0.63559887 -0.37917339 0.16074129
v 0.62359031 -0.39397746 0.23331332
v 0.63075960 -0.39321931 0.23331332
v 0.63446374 -0.38641842 0.16074129
v 0.63440399 -0.38641842 0.22122220
v 0.02525158 -0.39298307 0.23991538
v 0.62359031 -0.38641842 0.24090188
v 0.62687624 -0.38211328 0.24049715
v 0.63069986 -0.38211328 0.24006714
v 0.63147653 -0.38211328 0.23817001
v 0.63302988 -0.38211328 0.23364214
v 0.63428450 -0.38211328 0.22898783
v 0.63512092 -0.38211328 0.22122220
v 0.62359031 -0.39298307 0.23991538
v 0.63016216 -0.39280960 0.23973831
v 0.63314937 -0.38641842 0.23331332
v 0.63075960 -0.38641842 0.24014303
f 1 2 6
f 1 6 13
f 1 13 15
f 1 15 8
f 1 8 3
f 1 3 7
f 1 7 4
f 1 4 10
f 1 10 17
f 1 17 25
f 1 25 18
f 1 18 11
f 1 11 5
f 1 5 2
f 2 5 6
f 3 8 16
f 3 16 9
f 3 9 14
f 3 14 7
f 4 7 14
f 4 14 10
f 5 11 12
f 5 12 6
f 6 12 20
f 6 20 13
f 8 15 23
f 8 23 16
f 9 16 14
f 10 14 21
f 10 21 17
f 11 18 26
f 11 26 19
f 11 19 20
f 11 20 12
f 13 20 23
f 13 23 15
f 14 16 22
f 14 22 21
f 16 23 24
f 16 24 22
f 17 21 33
f 17 33 25
f 18 25 33
f 18 33 26
f 19 26 27
f 19 27 20
f 20 27 28
f 20 28 29
f 20 29 30
f 20 30 31
f 20 31 32
f 20 32 23
f 21 22 34
f 21 34 33
f 22 24 35
f 22 35 34
f 23 32 24
f 24 32 35
f 26 33 34
f 26 34 36
f 26 36 27
f 27 36 28
f 28 36 29
f 29 36 35
f 29 35 30
f 30 35 31
f 31 35 32
f 34 35 36

