# https://github.com/mikedh/trimesh
v -0.54841528 -0.38400888 -0.29365497
v -0.54841528 -0.38435754 -0.29346574
v -0.54841528 -0.37749158 -0.29365497
v 0.02519543 -0.38400888 -0.29365497
v -0.54841528 -0.39005521 -0.29022148
v 0.02519543 -0.38708249 -0.29192473
v -0.54841528 -0.36320613 -0.28751795
v 0.02519543 -0.37749158 -0.29365497
v -0.54841528 -0.39345608 -0.28416556
v 0.02519543 -0.39005521 -0.29022148
v -0.54841528 -0.36320613 -0.27432470
v 0.02519543 -0.36320613 -0.28751795
v -0.54841528 -0.39444698 -0.27448691
v 0.02519543 -0.39345608 -0.28416556
v 0.02519543 -0.39396070 -0.27924514
v -0.54841528 -0.38377340 -0.01748894
v 0.02519543 -0.38377340 -0.01748894
v 0.02519543 -0.36320613 -0.27435175
v -0.54841528 -0.39444698 -0.01748894
v 0.02519543 -0.39444698 -0.27448691
v 0.02519543 -0.39444698 -0.01748894
f 1 2 5
f 1 5 9
f 1 9 13
f 1 13 19
f 1 19 16
f 1 16 11
f 1 11 7
f 1 7 3
f 1 3 8
f 1 8 4
f 1 4 2
f 2 4 6
f 2 6 5
f 3 7 12
f 3 12 8
f 4 8 12
f 4 12 18
f 4 18 17
f 4 17 21
f 4 21 20
f 4 20 15
f 4 15 14
f 4 14 10
f 4 10 6
f 5 6 10
f 5 10 14
f 5 14 9
f 7 11 18
f 7 18 12
f 9 14 15
f 9 15 13
f 11 16 17
f 11 17 18
f 13 15 20
f 13 20 21
f 13 21 19
f 16 19 21
f 16 21 17

