# https://github.com/mikedh/trimesh
v 0.58692163 -0.13979072 0.18809191
v 0.58692163 -0.14892288 0.19138241
v 0.58692163 -0.13979072 0.17581282
v 0.02525158 -0.13979072 0.18809191
v 0.58692163 -0.14920752 0.19144594
v 0.02525158 -0.14892288 0.19138241
v 0.58692163 -0.38208939 0.20912452
v 0.57526598 -0.38211310 0.20912452
v 0.35281914 -0.13979072 0.17580646
v 0.02525158 -0.13979072 0.17580646
v 0.58692163 -0.15670301 0.19306579
v 0.02525158 -0.15670301 0.19306579
v 0.58692163 -0.38211310 0.21114456
v 0.02525158 -0.38211310 0.20912452
v 0.58692163 -0.31785592 0.22785760
v 0.02525158 -0.27757955 0.21916123
v 0.58692163 -0.38211310 0.24069568
v 0.02525158 -0.38211310 0.24069568
v 0.58692163 -0.37577990 0.24035900
v 0.02525158 -0.37577990 0.24035900
v 0.58692163 -0.37601708 0.24037172
v 0.02525158 -0.38099825 0.24063851
f 1 2 5
f 1 5 11
f 1 11 15
f 1 15 19
f 1 19 21
f 1 21 17
f 1 17 13
f 1 13 7
f 1 7 3
f 1 3 9
f 1 9 10
f 1 10 4
f 1 4 6
f 1 6 2
f 2 6 5
f 3 7 8
f 3 8 9
f 4 10 14
f 4 14 18
f 4 18 22
f 4 22 20
f 4 20 16
f 4 16 12
f 4 12 6
f 5 6 12
f 5 12 11
f 7 13 8
f 8 13 17
f 8 17 18
f 8 18 14
f 8 14 10
f 8 10 9
f 11 12 15
f 12 16 15
f 15 16 20
f 15 20 19
f 17 21 22
f 17 22 18
f 19 20 22
f 19 22 21

