# https://github.com/mikedh/trimesh
v -0.56028309 0.25716979 0.08302036
v -0.56028309 0.24495469 0.08296378
v -0.54806562 0.23273958 0.07918461
v -0.56028309 0.26938490 0.08294115
v -0.57248965 0.35487201 0.08300904
v -0.57248965 0.34265691 0.08300904
v -0.56028309 0.23273958 0.08225095
v -0.57248965 0.33044180 0.08288458
v -0.57248965 0.31822670 0.08257908
v -0.57248965 0.30603021 0.08209254
v -0.54806562 0.22493756 0.07658219
v -0.54142486 0.22598032 0.07512258
v -0.54138667 0.23273958 0.07523572
v -0.54977902 0.26938490 0.07848309
v -0.56028309 0.29381511 0.08233015
v -0.56028309 0.28160000 0.08272617
v -0.57248965 0.36708712 0.08288458
v -0.58470712 0.41309858 0.08236409
v -0.58470712 0.40373242 0.08234146
v -0.57010510 0.23273958 0.07830206
v -0.56859907 0.22430446 0.07679718
v -0.56028309 0.22368996 0.07782683
v -0.57248965 0.29381511 0.08131181
v -0.58470712 0.39151733 0.08170783
v -0.55910444 0.22288928 0.06681746
v -0.54115751 0.22566375 0.06797158
v -0.54081371 0.23273958 0.06797158
v -0.54173044 0.24057884 0.07457946
v -0.56474118 0.41309858 0.07683113
v -0.55216902 0.30603021 0.07721583
v -0.55136147 0.29381511 0.07786077
v -0.55055388 0.28160000 0.07825680
v -0.56028309 0.30603021 0.08168520
v -0.57248965 0.41309858 0.08128918
v -0.57248965 0.37930223 0.08256776
v -0.59368331 0.41309858 0.07789472
v -0.59365062 0.40373242 0.07787209
v -0.57382655 0.23273958 0.06797158
v -0.58187513 0.31822670 0.07810971
v -0.58106754 0.30603021 0.07762316
v -0.58025996 0.29381511 0.07684244
v -0.57945237 0.28160000 0.07569964
v -0.57889578 0.27323936 0.07470393
v -0.56970131 0.22314997 0.06797158
v -0.55910444 0.22288928 -0.01636946
v -0.54115751 0.22566375 -0.01752358
v -0.54161037 0.24145403 0.06797158
v -0.54081371 0.23273958 -0.01752358
v -0.56307689 0.41309858 0.06797158
v -0.56345888 0.41309858 0.07004220
v -0.56654733 0.41309858 0.07787209
v -0.59655356 0.41309858 0.06797158
v -0.59648257 0.40373242 0.06797158
v -0.59283757 0.39151733 0.07723846
v -0.57544715 0.24495469 0.05575152
v -0.57382655 0.23273958 -0.01752358
v -0.59081860 0.36096095 0.07408161
v -0.58030360 0.28160000 0.06797158
v -0.59202998 0.37930223 0.07626538
v -0.59122240 0.36708712 0.07488497
v -0.56970131 0.22314997 -0.01752358
v -0.56028309 0.22368996 -0.02737883
v -0.54806562 0.22493756 -0.02613419
v -0.54142486 0.22598032 -0.02467458
v -0.54161037 0.24145403 -0.01752358
v -0.56306055 0.41309858 0.05861418
v -0.54138667 0.23273958 -0.02478772
v -0.54173044 0.24057884 -0.02413146
v -0.59655356 0.41309858 -0.01752358
v -0.59648257 0.40373242 -0.01752358
v -0.59486747 0.39151733 0.06797158
v -0.57544715 0.24495469 -0.00530352
v -0.57010510 0.23273958 -0.02785406
v -0.56859907 0.22430446 -0.02634918
v -0.58030360 0.28160000 -0.01752358
v -0.59081860 0.36096095 -0.02363361
v -0.57889578 0.27323936 -0.02425593
v -0.58677520 0.33044180 0.06797158
v -0.56028309 0.23273958 -0.03180295
v -0.54806562 0.23273958 -0.02873661
v -0.56307689 0.41309858 -0.01752358
v -0.56307147 0.41309858 -0.01467223
v -0.56306055 0.41309858 -0.00530352
v -0.54977902 0.26938490 -0.02803509
v -0.55055388 0.28160000 -0.02780880
v -0.55136147 0.29381511 -0.02741277
v -0.55216902 0.30603021 -0.02676783
v -0.56474118 0.41309858 -0.02638313
v -0.59588780 0.41309858 -0.01984313
v -0.59365062 0.40373242 -0.02742409
v -0.59283757 0.39151733 -0.02679046
v -0.59202998 0.37930223 -0.02581738
v -0.59122240 0.36708712 -0.02443697
v -0.59486747 0.39151733 -0.01752358
v -0.57945237 0.28160000 -0.02525164
v -0.58025996 0.29381511 -0.02639444
v -0.58106754 0.30603021 -0.02717516
v -0.58187513 0.31822670 -0.02766171
v -0.57248965 0.29381511 -0.03086381
v -0.58677520 0.33044180 -0.01752358
v -0.57248965 0.30603021 -0.03164454
v -0.56028309 0.24495469 -0.03251578
v -0.56028309 0.25716979 -0.03257236
v -0.56028309 0.26938490 -0.03249315
v -0.56028309 0.28160000 -0.03227817
v -0.56028309 0.29381511 -0.03188215
v -0.56028309 0.30603021 -0.03123720
v -0.57248965 0.41309858 -0.03084118
v -0.59368331 0.41309858 -0.02744672
v -0.59159343 0.41309858 -0.02849900
v -0.58470712 0.40373242 -0.03189346
v -0.58470712 0.39151733 -0.03125983
v -0.57248965 0.31822670 -0.03213108
v -0.57248965 0.33044180 -0.03243658
v -0.57248965 0.34265691 -0.03256104
v -0.57248965 0.35487201 -0.03256104
v -0.57248965 0.36708712 -0.03243658
v -0.57248965 0.37930223 -0.03211976
v -0.58185329 0.41309858 -0.03166717
v -0.58470712 0.41309858 -0.03191609
f 1 2 3
f 1 3 4
f 1 4 5
f 1 5 6
f 1 6 2
f 2 7 3
f 2 6 8
f 2 8 9
f 2 9 10
f 2 10 7
f 3 7 11
f 3 11 12
f 3 12 13
f 3 13 14
f 3 14 15
f 3 15 16
f 3 16 4
f 4 16 17
f 4 17 5
f 5 17 18
f 5 18 6
f 6 18 19
f 6 19 8
f 7 20 21
f 7 21 22
f 7 22 11
f 7 10 23
f 7 23 20
f 8 19 9
f 9 19 10
f 10 19 24
f 10 24 23
f 11 22 25
f 11 25 26
f 11 26 12
f 12 26 27
f 12 27 13
f 13 27 28
f 13 28 29
f 13 29 30
f 13 30 31
f 13 31 32
f 13 32 14
f 14 32 15
f 15 32 33
f 15 33 34
f 15 34 35
f 15 35 16
f 16 35 17
f 17 35 18
f 18 34 51
f 18 51 29
f 18 29 50
f 18 50 49
f 18 49 66
f 18 66 83
f 18 83 82
f 18 82 81
f 18 81 88
f 18 88 108
f 18 108 119
f 18 119 120
f 18 120 110
f 18 110 109
f 18 109 89
f 18 89 69
f 18 69 52
f 18 52 36
f 18 36 19
f 18 35 34
f 19 36 37
f 19 37 24
f 20 38 21
f 20 23 39
f 20 39 40
f 20 40 41
f 20 41 42
f 20 42 43
f 20 43 38
f 21 44 22
f 21 38 44
f 22 44 25
f 23 24 39
f 24 37 39
f 25 44 61
f 25 61 45
f 25 45 46
f 25 46 26
f 26 46 48
f 26 48 27
f 27 47 28
f 27 48 65
f 27 65 47
f 28 47 49
f 28 49 50
f 28 50 29
f 29 51 31
f 29 31 30
f 31 51 34
f 31 34 32
f 32 34 33
f 36 52 37
f 37 52 53
f 37 53 54
f 37 54 40
f 37 40 39
f 38 55 72
f 38 72 56
f 38 56 61
f 38 61 44
f 38 43 57
f 38 57 58
f 38 58 55
f 40 54 41
f 41 54 59
f 41 59 42
f 42 59 60
f 42 60 43
f 43 60 57
f 45 62 63
f 45 63 46
f 45 61 62
f 46 63 64
f 46 64 48
f 47 65 83
f 47 83 66
f 47 66 49
f 48 64 67
f 48 67 68
f 48 68 65
f 52 69 70
f 52 70 53
f 53 70 94
f 53 94 71
f 53 71 57
f 53 57 60
f 53 60 59
f 53 59 54
f 55 58 75
f 55 75 72
f 56 73 74
f 56 74 61
f 56 72 75
f 56 75 76
f 56 76 77
f 56 77 73
f 57 71 78
f 57 78 58
f 58 78 100
f 58 100 75
f 61 74 62
f 62 74 79
f 62 79 63
f 63 79 80
f 63 80 64
f 64 80 67
f 65 68 81
f 65 81 82
f 65 82 83
f 67 80 84
f 67 84 85
f 67 85 86
f 67 86 87
f 67 87 88
f 67 88 68
f 68 88 81
f 69 89 90
f 69 90 70
f 70 90 91
f 70 91 92
f 70 92 93
f 70 93 76
f 70 76 94
f 71 94 100
f 71 100 78
f 73 79 74
f 73 77 95
f 73 95 96
f 73 96 97
f 73 97 98
f 73 98 99
f 73 99 79
f 75 100 76
f 76 100 94
f 76 93 77
f 77 93 95
f 79 99 101
f 79 101 102
f 79 102 80
f 80 102 103
f 80 103 104
f 80 104 105
f 80 105 106
f 80 106 84
f 84 106 85
f 85 106 107
f 85 107 108
f 85 108 86
f 86 108 88
f 86 88 87
f 89 109 90
f 90 109 110
f 90 110 111
f 90 111 112
f 90 112 98
f 90 98 97
f 90 97 91
f 91 97 96
f 91 96 92
f 92 96 95
f 92 95 93
f 98 112 99
f 99 112 101
f 101 113 102
f 101 112 111
f 101 111 113
f 102 113 114
f 102 114 115
f 102 115 103
f 103 116 104
f 103 115 116
f 104 116 117
f 104 117 105
f 105 117 118
f 105 118 106
f 106 118 108
f 106 108 107
f 108 118 119
f 110 120 111
f 111 120 115
f 111 115 114
f 111 114 113
f 115 120 116
f 116 120 117
f 117 120 118
f 118 120 119

