# https://github.com/mikedh/trimesh
v -0.03502751 0.99006214 -0.03257236
v -0.04725245 0.99006214 -0.03250447
v 0.01382956 1.00228049 -0.03207450
v 0.02603316 1.00228049 -0.03207450
v 0.05003500 0.99050970 -0.03207450
v 0.05003500 0.99006214 -0.03207450
v -0.10831312 0.97785661 -0.03252710
v -0.12051672 0.97785661 -0.03256104
v -0.13274166 0.97785661 -0.03239132
v -0.05945605 0.99006214 -0.03225554
v 0.01382956 1.01156412 -0.02761645
v -0.14494526 0.97785661 -0.03198398
v -0.07165965 0.99006214 -0.03174637
v 0.00160462 1.00228049 -0.03144087
v 0.02603316 1.01156412 -0.02761645
v 0.03825810 1.00228049 -0.03144087
v 0.05003500 1.00228049 -0.03041122
v 0.05003500 0.98106625 -0.02777485
v -0.16792302 0.95370129 -0.02755987
v -0.16792302 0.96563830 -0.03228949
v 0.00160462 1.01063061 -0.02697150
v 0.01382956 1.01473535 -0.01752358
v -0.15717020 0.97785661 -0.03128246
v -0.14494526 0.98698039 -0.02752592
v -0.07165965 0.99880233 -0.02727700
v 0.02603316 1.01473535 -0.01752358
v 0.03825810 1.01063061 -0.02697150
v 0.05003500 1.00258097 -0.03024150
v 0.05003500 0.98075933 -0.02760513
v -0.16792302 0.94950703 -0.01752358
v -0.16792302 0.97865583 -0.02878187
v -0.01059897 1.00967795 -0.02589658
v -0.15717020 0.98602773 -0.02681309
v -0.08388459 0.99784964 -0.02640576
v -0.02019971 1.00892992 -0.02469721
v 0.00160462 1.01287481 -0.01752358
v 0.01382956 1.01473535 0.06797158
v 0.02603316 1.01473535 0.06797158
v 0.03825810 1.01287481 -0.01752358
v 0.05003500 1.00979306 -0.02559108
v 0.05003500 1.00970995 -0.02594184
v 0.05003500 0.97763924 -0.01787434
v -0.16792302 0.94943032 -0.00530352
v 0.05003500 0.97755610 -0.01752358
v -0.16792302 0.98229384 -0.02669994
v -0.09608819 0.99689701 -0.02501403
v -0.16630155 0.98501755 -0.02545530
v -0.10327807 0.99634076 -0.02399569
v 0.00160462 1.01287481 0.06797158
v -0.05945605 1.00334822 -0.01752358
v -0.04725245 1.00525354 -0.00530352
v 0.01382956 1.01156412 0.07806445
v -0.02019971 1.00892992 0.07514521
v -0.01059897 1.00967795 0.07634458
v 0.00160462 1.01063061 0.07741950
v 0.02603316 1.01156412 0.07806445
v 0.03825810 1.01063061 0.07741950
v 0.05003500 1.00970995 0.07638984
v 0.03825810 1.01287481 0.06797158
v 0.05003500 1.01103983 -0.01752358
v -0.16792302 0.94943032 0.05596650
v 0.05003500 0.97755610 0.06797158
v -0.16792302 0.98551625 -0.01752358
v -0.16781634 0.98554822 -0.01752358
v -0.15717020 0.98809931 -0.01752358
v -0.04725245 1.00525354 0.05575152
v -0.05945605 1.00334822 0.06797158
v -0.10327807 0.99634076 0.07444369
v 0.00160462 1.00228049 0.08188887
v 0.01382956 1.00228049 0.08252250
v -0.07165965 0.99880233 0.07772500
v -0.14494526 0.98698039 0.07797392
v -0.15717020 0.97785661 0.08173046
v -0.09608819 0.99689701 0.07546203
v -0.08388459 0.99784964 0.07685376
v -0.15717020 0.98602773 0.07726109
v 0.02603316 1.00228049 0.08252250
v 0.03825810 1.00228049 0.08188887
v 0.05003500 1.00228049 0.08085922
v 0.05003500 1.01103983 0.06797158
v -0.16792302 0.94950703 0.06797158
v 0.05003500 0.98075933 0.07805313
v -0.16792302 0.94951980 0.06808473
v -0.16792302 0.98551625 0.06797158
v -0.16781634 0.98554822 0.06797158
v -0.15717020 0.98809931 0.06797158
v -0.16630155 0.98501755 0.07590330
v -0.07165965 0.99006214 0.08219437
v -0.14494526 0.97785661 0.08243198
v -0.05945605 0.99006214 0.08270354
v -0.04725245 0.99006214 0.08295247
v -0.03502751 0.99006214 0.08302036
v -0.16792302 0.97865583 0.07922987
v -0.16792302 0.96710885 0.08269223
v -0.16792302 0.97997293 0.07850572
v 0.05003500 0.99006214 0.08252250
v -0.16792302 0.95514624 0.07873202
v -0.16792302 0.95370129 0.07800787
v -0.16792302 0.98465948 0.07421739
v -0.16792302 0.98229384 0.07714794
v -0.13274166 0.97785661 0.08283932
v -0.12051672 0.97785661 0.08300904
v -0.10831312 0.97785661 0.08297510
v -0.16792302 0.96563830 0.08273749
f 1 2 3
f 1 3 4
f 1 4 5
f 1 5 6
f 1 6 7
f 1 7 8
f 1 8 2
f 2 8 9
f 2 9 10
f 2 10 3
f 3 11 15
f 3 15 4
f 3 10 12
f 3 12 13
f 3 13 14
f 3 14 11
f 4 15 16
f 4 16 5
f 5 17 28
f 5 28 41
f 5 41 40
f 5 40 60
f 5 60 80
f 5 80 58
f 5 58 79
f 5 79 96
f 5 96 82
f 5 82 62
f 5 62 44
f 5 44 42
f 5 42 29
f 5 29 18
f 5 18 6
f 5 16 17
f 6 18 19
f 6 19 20
f 6 20 7
f 7 20 8
f 8 20 9
f 9 20 12
f 9 12 10
f 11 21 22
f 11 22 26
f 11 26 15
f 11 14 23
f 11 23 24
f 11 24 25
f 11 25 21
f 12 20 23
f 12 23 13
f 13 23 14
f 15 26 27
f 15 27 17
f 15 17 16
f 17 27 28
f 18 29 19
f 19 30 43
f 19 43 61
f 19 61 81
f 19 81 83
f 19 83 98
f 19 98 97
f 19 97 104
f 19 104 94
f 19 94 93
f 19 93 95
f 19 95 100
f 19 100 99
f 19 99 84
f 19 84 63
f 19 63 45
f 19 45 31
f 19 31 20
f 19 29 30
f 20 31 23
f 21 32 22
f 21 25 33
f 21 33 34
f 21 34 32
f 22 32 35
f 22 35 36
f 22 36 49
f 22 49 37
f 22 37 38
f 22 38 26
f 23 31 33
f 23 33 24
f 24 33 25
f 26 38 59
f 26 59 39
f 26 39 40
f 26 40 41
f 26 41 27
f 27 41 28
f 29 42 30
f 30 42 44
f 30 44 43
f 31 45 33
f 32 34 46
f 32 46 35
f 33 45 47
f 33 47 48
f 33 48 46
f 33 46 34
f 35 46 48
f 35 48 36
f 36 48 50
f 36 50 51
f 36 51 66
f 36 66 49
f 37 52 56
f 37 56 38
f 37 49 53
f 37 53 54
f 37 54 55
f 37 55 52
f 38 56 57
f 38 57 58
f 38 58 59
f 39 59 80
f 39 80 60
f 39 60 40
f 43 44 62
f 43 62 61
f 45 63 47
f 47 63 64
f 47 64 65
f 47 65 48
f 48 65 50
f 49 66 67
f 49 67 68
f 49 68 53
f 50 65 51
f 51 65 86
f 51 86 66
f 52 69 70
f 52 70 77
f 52 77 56
f 52 55 71
f 52 71 72
f 52 72 73
f 52 73 69
f 53 68 74
f 53 74 54
f 54 74 75
f 54 75 55
f 55 75 76
f 55 76 71
f 56 77 78
f 56 78 79
f 56 79 57
f 57 79 58
f 58 80 59
f 61 62 81
f 62 82 83
f 62 83 81
f 63 84 85
f 63 85 64
f 64 85 86
f 64 86 65
f 66 86 67
f 67 86 68
f 68 86 87
f 68 87 76
f 68 76 74
f 69 73 88
f 69 88 70
f 70 88 89
f 70 89 90
f 70 90 91
f 70 91 92
f 70 92 77
f 71 76 72
f 72 76 73
f 73 76 93
f 73 93 94
f 73 94 89
f 73 89 88
f 74 76 75
f 76 87 95
f 76 95 93
f 77 92 96
f 77 96 78
f 78 96 79
f 82 96 97
f 82 97 98
f 82 98 83
f 84 99 87
f 84 87 85
f 85 87 86
f 87 99 100
f 87 100 95
f 89 94 101
f 89 101 90
f 90 101 91
f 91 101 102
f 91 102 92
f 92 102 103
f 92 103 96
f 94 104 102
f 94 102 101
f 96 103 104
f 96 104 97
f 102 104 103

