# https://github.com/mikedh/trimesh
v -0.57335051 -0.39444687 -0.01748894
v -0.58084184 -0.39344978 -0.01748894
v -0.56984013 -0.39444687 -0.01748894
v -0.57335051 -0.39444687 0.22122942
v -0.58416697 -0.38639540 -0.01748894
v -0.58084184 -0.39344978 0.22122942
v -0.56984013 -0.37251095 -0.01748894
v -0.56113969 -0.13986551 0.17440653
v -0.56113969 -0.14462660 0.17514011
v -0.56113969 -0.20599733 0.18799048
v -0.56113969 -0.31385726 0.21161695
v -0.56113969 -0.36221601 0.22244364
v -0.56984013 -0.39444687 0.22122942
v -0.57335051 -0.39397324 0.23329561
v -0.58050298 -0.39320050 0.23329561
v -0.58604404 -0.37430568 -0.01748894
v -0.58416697 -0.38639540 0.22122942
v -0.57269722 -0.36224094 -0.01748894
v -0.57274597 -0.13979073 -0.01746364
v -0.56113969 -0.13979073 0.17486185
v -0.56113969 -0.36221601 0.23597699
v -0.56984013 -0.39397324 0.23329561
v -0.57335051 -0.39297615 0.23992317
v -0.57990813 -0.39280167 0.23974610
v -0.58287249 -0.38639540 0.23329561
v -0.58604404 -0.36224094 -0.01748894
v -0.58604404 -0.37430568 0.22122942
v -0.58603914 -0.13979073 -0.01746364
v -0.56113969 -0.13979073 0.18834462
v -0.56113969 -0.35012633 0.23410509
v -0.56984013 -0.37577641 0.24032790
v -0.56984013 -0.38639540 0.24093501
v -0.56984013 -0.39297615 0.23992317
v -0.57335051 -0.38639540 0.24093501
v -0.58048835 -0.38639540 0.24012553
v -0.58261896 -0.37368252 0.23430747
v -0.58604404 -0.36224094 0.22122942
v -0.58603914 -0.13979073 0.17286347
v -0.57335051 -0.13979073 0.18879994
v -0.56113969 -0.14886422 0.19132955
v -0.56113969 -0.33801172 0.23218259
v -0.57335051 -0.37577641 0.24032790
v -0.56113969 -0.26552345 0.21654967
v -0.58033722 -0.37729696 0.24002435
v -0.58264822 -0.35012633 0.23086721
v -0.58545410 -0.33801172 0.22122942
v -0.58597580 -0.35012633 0.22122942
v -0.58603914 -0.24134408 0.19704645
v -0.58593919 -0.18089566 0.18495495
v -0.58535659 -0.16880597 0.18495495
v -0.58246783 -0.13979073 0.18455022
v -0.57978381 -0.14951233 0.19122837
v -0.57335051 -0.14893900 0.19135485
v -0.56125914 -0.14893900 0.19135485
v -0.56113969 -0.15664151 0.19302439
v -0.57335051 -0.26552345 0.21654967
v -0.57942304 -0.25936644 0.21518368
v -0.58092717 -0.32594696 0.22841349
v -0.58212897 -0.33801172 0.22972889
v -0.58022263 -0.20849005 0.20364869
v -0.58076624 -0.15671628 0.19201254
v -0.58234106 -0.22925440 0.20587476
v -0.58566619 -0.22925440 0.19704645
v -0.58583685 -0.28965297 0.20913794
v -0.58203146 -0.16880597 0.19330264
v -0.58409137 -0.15671628 0.18495495
v -0.58130257 -0.21716471 0.20458465
v -0.58175602 -0.27756329 0.21715677
f 1 2 5
f 1 5 16
f 1 16 26
f 1 26 18
f 1 18 7
f 1 7 3
f 1 3 13
f 1 13 4
f 1 4 6
f 1 6 2
f 2 6 17
f 2 17 5
f 3 7 8
f 3 8 9
f 3 9 10
f 3 10 11
f 3 11 12
f 3 12 21
f 3 21 13
f 4 13 22
f 4 22 14
f 4 14 15
f 4 15 6
f 5 17 27
f 5 27 16
f 6 15 17
f 7 18 19
f 7 19 8
f 8 19 20
f 8 20 29
f 8 29 40
f 8 40 55
f 8 55 43
f 8 43 41
f 8 41 30
f 8 30 21
f 8 21 12
f 8 12 11
f 8 11 10
f 8 10 9
f 13 21 22
f 14 22 33
f 14 33 23
f 14 23 24
f 14 24 15
f 15 24 25
f 15 25 17
f 16 27 37
f 16 37 26
f 17 25 27
f 18 26 28
f 18 28 19
f 19 28 38
f 19 38 51
f 19 51 39
f 19 39 29
f 19 29 20
f 21 30 31
f 21 31 32
f 21 32 33
f 21 33 22
f 23 33 32
f 23 32 34
f 23 34 24
f 24 34 35
f 24 35 25
f 25 35 36
f 25 36 27
f 26 37 38
f 26 38 28
f 27 36 37
f 29 39 40
f 30 41 31
f 31 42 34
f 31 34 32
f 31 41 43
f 31 43 56
f 31 56 42
f 34 42 44
f 34 44 35
f 35 44 36
f 36 44 45
f 36 45 46
f 36 46 47
f 36 47 37
f 37 47 48
f 37 48 38
f 38 48 49
f 38 49 50
f 38 50 51
f 39 51 52
f 39 52 53
f 39 53 54
f 39 54 40
f 40 54 55
f 42 56 57
f 42 57 44
f 43 55 56
f 44 58 59
f 44 59 45
f 44 57 52
f 44 52 60
f 44 60 61
f 44 61 58
f 45 59 46
f 46 59 62
f 46 62 50
f 46 50 63
f 46 63 64
f 46 64 47
f 47 64 49
f 47 49 48
f 49 64 63
f 49 63 50
f 50 62 65
f 50 65 66
f 50 66 51
f 51 66 65
f 51 65 61
f 51 61 52
f 52 61 60
f 52 57 53
f 53 57 56
f 53 56 55
f 53 55 54
f 58 61 67
f 58 67 68
f 58 68 59
f 59 68 65
f 59 65 62
f 61 65 67
f 65 68 67

