# https://github.com/mikedh/trimesh
v -0.00040734 0.21487436 -0.05338566
v -0.00040734 0.22209320 -0.02310111
v -0.00040734 0.23101253 -0.05338566
v 0.56294795 0.21487436 -0.05338566
v 0.56294795 0.22167466 -0.02037679
v -0.00040734 0.22771042 -0.02310111
v 0.56294795 0.22841566 -0.02033473
v -0.00040734 0.23170789 -0.04476621
v 0.56294795 0.23101253 -0.05338566
v -0.00040734 0.22905994 -0.02675402
v 0.56294795 0.23124651 -0.03267828
v -0.00040734 0.23124651 -0.03267828
v -0.00040734 0.23142282 -0.03728567
v 0.56294795 0.23170789 -0.04476621
f 1 2 6
f 1 6 10
f 1 10 12
f 1 12 13
f 1 13 8
f 1 8 3
f 1 3 9
f 1 9 4
f 1 4 5
f 1 5 2
f 2 5 7
f 2 7 6
f 3 8 14
f 3 14 9
f 4 9 14
f 4 14 11
f 4 11 7
f 4 7 5
f 6 7 10
f 7 11 12
f 7 12 10
f 8 13 14
f 11 14 13
f 11 13 12

