# https://github.com/mikedh/trimesh
v -0.57334882 -0.36320611 -0.28797733
v -0.56110279 -0.36320611 -0.28765960
v -0.58152994 -0.36320611 -0.28487954
v -0.58119058 -0.35012835 -0.28209946
v -0.57986979 -0.34321769 -0.28085503
v -0.57334882 -0.35012835 -0.28368806
v -0.56110279 -0.35028142 -0.28374101
v -0.56110279 -0.36320611 -0.27555964
v -0.58250646 -0.36320611 -0.28440295
v -0.58249428 -0.36222199 -0.28413818
v -0.58229408 -0.32594105 -0.27153516
v -0.58204018 -0.28968198 -0.25895860
v -0.58164957 -0.25340104 -0.24632910
v -0.58104406 -0.31603432 -0.26984064
v -0.58070715 -0.28080310 -0.25736999
v -0.57334882 -0.34275844 -0.28101390
v -0.58029456 -0.24559375 -0.24489934
v -0.57979895 -0.21036252 -0.23242872
v -0.56110279 -0.35012835 -0.28368806
v -0.56110279 -0.36318424 -0.27391808
v -0.57244062 -0.36320611 -0.01751540
v -0.58556552 -0.36320611 -0.27550670
v -0.58581941 -0.36222199 -0.27447408
v -0.58451571 -0.35012835 -0.27447408
v -0.58497470 -0.25340104 -0.23820069
v -0.58226229 -0.19297653 -0.22310884
v -0.58200357 -0.15669559 -0.21053229
v -0.58100255 -0.18320101 -0.22144078
v -0.58065591 -0.14796979 -0.20897015
v -0.56110279 -0.34275844 -0.28101390
v -0.57334882 -0.25340104 -0.24842079
v -0.57334882 -0.14661390 -0.20944673
v -0.56110279 -0.34625750 -0.26698112
v -0.57274579 -0.13979072 -0.01751540
v -0.58604404 -0.36320611 -0.01751540
v -0.56110279 -0.27806944 -0.24201336
v -0.56110279 -0.24132925 -0.22856308
v -0.56110279 -0.14541110 -0.19358705
v -0.56110279 -0.14532362 -0.19356057
v -0.56110279 -0.13979072 -0.19199843
v -0.58583894 -0.36320611 -0.27447408
v -0.58604404 -0.30177562 -0.25030064
v -0.58596102 -0.26549468 -0.23820069
v -0.58579743 -0.22923561 -0.22612719
v -0.58561921 -0.32594105 -0.26240060
v -0.58536531 -0.28968198 -0.25030064
v -0.58532870 -0.15669559 -0.20192728
v -0.58273837 -0.13979072 -0.20168899
v -0.57423749 -0.13979072 -0.20611063
v -0.57334882 -0.13979072 -0.20648131
v -0.56110279 -0.25340104 -0.24842079
v -0.56110279 -0.21007822 -0.23261404
v -0.56110279 -0.14674512 -0.20949968
v -0.56110279 -0.14661390 -0.20944673
v -0.58604404 -0.13979072 -0.01751540
v -0.58604404 -0.36320611 -0.26335379
v -0.56110279 -0.13979072 -0.20571348
v -0.58604404 -0.33803471 -0.26240060
v -0.58604404 -0.16878923 -0.20192728
v -0.58558750 -0.19297653 -0.21402725
v -0.58600253 -0.13979072 -0.18985380
v -0.58399084 -0.13979072 -0.19787630
v -0.56242112 -0.13979072 -0.20616358
v -0.56125903 -0.13979072 -0.20611063
v -0.56110279 -0.13981259 -0.20611063
v -0.58604404 -0.13979072 -0.18503500
v -0.58604404 -0.14460194 -0.18985380
f 1 2 8
f 1 8 21
f 1 21 35
f 1 35 56
f 1 56 41
f 1 41 22
f 1 22 9
f 1 9 3
f 1 3 4
f 1 4 5
f 1 5 6
f 1 6 7
f 1 7 2
f 2 7 19
f 2 19 30
f 2 30 51
f 2 51 52
f 2 52 53
f 2 53 54
f 2 54 65
f 2 65 57
f 2 57 40
f 2 40 39
f 2 39 38
f 2 38 37
f 2 37 36
f 2 36 33
f 2 33 20
f 2 20 8
f 3 9 4
f 4 9 10
f 4 10 11
f 4 11 12
f 4 12 13
f 4 13 14
f 4 14 15
f 4 15 5
f 5 16 6
f 5 15 17
f 5 17 18
f 5 18 16
f 6 16 30
f 6 30 19
f 6 19 7
f 8 20 21
f 9 22 23
f 9 23 10
f 10 23 24
f 10 24 11
f 11 24 25
f 11 25 12
f 12 25 26
f 12 26 27
f 12 27 13
f 13 28 15
f 13 15 14
f 13 27 28
f 15 28 29
f 15 29 17
f 16 18 31
f 16 31 51
f 16 51 30
f 17 29 18
f 18 29 32
f 18 32 31
f 20 33 21
f 21 34 55
f 21 55 35
f 21 33 36
f 21 36 37
f 21 37 38
f 21 38 39
f 21 39 40
f 21 40 34
f 22 41 23
f 23 41 42
f 23 42 43
f 23 43 44
f 23 44 45
f 23 45 24
f 24 45 46
f 24 46 25
f 25 46 47
f 25 47 27
f 25 27 26
f 27 47 48
f 27 48 29
f 27 29 28
f 29 48 49
f 29 49 50
f 29 50 32
f 31 52 51
f 31 32 53
f 31 53 52
f 32 50 54
f 32 54 53
f 34 40 57
f 34 57 64
f 34 64 63
f 34 63 50
f 34 50 49
f 34 49 48
f 34 48 62
f 34 62 61
f 34 61 66
f 34 66 55
f 35 55 66
f 35 66 67
f 35 67 59
f 35 59 42
f 35 42 58
f 35 58 56
f 41 56 58
f 41 58 42
f 42 59 43
f 43 59 44
f 44 59 60
f 44 60 45
f 45 60 46
f 46 60 47
f 47 59 61
f 47 61 62
f 47 62 48
f 47 60 59
f 50 63 54
f 54 63 64
f 54 64 65
f 57 65 64
f 59 67 61
f 61 67 66

