# https://github.com/mikedh/trimesh
v 0.35327277 0.91366023 0.06797225
v 0.35451965 0.91304331 0.06797225
v 0.35327277 0.91366023 -0.01752425
v 0.35327277 0.91242639 0.07449508
v 0.36063277 0.90999292 0.05576169
v 0.35451965 0.91304331 -0.01752425
v 0.36807938 0.90622277 0.06797225
v 0.36807938 0.90625706 0.05576169
v 0.35327277 0.91242639 -0.02404708
v 0.35327277 0.91160380 0.07654899
v 0.37637449 0.90003631 0.07628943
v 0.36063277 0.90999292 -0.00531369
v 0.36807938 0.90625706 -0.00531369
v 0.36807938 0.90622277 -0.01752425
v 0.37744819 0.90082460 0.06797225
v 0.35327277 0.91215219 -0.02546902
v 0.35327277 0.90524597 0.07985555
v 0.35654583 0.90548587 0.07898659
v 0.36807938 0.90231553 0.07797092
v 0.38039219 0.89253027 0.07864803
v 0.38880857 0.88857162 0.07650385
v 0.38356132 0.89585486 0.06797225
v 0.37744819 0.90082460 -0.01752425
v 0.37637449 0.90003631 -0.02584143
v 0.35327277 0.91160380 -0.02610099
v 0.35327277 0.89234177 0.08254142
v 0.35587043 0.89234177 0.08285740
v 0.36807938 0.89234177 0.08243985
v 0.39273966 0.88036298 0.07880602
v 0.40848142 0.87170878 0.06797225
v 0.39000349 0.88975408 0.06797225
v 0.41343427 0.86433985 0.07659413
v 0.50731321 0.77510731 0.06797225
v 0.50121737 0.78108814 0.06797225
v 0.38356132 0.89585486 -0.01752425
v 0.36807938 0.90231553 -0.02752292
v 0.38880857 0.88857162 -0.02605585
v 0.38039219 0.89253027 -0.02820003
v 0.35327277 0.90778225 -0.02827903
v 0.35327277 0.88072286 0.07803863
v 0.50199668 0.73860543 0.08032952
v 0.50242963 0.74576871 0.08229314
v 0.41694974 0.84348408 0.08269941
v 0.38030562 0.88012306 0.08259784
v 0.50242963 0.75798741 0.08286869
v 0.47801176 0.78242483 0.08282355
v 0.44136761 0.81906381 0.08275583
v 0.40500057 0.86821282 0.07886245
v 0.49958953 0.77949439 0.07683112
v 0.48727668 0.79161027 0.07680855
v 0.47496383 0.80374329 0.07677469
v 0.42574712 0.85220683 0.07663927
v 0.40848142 0.87170878 -0.01752425
v 0.39000349 0.88975408 -0.01752425
v 0.51122697 0.76737850 0.07685369
v 0.51257775 0.76900653 0.06797225
v 0.50731321 0.77510731 -0.01752425
v 0.50121737 0.78108814 -0.01752425
v 0.36807938 0.89234177 -0.03199185
v 0.41343427 0.86433985 -0.02614613
v 0.39273966 0.88036298 -0.02835802
v 0.35327277 0.90524597 -0.02940755
v 0.35327277 0.87630151 0.06797225
v 0.49422105 0.73860543 0.07626686
v 0.51465588 0.73860543 0.08241728
v 0.50317428 0.77094301 0.07917843
v 0.49089608 0.78311032 0.07915586
v 0.47861785 0.79526046 0.07912201
v 0.45407876 0.81957793 0.07904301
v 0.51465588 0.74576871 0.08170631
v 0.46635699 0.80742776 0.07907687
v 0.51503685 0.75766181 0.07834333
v 0.52154830 0.75337755 0.07542047
v 0.51257775 0.76900653 -0.01752425
v 0.51869087 0.76024950 0.06797225
v 0.51122697 0.76737850 -0.02640569
v 0.49958953 0.77949439 -0.02638312
v 0.47496383 0.80374329 -0.02632669
v 0.38030562 0.88012306 -0.03214984
v 0.35587043 0.89234177 -0.03240940
v 0.35327277 0.89492947 -0.03231912
v 0.42574712 0.85220683 -0.02619127
v 0.48727668 0.79161027 -0.02636055
v 0.40500057 0.86821282 -0.02841445
v 0.35327277 0.87619868 0.05576169
v 0.49240270 0.73860543 0.06797225
v 0.52580846 0.73860543 0.07802735
v 0.52357444 0.74576871 0.07723738
v 0.52194660 0.75413158 0.06797225
v 0.53018980 0.73860543 0.06797225
v 0.51869087 0.76024950 -0.01752425
v 0.52154830 0.75337755 -0.02497247
v 0.51503685 0.75766181 -0.02789533
v 0.50317428 0.77094301 -0.02873043
v 0.49089608 0.78311032 -0.02870786
v 0.46635699 0.80742776 -0.02862887
v 0.45407876 0.81957793 -0.02859501
v 0.41694974 0.84348408 -0.03225141
v 0.47861785 0.79526046 -0.02867401
v 0.35327277 0.89234177 -0.03209342
v 0.44136761 0.81906381 -0.03230783
v 0.47801176 0.78242483 -0.03237555
v 0.50242963 0.75798741 -0.03242069
v 0.50959913 0.73860543 -0.03221755
v 0.49238537 0.73860543 0.05576169
v 0.35327277 0.87619868 -0.00531369
v 0.52194660 0.75413158 -0.01752425
v 0.53018980 0.73860543 -0.01752425
v 0.52954905 0.73860543 -0.01963458
v 0.52357444 0.74576871 -0.02678938
v 0.51465588 0.74576871 -0.03125831
v 0.35327277 0.88271076 -0.02862887
v 0.50199668 0.73860543 -0.02988152
v 0.51465588 0.73860543 -0.03196928
v 0.49238537 0.73860543 -0.01387914
v 0.35327277 0.87630151 -0.01752425
v 0.49240270 0.73860543 -0.01752425
v 0.52580846 0.73860543 -0.02757935
v 0.52210244 0.73860543 -0.02943011
v 0.35327277 0.88072286 -0.02759063
v 0.49730361 0.73860543 -0.02774863
v 0.35327277 0.87635291 -0.01768224
v 0.49364958 0.73860543 -0.02413737
v 0.49422105 0.73860543 -0.02581886
f 1 2 6
f 1 6 3
f 1 3 9
f 1 9 16
f 1 16 25
f 1 25 39
f 1 39 62
f 1 62 81
f 1 81 100
f 1 100 112
f 1 112 120
f 1 120 122
f 1 122 116
f 1 116 106
f 1 106 85
f 1 85 63
f 1 63 40
f 1 40 26
f 1 26 17
f 1 17 10
f 1 10 4
f 1 4 2
f 2 5 12
f 2 12 6
f 2 4 7
f 2 7 8
f 2 8 5
f 3 6 9
f 4 10 11
f 4 11 7
f 5 8 13
f 5 13 12
f 6 12 13
f 6 13 14
f 6 14 9
f 7 11 15
f 7 15 8
f 8 15 23
f 8 23 13
f 9 14 16
f 10 17 18
f 10 18 19
f 10 19 11
f 11 19 20
f 11 20 21
f 11 21 22
f 11 22 15
f 13 23 14
f 14 23 24
f 14 24 16
f 15 22 35
f 15 35 23
f 16 24 25
f 17 26 27
f 17 27 28
f 17 28 19
f 17 19 18
f 19 28 20
f 20 28 29
f 20 29 21
f 21 30 31
f 21 31 22
f 21 29 32
f 21 32 33
f 21 33 34
f 21 34 30
f 22 31 54
f 22 54 35
f 23 35 24
f 24 36 25
f 24 35 37
f 24 37 38
f 24 38 36
f 25 36 39
f 26 40 41
f 26 41 42
f 26 42 27
f 27 43 44
f 27 44 28
f 27 42 45
f 27 45 46
f 27 46 47
f 27 47 43
f 28 44 29
f 29 48 49
f 29 49 50
f 29 50 51
f 29 51 52
f 29 52 32
f 29 44 48
f 30 53 54
f 30 54 31
f 30 34 58
f 30 58 53
f 32 52 51
f 32 51 33
f 33 51 49
f 33 49 55
f 33 55 56
f 33 56 74
f 33 74 57
f 33 57 58
f 33 58 34
f 35 54 37
f 36 38 59
f 36 59 39
f 37 60 61
f 37 61 38
f 37 54 53
f 37 53 58
f 37 58 57
f 37 57 60
f 38 61 59
f 39 59 62
f 40 63 64
f 40 64 41
f 41 64 86
f 41 86 105
f 41 105 115
f 41 115 117
f 41 117 123
f 41 123 124
f 41 124 121
f 41 121 113
f 41 113 104
f 41 104 114
f 41 114 119
f 41 119 118
f 41 118 109
f 41 109 108
f 41 108 90
f 41 90 87
f 41 87 65
f 41 65 42
f 42 65 45
f 43 47 66
f 43 66 44
f 44 66 67
f 44 67 68
f 44 68 69
f 44 69 48
f 45 65 70
f 45 70 66
f 45 66 46
f 46 66 47
f 48 69 49
f 49 69 71
f 49 71 67
f 49 67 66
f 49 66 55
f 49 51 50
f 55 66 72
f 55 72 73
f 55 73 56
f 56 73 75
f 56 75 91
f 56 91 74
f 57 74 76
f 57 76 77
f 57 77 78
f 57 78 60
f 59 61 79
f 59 79 80
f 59 80 81
f 59 81 62
f 60 82 61
f 60 78 82
f 61 82 78
f 61 78 83
f 61 83 77
f 61 77 84
f 61 84 79
f 63 85 86
f 63 86 64
f 65 87 70
f 66 70 72
f 67 71 69
f 67 69 68
f 70 87 88
f 70 88 72
f 72 88 73
f 73 89 75
f 73 88 90
f 73 90 89
f 74 91 92
f 74 92 76
f 75 89 107
f 75 107 91
f 76 93 94
f 76 94 77
f 76 92 93
f 77 83 78
f 77 94 95
f 77 95 96
f 77 96 97
f 77 97 84
f 79 98 80
f 79 84 97
f 79 97 99
f 79 99 95
f 79 95 94
f 79 94 98
f 80 100 81
f 80 98 101
f 80 101 102
f 80 102 103
f 80 103 104
f 80 104 100
f 85 105 86
f 85 106 115
f 85 115 105
f 87 90 88
f 89 90 108
f 89 108 107
f 91 107 92
f 92 107 108
f 92 108 109
f 92 109 110
f 92 110 93
f 93 111 94
f 93 110 111
f 94 111 103
f 94 103 102
f 94 102 101
f 94 101 98
f 95 99 97
f 95 97 96
f 100 104 113
f 100 113 112
f 103 111 114
f 103 114 104
f 106 116 117
f 106 117 115
f 109 118 110
f 110 118 111
f 111 118 119
f 111 119 114
f 112 113 121
f 112 121 120
f 116 122 123
f 116 123 117
f 120 121 124
f 120 124 122
f 122 124 123

