# https://github.com/mikedh/trimesh
v -0.15812343 0.17781707 -0.08238802
v -0.15812343 0.17781707 -0.06948195
v -0.15812343 0.22602739 -0.06818894
v -0.00047790 0.17781707 -0.08237006
v -0.15812343 0.22208747 -0.02309551
v -0.00046247 0.17781707 -0.06948195
v -0.15812343 0.22930054 -0.06682411
v -0.00046247 0.22673271 -0.06450150
v -0.00046247 0.21812549 -0.06808718
v -0.00046247 0.19385227 -0.07716214
v -0.00046247 0.18186168 -0.08089748
v -0.00046247 0.17781707 -0.07525855
v -0.15812343 0.22954852 -0.02123981
v -0.00046247 0.22208747 -0.02310149
v -0.15812343 0.23338925 -0.05685722
v -0.00046247 0.23073325 -0.05685722
v -0.15812343 0.23387968 -0.03267928
v -0.00046247 0.22770804 -0.02310149
v -0.15812343 0.23411111 -0.04477125
v -0.00046247 0.23170308 -0.04477125
v -0.00046247 0.23133388 -0.04938056
v -0.00046247 0.22905809 -0.02675303
v -0.00046247 0.23124572 -0.03267928
v -0.00046247 0.23142205 -0.03728860
f 1 2 5
f 1 5 13
f 1 13 17
f 1 17 19
f 1 19 15
f 1 15 7
f 1 7 3
f 1 3 4
f 1 4 12
f 1 12 6
f 1 6 2
f 2 6 5
f 3 7 8
f 3 8 9
f 3 9 10
f 3 10 4
f 4 10 11
f 4 11 12
f 5 6 14
f 5 14 13
f 6 12 11
f 6 11 10
f 6 10 9
f 6 9 8
f 6 8 16
f 6 16 21
f 6 21 20
f 6 20 24
f 6 24 23
f 6 23 22
f 6 22 18
f 6 18 14
f 7 15 16
f 7 16 8
f 13 14 18
f 13 18 17
f 15 19 20
f 15 20 21
f 15 21 16
f 17 18 22
f 17 22 23
f 17 23 24
f 17 24 20
f 17 20 19

