# https://github.com/mikedh/trimesh
v -0.17435070 0.17781708 -0.12499553
v -0.16795143 0.17781708 -0.12430138
v -0.17853786 0.17781708 -0.12445721
v -0.18052084 0.20205696 -0.12355058
v -0.17435070 0.19395248 -0.12428722
v -0.16810549 0.20299831 -0.12363559
v -0.16797908 0.19395248 -0.12389057
v -0.15812343 0.17781708 -0.08238388
v -0.18064330 0.17781708 -0.12404640
v -0.18061565 0.19395248 -0.12373475
v -0.18056034 0.24965422 -0.11162272
v -0.17435070 0.20379258 -0.12370641
v -0.19847827 0.17781708 -0.08236971
v -0.17435070 0.25064706 -0.11190605
v -0.16806994 0.25011754 -0.11175022
v -0.15812343 0.17781708 -0.06947855
v -0.15812343 0.22602474 -0.06818943
v -0.18064330 0.25030139 -0.10521965
v -0.17435070 0.25294158 -0.10521965
v -0.19847827 0.19380539 -0.07717074
v -0.19847827 0.21806735 -0.06810444
v -0.19847827 0.22670133 -0.06452041
v -0.19847827 0.23073887 -0.05689904
v -0.19847827 0.17781708 -0.06960604
v -0.16795143 0.25100005 -0.10521965
v -0.15812343 0.23339377 -0.05685654
v -0.15812343 0.22929740 -0.06681532
v -0.19047524 0.17781708 -0.06947855
v -0.15812343 0.22209017 -0.02309871
v -0.16795143 0.23568098 0.01972544
v -0.17435070 0.23524706 0.01972544
v -0.19847827 0.23173169 -0.04477286
v -0.18067094 0.25030139 -0.05685654
v -0.18067491 0.25030139 -0.04477286
v -0.17435070 0.25294158 0.01972544
v -0.16790799 0.25100005 -0.04477286
v -0.16791588 0.25100005 -0.05685654
v -0.19847827 0.17783914 -0.06946438
v -0.15812343 0.23410715 -0.04477286
v -0.15812343 0.23409980 -0.04492868
v -0.15812343 0.22954746 -0.02124295
v -0.16759986 0.24230724 0.01972544
v -0.17853786 0.23563684 0.01972544
v -0.19847827 0.23127572 -0.03276000
v -0.18064330 0.25030139 0.01972544
v -0.18067491 0.25030139 -0.03268916
v -0.16795143 0.25100005 0.01972544
v -0.16790799 0.25100005 -0.03268916
v -0.18064330 0.23583542 0.01972544
v -0.19847827 0.22209017 -0.02309871
v -0.15812343 0.23387916 -0.03268916
v -0.16783293 0.24809507 0.01972544
v -0.19847827 0.23126837 -0.03268916
v -0.18081315 0.24497685 0.01972544
v -0.19847827 0.22775299 -0.02316954
v -0.19847827 0.22772359 -0.02309871
v -0.18089610 0.24230724 0.01972544
f 1 2 8
f 1 8 16
f 1 16 28
f 1 28 24
f 1 24 13
f 1 13 9
f 1 9 3
f 1 3 4
f 1 4 5
f 1 5 6
f 1 6 7
f 1 7 2
f 2 7 8
f 3 9 10
f 3 10 4
f 4 11 12
f 4 12 5
f 4 10 13
f 4 13 11
f 5 12 6
f 6 12 14
f 6 14 15
f 6 15 8
f 6 8 7
f 8 15 17
f 8 17 27
f 8 27 26
f 8 26 40
f 8 40 39
f 8 39 51
f 8 51 41
f 8 41 29
f 8 29 16
f 9 13 10
f 11 18 19
f 11 19 14
f 11 14 12
f 11 13 20
f 11 20 21
f 11 21 22
f 11 22 23
f 11 23 18
f 13 24 38
f 13 38 50
f 13 50 56
f 13 56 55
f 13 55 53
f 13 53 44
f 13 44 32
f 13 32 23
f 13 23 22
f 13 22 21
f 13 21 20
f 14 19 15
f 15 19 25
f 15 25 26
f 15 26 27
f 15 27 17
f 16 29 30
f 16 30 31
f 16 31 28
f 18 23 32
f 18 32 33
f 18 33 19
f 19 33 34
f 19 34 46
f 19 46 35
f 19 35 48
f 19 48 36
f 19 36 37
f 19 37 25
f 24 28 38
f 25 37 39
f 25 39 40
f 25 40 26
f 28 31 38
f 29 41 30
f 30 41 42
f 30 42 52
f 30 52 47
f 30 47 35
f 30 35 45
f 30 45 54
f 30 54 57
f 30 57 49
f 30 49 43
f 30 43 31
f 31 43 38
f 32 44 45
f 32 45 46
f 32 46 34
f 32 34 33
f 35 46 45
f 35 47 48
f 36 48 39
f 36 39 37
f 38 43 49
f 38 49 50
f 39 48 47
f 39 47 51
f 41 51 47
f 41 47 52
f 41 52 42
f 44 53 45
f 45 53 55
f 45 55 56
f 45 56 54
f 49 57 50
f 50 57 56
f 54 56 57

