# https://github.com/mikedh/trimesh
v -0.57257164 0.20595303 -0.03433614
v -0.50190597 0.20595303 -0.05848479
v -0.57257164 0.20595303 -0.07253920
v -0.57257164 0.17146662 -0.04650314
v -0.50190597 0.20520846 -0.05875442
v -0.50190597 0.20595303 -0.07238753
v -0.50190597 0.11785876 -0.11259596
v -0.57257164 0.11785876 -0.11259596
v -0.50190597 0.13312212 -0.08516121
v -0.50190597 0.13366360 -0.08495899
v -0.57257164 0.11014247 -0.06982606
v -0.50190597 0.10929640 -0.11611799
v -0.57257164 0.10929640 -0.11611799
v -0.50190597 0.12763949 -0.08725083
v -0.57257164 -0.13166833 -0.16650492
v -0.50190597 -0.13979073 -0.19292857
v -0.50190597 -0.11186996 -0.19680448
v -0.57257164 0.02038988 -0.14855773
v -0.57257164 -0.13874159 -0.17149305
v -0.57257164 -0.13979073 -0.17444212
v -0.50190597 -0.13979073 -0.20593815
v -0.50190597 -0.12039849 -0.19990521
v -0.57257164 -0.11186996 -0.19680448
v -0.57257164 -0.13979073 -0.20647742
v -0.57257164 -0.12039849 -0.19990521
f 1 2 6
f 1 6 3
f 1 3 8
f 1 8 13
f 1 13 18
f 1 18 23
f 1 23 25
f 1 25 24
f 1 24 20
f 1 20 19
f 1 19 15
f 1 15 11
f 1 11 4
f 1 4 2
f 2 4 5
f 2 5 10
f 2 10 9
f 2 9 14
f 2 14 16
f 2 16 21
f 2 21 22
f 2 22 17
f 2 17 12
f 2 12 7
f 2 7 6
f 3 6 7
f 3 7 8
f 4 9 10
f 4 10 5
f 4 11 9
f 7 12 13
f 7 13 8
f 9 11 14
f 11 15 16
f 11 16 14
f 12 17 18
f 12 18 13
f 15 19 16
f 16 19 20
f 16 20 24
f 16 24 21
f 17 22 25
f 17 25 23
f 17 23 18
f 21 24 22
f 22 24 25

