# https://github.com/mikedh/trimesh
v 0.52688201 0.70910545 0.08292785
v 0.51466592 0.73353890 0.08291655
v 0.51466592 0.72132218 0.08209189
v 0.53909806 0.68468627 0.08290525
v 0.58794036 0.59280393 0.08286007
v 0.58794036 0.59918346 0.08274710
v 0.57572427 0.62361691 0.08265672
v 0.56350822 0.64805036 0.08253246
v 0.55130312 0.67246955 0.08239690
v 0.53909806 0.69688873 0.08222745
v 0.52688201 0.72132218 0.08199021
v 0.51466592 0.73860542 0.08241949
v 0.50202103 0.73860542 0.08032959
v 0.50169117 0.73319638 0.07884971
v 0.50523173 0.72132218 0.07761837
v 0.52688201 0.69688873 0.08182076
v 0.57572427 0.61140019 0.08267932
v 0.56350822 0.63583364 0.08276969
v 0.57561433 0.59280393 0.07884971
v 0.59979357 0.59280393 0.07816061
v 0.59843013 0.59918346 0.07828488
v 0.58794036 0.61140019 0.08067979
v 0.54873019 0.69688873 0.07775393
v 0.53617325 0.72132218 0.07752800
v 0.52743179 0.73349609 0.07857860
v 0.52582644 0.73860542 0.07802505
v 0.49423620 0.73860542 0.07626276
v 0.51781066 0.69688873 0.07735854
v 0.53909806 0.67246955 0.08151575
v 0.55130312 0.64805036 0.08116555
v 0.56350822 0.62361691 0.08077017
v 0.56754358 0.60138133 0.07661296
v 0.56983066 0.59280393 0.06797094
v 0.60465359 0.59280393 0.06797094
v 0.60286131 0.59918346 0.06797094
v 0.59583517 0.61140019 0.07620628
v 0.58792936 0.62251798 0.07749410
v 0.57388801 0.64805036 0.07807024
v 0.56129809 0.67246955 0.07792338
v 0.58386099 0.63353587 0.07657907
v 0.53402912 0.72940006 0.07573181
v 0.57139203 0.65751262 0.07642091
v 0.55893404 0.68146083 0.07622887
v 0.54648708 0.70543757 0.07600293
v 0.53019165 0.73860542 0.06797094
v 0.49241089 0.73860542 0.06797094
v 0.49492889 0.73703552 0.07609331
v 0.51987783 0.68909628 0.07555106
v 0.53233578 0.66514807 0.07521216
v 0.54479378 0.64117132 0.07482807
v 0.55724074 0.61720884 0.07438750
v 0.56981967 0.59280393 0.06718017
v 0.60471959 0.59280393 0.05575914
v 0.59760543 0.61140019 0.06797094
v 0.59415283 0.61770835 0.07428583
v 0.60291631 0.59918346 0.05575914
v 0.53131319 0.73649319 0.06797094
v 0.53019165 0.73860542 -0.01752294
v 0.49239990 0.73860542 0.05575914
v 0.56973168 0.59280393 0.05575914
v 0.60471959 0.59280393 -0.00531114
v 0.59760543 0.61140019 -0.01752294
v 0.59097511 0.62391662 0.06797094
v 0.54713584 0.70665069 0.06797094
v 0.60291631 0.59918346 -0.00531114
v 0.53131319 0.73649319 -0.01752294
v 0.59415283 0.61770835 -0.02383783
v 0.53402912 0.72940006 -0.02528381
v 0.52955393 0.73860542 -0.01963543
v 0.49239990 0.73860542 -0.01388538
v 0.56973168 0.59280393 -0.00589857
v 0.60469760 0.59280393 -0.00944575
v 0.60286131 0.59918346 -0.01752294
v 0.59097511 0.62391662 -0.01752294
v 0.58162891 0.64155666 0.05575914
v 0.54713584 0.70665069 -0.01752294
v 0.59583517 0.61140019 -0.02575828
v 0.57139203 0.65751262 -0.02597291
v 0.55893404 0.68146083 -0.02578087
v 0.54648708 0.70543757 -0.02555493
v 0.53617325 0.72132218 -0.02708000
v 0.52582644 0.73860542 -0.02757705
v 0.49241089 0.73860542 -0.01752294
v 0.56983066 0.59280393 -0.01752294
v 0.60465359 0.59280393 -0.01752294
v 0.59843013 0.59918346 -0.02783688
v 0.60315822 0.59280393 -0.02101363
v 0.58162891 0.64155666 -0.00531114
v 0.58792936 0.62251798 -0.02704610
v 0.57388801 0.64805036 -0.02762224
v 0.58386099 0.63353587 -0.02613107
v 0.52212094 0.73860542 -0.02942972
v 0.54873019 0.69688873 -0.02730593
v 0.49366440 0.73860542 -0.02414284
v 0.55724074 0.61720884 -0.02393950
v 0.56754358 0.60138133 -0.02616496
v 0.57016052 0.59280393 -0.01820074
v 0.58794036 0.59918346 -0.03229910
v 0.58794036 0.61140019 -0.03023179
v 0.59979357 0.59280393 -0.02771261
v 0.56129809 0.67246955 -0.02747538
v 0.51466592 0.73860542 -0.03197149
v 0.52688201 0.72132218 -0.03154221
v 0.49423620 0.73860542 -0.02581476
v 0.49492889 0.73703552 -0.02564531
v 0.51987783 0.68909628 -0.02510306
v 0.54479378 0.64117132 -0.02438007
v 0.57561433 0.59280393 -0.02840171
v 0.53233578 0.66514807 -0.02476416
v 0.51781066 0.69688873 -0.02691054
v 0.57572427 0.62361691 -0.03220872
v 0.59469161 0.59280393 -0.02988159
v 0.58794036 0.59280393 -0.03241207
v 0.52688201 0.70910545 -0.03247985
v 0.51466592 0.73353890 -0.03246855
v 0.56350822 0.64805036 -0.03208446
v 0.55130312 0.67246955 -0.03194890
v 0.53909806 0.69688873 -0.03177945
v 0.50960797 0.73860542 -0.03220872
v 0.49731493 0.73860542 -0.02774650
v 0.50523173 0.72132218 -0.02717037
v 0.55130312 0.64805036 -0.03071755
v 0.56350822 0.62361691 -0.03032217
v 0.58090319 0.59280393 -0.03051421
v 0.53909806 0.67246955 -0.03106775
v 0.57572427 0.61140019 -0.03223132
v 0.56350822 0.63583364 -0.03232169
v 0.53909806 0.68468627 -0.03245725
v 0.50202103 0.73860542 -0.02988159
v 0.51466592 0.72132218 -0.03164389
v 0.52688201 0.69688873 -0.03137276
f 1 2 3
f 1 3 4
f 1 4 5
f 1 5 6
f 1 6 2
f 2 6 7
f 2 7 8
f 2 8 9
f 2 9 10
f 2 10 11
f 2 11 12
f 2 12 13
f 2 13 3
f 3 13 14
f 3 14 15
f 3 15 16
f 3 16 17
f 3 17 18
f 3 18 4
f 4 18 5
f 5 18 17
f 5 17 19
f 5 19 33
f 5 33 52
f 5 52 60
f 5 60 71
f 5 71 84
f 5 84 97
f 5 97 108
f 5 108 124
f 5 124 113
f 5 113 112
f 5 112 100
f 5 100 87
f 5 87 85
f 5 85 72
f 5 72 61
f 5 61 53
f 5 53 34
f 5 34 20
f 5 20 6
f 6 20 21
f 6 21 22
f 6 22 7
f 7 22 8
f 8 22 9
f 9 22 10
f 10 22 11
f 11 23 24
f 11 24 25
f 11 25 26
f 11 26 12
f 11 22 23
f 12 26 45
f 12 45 58
f 12 58 69
f 12 69 82
f 12 82 92
f 12 92 102
f 12 102 119
f 12 119 129
f 12 129 120
f 12 120 104
f 12 104 94
f 12 94 83
f 12 83 70
f 12 70 59
f 12 59 46
f 12 46 27
f 12 27 13
f 13 27 14
f 14 27 15
f 15 27 28
f 15 28 19
f 15 19 29
f 15 29 16
f 16 29 17
f 17 29 30
f 17 30 31
f 17 31 19
f 19 32 33
f 19 31 30
f 19 30 29
f 19 28 32
f 20 34 21
f 21 34 35
f 21 35 36
f 21 36 37
f 21 37 38
f 21 38 22
f 22 38 39
f 22 39 23
f 23 39 40
f 23 40 24
f 24 41 26
f 24 26 25
f 24 40 42
f 24 42 43
f 24 43 44
f 24 44 41
f 26 41 45
f 27 46 47
f 27 47 48
f 27 48 32
f 27 32 28
f 32 49 50
f 32 50 51
f 32 51 33
f 32 48 49
f 33 51 46
f 33 46 52
f 34 53 35
f 35 54 55
f 35 55 36
f 35 53 56
f 35 56 54
f 36 55 42
f 36 42 40
f 36 40 38
f 36 38 37
f 38 40 39
f 41 44 55
f 41 55 45
f 42 55 43
f 43 55 44
f 45 55 57
f 45 57 66
f 45 66 58
f 46 48 47
f 46 59 60
f 46 60 52
f 46 51 50
f 46 50 48
f 48 50 49
f 53 61 65
f 53 65 56
f 54 56 65
f 54 65 62
f 54 62 74
f 54 74 63
f 54 63 55
f 55 63 64
f 55 64 57
f 57 64 76
f 57 76 66
f 58 66 67
f 58 67 68
f 58 68 69
f 59 70 71
f 59 71 60
f 61 72 73
f 61 73 65
f 62 65 73
f 62 73 67
f 62 67 74
f 63 74 88
f 63 88 75
f 63 75 64
f 64 75 88
f 64 88 76
f 66 76 67
f 67 73 77
f 67 77 78
f 67 78 79
f 67 79 80
f 67 80 68
f 67 76 74
f 68 80 81
f 68 81 82
f 68 82 69
f 70 83 71
f 71 83 84
f 72 85 73
f 73 86 77
f 73 85 87
f 73 87 86
f 74 76 88
f 77 89 90
f 77 90 91
f 77 91 78
f 77 86 89
f 78 91 81
f 78 81 79
f 79 81 80
f 81 92 82
f 81 91 93
f 81 93 92
f 83 94 95
f 83 95 84
f 84 95 96
f 84 96 97
f 86 98 99
f 86 99 90
f 86 90 89
f 86 87 100
f 86 100 98
f 90 99 101
f 90 101 91
f 91 101 93
f 92 93 103
f 92 103 102
f 93 101 99
f 93 99 103
f 94 104 105
f 94 105 106
f 94 106 107
f 94 107 95
f 95 107 96
f 96 108 97
f 96 107 109
f 96 109 106
f 96 106 104
f 96 104 110
f 96 110 108
f 98 111 99
f 98 100 112
f 98 112 113
f 98 113 114
f 98 114 115
f 98 115 111
f 99 111 116
f 99 116 117
f 99 117 118
f 99 118 103
f 102 103 115
f 102 115 119
f 103 118 115
f 104 106 105
f 104 120 121
f 104 121 110
f 106 109 107
f 108 122 123
f 108 123 124
f 108 110 121
f 108 121 125
f 108 125 122
f 111 115 116
f 113 124 126
f 113 126 127
f 113 127 128
f 113 128 114
f 114 128 119
f 114 119 115
f 115 118 117
f 115 117 116
f 119 128 130
f 119 130 129
f 120 129 130
f 120 130 131
f 120 131 125
f 120 125 121
f 122 126 124
f 122 124 123
f 122 125 126
f 125 131 126
f 126 131 130
f 126 130 127
f 127 130 128

