# https://github.com/mikedh/trimesh
v 0.56294795 0.22228880 0.05293860
v 0.56294795 0.22741965 0.05293860
v 0.56294795 0.20614001 0.10095484
v -0.00044647 0.20613233 0.10095484
v -0.15203806 0.20613233 0.10095484
v -0.15203806 0.22355619 0.05746878
v -0.15203806 0.22455272 0.05691150
v 0.56294795 0.22753207 0.05316032
v -0.15203806 0.22607050 0.05691150
v -0.15203806 0.22970397 0.06406030
v 0.56294795 0.20614001 0.11351468
v -0.00044647 0.20613233 0.11352068
v -0.15203806 0.20613233 0.11415586
v 0.56294795 0.23006426 0.06405430
v -0.15203806 0.23185289 0.07615275
v 0.56294795 0.23010258 0.06425804
v 0.56294795 0.21793732 0.11204658
v -0.15203806 0.21813407 0.11271172
v -0.15203806 0.23223362 0.08822721
v 0.56294795 0.23167913 0.08822721
v 0.56294795 0.23125242 0.07634450
v 0.56294795 0.23124476 0.07614676
v 0.56294795 0.21813407 0.11201661
v -0.15203806 0.22805844 0.10926016
v -0.15203806 0.23220806 0.09104359
v 0.56294795 0.23155138 0.10031367
v 0.56294795 0.22758317 0.10860101
v -0.15203806 0.23135719 0.10232708
v 0.56294795 0.23148751 0.10045149
v -0.15203806 0.23210586 0.10031966
f 1 2 8
f 1 8 14
f 1 14 16
f 1 16 22
f 1 22 21
f 1 21 20
f 1 20 26
f 1 26 29
f 1 29 27
f 1 27 23
f 1 23 17
f 1 17 11
f 1 11 3
f 1 3 4
f 1 4 5
f 1 5 6
f 1 6 7
f 1 7 9
f 1 9 2
f 2 9 10
f 2 10 8
f 3 11 12
f 3 12 4
f 4 12 13
f 4 13 5
f 5 13 18
f 5 18 24
f 5 24 28
f 5 28 30
f 5 30 25
f 5 25 19
f 5 19 15
f 5 15 10
f 5 10 9
f 5 9 7
f 5 7 6
f 8 10 14
f 10 15 16
f 10 16 14
f 11 13 12
f 11 17 18
f 11 18 13
f 15 19 20
f 15 20 21
f 15 21 22
f 15 22 16
f 17 23 18
f 18 23 24
f 19 25 20
f 20 25 26
f 23 27 24
f 24 27 29
f 24 29 28
f 25 30 26
f 26 30 28
f 26 28 29

