# https://github.com/mikedh/trimesh
v 0.62023005 -0.13979072 0.18870346
v 0.56300312 -0.13979072 0.18809060
v 0.62023005 -0.13979072 0.16986724
v 0.62023005 -0.12040185 0.18498127
v 0.56300312 -0.10850661 0.18265603
v 0.56300312 -0.12040185 0.18487312
v 0.56300312 -0.13979072 0.17580650
v 0.62023005 -0.10748804 0.16151260
v 0.62023005 -0.10832471 0.18261999
v 0.56300312 -0.10832471 0.18261999
v 0.62023005 -0.09621122 0.15870070
v 0.56300312 0.21502936 0.09664029
v 0.62023005 -0.09668412 0.18011449
v 0.56300312 -0.09668412 0.18011449
v 0.62023005 0.11968557 0.11170025
v 0.56300312 0.23158085 0.09664029
v 0.62023005 0.20604428 0.09664029
v 0.62023005 0.19389441 0.09744241
v 0.62023005 0.18185365 0.09853292
v 0.62023005 0.18185365 0.11998279
v 0.56300312 0.18185365 0.11998279
v 0.56300312 0.23154447 0.10032642
v 0.62023005 0.23183548 0.09664029
v 0.62023005 0.18650989 0.11897338
v 0.56300312 0.18825598 0.11859485
v 0.62023005 0.23161723 0.10032642
v 0.56300312 0.22757938 0.10860896
v 0.62023005 0.18836511 0.11856782
v 0.62023005 0.21812140 0.11205175
v 0.56300312 0.21812140 0.11202471
v 0.62023005 0.23048953 0.10266968
v 0.62023005 0.22757938 0.10860896
f 1 2 7
f 1 7 3
f 1 3 8
f 1 8 11
f 1 11 15
f 1 15 19
f 1 19 18
f 1 18 17
f 1 17 23
f 1 23 26
f 1 26 31
f 1 31 32
f 1 32 29
f 1 29 28
f 1 28 24
f 1 24 20
f 1 20 13
f 1 13 9
f 1 9 4
f 1 4 5
f 1 5 6
f 1 6 2
f 2 6 5
f 2 5 10
f 2 10 14
f 2 14 21
f 2 21 25
f 2 25 30
f 2 30 27
f 2 27 22
f 2 22 16
f 2 16 12
f 2 12 7
f 3 7 8
f 4 9 5
f 5 9 10
f 7 11 8
f 7 12 11
f 9 13 14
f 9 14 10
f 11 12 15
f 12 16 23
f 12 23 17
f 12 17 18
f 12 18 19
f 12 19 15
f 13 20 21
f 13 21 14
f 16 22 23
f 20 24 25
f 20 25 21
f 22 26 23
f 22 27 26
f 24 28 25
f 25 28 29
f 25 29 30
f 26 27 31
f 27 30 29
f 27 29 32
f 27 32 31

