# https://github.com/mikedh/trimesh
v 0.07491518 0.99006520 -0.03257236
v 0.06269839 0.99006520 -0.03244789
v 0.05003501 1.00227932 -0.03041122
v 0.08713196 0.99006520 -0.03250447
v 0.16040385 0.97785669 -0.03256104
v 0.14820146 0.97785669 -0.03252710
v 0.05048161 0.99006520 -0.03209713
v 0.05003501 0.99051006 -0.03207450
v 0.13598468 0.97785669 -0.03233475
v 0.05003501 1.00258341 -0.03024150
v 0.09934874 0.99975652 -0.02778617
v 0.12376790 0.99006520 -0.03086381
v 0.11156552 0.99006520 -0.03174637
v 0.09934874 0.99006520 -0.03225554
v 0.17262063 0.97785669 -0.03239132
v 0.19721266 0.96563692 -0.03172374
v 0.05003501 0.99006520 -0.03207450
v 0.05003501 1.00971253 -0.02594184
v 0.11156552 0.99880484 -0.02727700
v 0.18483741 0.98697926 -0.02752592
v 0.19705419 0.97785669 -0.03128246
v 0.18483741 0.97785669 -0.03198398
v 0.19721266 0.97770463 -0.03129377
v 0.19721266 0.96549050 -0.03166717
v 0.11156552 0.97785669 -0.03110142
v 0.05003501 0.98106647 -0.02777485
v 0.05003501 1.00979703 -0.02559108
v 0.05048161 1.00967875 -0.02589658
v 0.12376790 0.99785317 -0.02640576
v 0.19705419 0.98602759 -0.02681309
v 0.19721266 0.98594313 -0.02683572
v 0.19721266 0.97786793 -0.03124852
v 0.19721266 0.95659880 -0.02725437
v 0.05048161 0.98072296 -0.02762776
v 0.05003501 0.98076239 -0.02760513
v 0.05003501 1.01103589 -0.01752358
v 0.06007639 1.00892981 -0.02469721
v 0.13598468 0.99690149 -0.02501403
v 0.19721266 0.98601069 -0.02679046
v 0.14315916 0.99633839 -0.02399569
v 0.19721266 0.95653684 -0.02710728
v 0.16619529 0.95948197 -0.02374676
v 0.17262063 0.95898079 -0.02468589
v 0.09125224 0.97143708 -0.02427856
v 0.09934874 0.97080638 -0.02537610
v 0.11156552 0.96985470 -0.02663205
v 0.05003501 0.97764270 -0.01787434
v 0.05003501 1.01103589 0.06797158
v 0.05048161 1.01096833 -0.01752358
v 0.19721266 0.98804922 -0.01764804
v 0.19705419 0.98809989 -0.01752358
v 0.06181959 1.00920011 -0.01752358
v 0.12376790 0.99953693 -0.01752358
v 0.19721266 0.95360300 -0.01752358
v 0.05003501 0.97755824 -0.01752358
v 0.05003501 1.00971253 0.07638984
v 0.05048161 1.00967875 0.07634458
v 0.06007639 1.00892981 0.07514521
v 0.05048161 1.01096833 0.06797158
v 0.06792798 1.00824843 -0.00530352
v 0.19721266 0.98806611 -0.01752358
v 0.19705419 0.98809989 0.06797158
v 0.08713196 1.00525263 -0.00530352
v 0.12376790 0.99953693 0.06797158
v 0.19721266 0.95359736 -0.01735386
v 0.05003501 0.97755824 0.06797158
v 0.19721266 0.95351290 -0.00530352
v 0.05003501 1.00227932 0.08085922
v 0.09934874 0.99975652 0.07823417
v 0.11156552 0.99880484 0.07772500
v 0.12376790 0.99785317 0.07685376
v 0.13598468 0.99690149 0.07546203
v 0.14315916 0.99633839 0.07444369
v 0.06181959 1.00920011 0.06797158
v 0.06792798 1.00824843 0.05575152
v 0.19721266 0.98806611 0.06797158
v 0.19721266 0.98601069 0.07723846
v 0.08713196 1.00525263 0.05575152
v 0.09125224 0.97143708 0.07472656
v 0.05003501 0.98076239 0.07805313
v 0.19721266 0.95351290 0.05575152
v 0.19721266 0.95360300 0.06797158
v 0.05003501 0.99006520 0.08252250
v 0.05048161 0.99006520 0.08254513
v 0.06269839 0.99006520 0.08289589
v 0.07491518 0.99006520 0.08302036
v 0.08713196 0.99006520 0.08295247
v 0.09934874 0.99006520 0.08270354
v 0.11156552 0.99006520 0.08219437
v 0.12376790 0.99006520 0.08131181
v 0.18483741 0.98697926 0.07797392
v 0.19705419 0.98602759 0.07726109
v 0.19721266 0.97797493 0.08163994
v 0.09934874 0.97080638 0.07582410
v 0.16619529 0.95948197 0.07419476
v 0.17262063 0.95898079 0.07513389
v 0.19721266 0.95659880 0.07770237
v 0.05048161 0.98072296 0.07807576
v 0.11156552 0.96985470 0.07708005
v 0.11156552 0.97785669 0.08154942
v 0.19721266 0.96563692 0.08217174
v 0.13598468 0.97785669 0.08278275
v 0.14820146 0.97785669 0.08297510
v 0.16040385 0.97785669 0.08300904
v 0.17262063 0.97785669 0.08283932
v 0.18483741 0.97785669 0.08243198
v 0.19705419 0.97785669 0.08173046
v 0.19721266 0.97786793 0.08169652
v 0.19705419 0.96563692 0.08216043
f 1 2 3
f 1 3 4
f 1 4 5
f 1 5 6
f 1 6 2
f 2 7 8
f 2 8 3
f 2 6 9
f 2 9 7
f 3 8 17
f 3 17 26
f 3 26 35
f 3 35 47
f 3 47 55
f 3 55 66
f 3 66 80
f 3 80 83
f 3 83 68
f 3 68 56
f 3 56 48
f 3 48 36
f 3 36 27
f 3 27 18
f 3 18 10
f 3 10 11
f 3 11 12
f 3 12 13
f 3 13 14
f 3 14 4
f 4 14 15
f 4 15 5
f 5 15 16
f 5 16 6
f 6 16 9
f 7 17 8
f 7 9 16
f 7 16 17
f 10 18 11
f 11 19 20
f 11 20 12
f 11 18 19
f 12 20 21
f 12 21 13
f 13 21 22
f 13 22 14
f 14 22 15
f 15 22 16
f 16 22 23
f 16 23 32
f 16 32 31
f 16 31 39
f 16 39 50
f 16 50 61
f 16 61 76
f 16 76 77
f 16 77 93
f 16 93 108
f 16 108 101
f 16 101 97
f 16 97 82
f 16 82 81
f 16 81 67
f 16 67 65
f 16 65 54
f 16 54 41
f 16 41 33
f 16 33 24
f 16 24 17
f 17 25 26
f 17 24 25
f 18 27 28
f 18 28 29
f 18 29 19
f 19 29 30
f 19 30 20
f 20 30 21
f 21 30 31
f 21 31 32
f 21 32 23
f 21 23 22
f 24 33 25
f 25 33 26
f 26 34 35
f 26 33 34
f 27 36 37
f 27 37 28
f 28 37 38
f 28 38 29
f 29 38 30
f 30 39 31
f 30 38 40
f 30 40 39
f 33 41 42
f 33 42 43
f 33 43 44
f 33 44 45
f 33 45 46
f 33 46 35
f 33 35 34
f 35 46 45
f 35 45 44
f 35 44 47
f 36 48 59
f 36 59 49
f 36 49 37
f 37 49 40
f 37 40 38
f 39 40 50
f 40 51 50
f 40 49 52
f 40 52 53
f 40 53 51
f 41 54 42
f 42 54 44
f 42 44 43
f 44 55 47
f 44 54 55
f 48 56 57
f 48 57 58
f 48 58 59
f 49 59 75
f 49 75 60
f 49 60 52
f 50 51 61
f 51 62 76
f 51 76 61
f 51 53 64
f 51 64 62
f 52 60 53
f 53 60 63
f 53 63 78
f 53 78 64
f 54 65 55
f 55 65 67
f 55 67 81
f 55 81 66
f 56 68 69
f 56 69 70
f 56 70 71
f 56 71 57
f 57 71 72
f 57 72 58
f 58 72 73
f 58 73 59
f 59 73 74
f 59 74 75
f 60 75 78
f 60 78 63
f 62 77 76
f 62 64 73
f 62 73 77
f 64 78 75
f 64 75 74
f 64 74 73
f 66 79 80
f 66 81 82
f 66 82 79
f 68 83 84
f 68 84 85
f 68 85 86
f 68 86 87
f 68 87 88
f 68 88 89
f 68 89 90
f 68 90 69
f 69 90 91
f 69 91 70
f 70 91 92
f 70 92 71
f 71 92 72
f 72 92 73
f 73 92 77
f 77 92 93
f 79 94 80
f 79 82 95
f 79 95 96
f 79 96 97
f 79 97 94
f 80 98 83
f 80 94 99
f 80 99 97
f 80 97 98
f 82 97 95
f 83 98 100
f 83 100 101
f 83 101 84
f 84 101 102
f 84 102 85
f 85 102 103
f 85 103 86
f 86 103 104
f 86 104 87
f 87 104 105
f 87 105 88
f 88 105 106
f 88 106 89
f 89 106 107
f 89 107 90
f 90 107 91
f 91 107 92
f 92 107 93
f 93 107 108
f 94 97 99
f 95 97 96
f 97 101 109
f 97 109 100
f 97 100 98
f 100 109 101
f 101 108 107
f 101 107 106
f 101 106 105
f 101 105 104
f 101 104 103
f 101 103 102

