# https://github.com/mikedh/trimesh
v -0.56028160 0.52588675 0.08302036
v -0.54806977 0.58696332 0.08295247
v -0.54806977 0.58703142 0.08295247
v -0.56028160 0.53809525 0.08289589
v -0.57249340 0.46482722 0.08297510
v -0.57249340 0.45260169 0.08297510
v -0.54806977 0.57473778 0.08269223
v -0.54796817 0.58703142 0.08292984
v -0.56028160 0.51366122 0.08287326
v -0.56091664 0.58703142 0.07814365
v -0.56028160 0.57473778 0.08037268
v -0.56028160 0.56252928 0.08174177
v -0.56028160 0.55030376 0.08251119
v -0.57249340 0.47703572 0.08272617
v -0.58470522 0.41595917 0.08237541
v -0.58470522 0.41311561 0.08236409
v -0.57249340 0.44039319 0.08274880
v -0.54806977 0.56252928 0.08205860
v -0.53689309 0.58703142 0.07849441
v -0.56028160 0.50145273 0.08246593
v -0.56114525 0.58703142 0.07804182
v -0.56849266 0.56252928 0.07727240
v -0.56959126 0.55030376 0.07805313
v -0.58470522 0.42818469 0.08160600
v -0.57249340 0.48924422 0.08213780
v -0.59369103 0.41595917 0.07790603
v -0.59368470 0.41311561 0.07789472
v -0.57249340 0.41311561 0.08128918
v -0.57249340 0.42818469 0.08216043
v -0.53837274 0.57473778 0.07822285
v -0.53681690 0.58703142 0.07834732
v -0.53947771 0.56252928 0.07758922
v -0.56604776 0.58703142 0.07039296
v -0.56668916 0.58257030 0.07472656
v -0.56739405 0.57473778 0.07590330
v -0.58008849 0.50145273 0.07658219
v -0.59278289 0.42818469 0.07713662
v -0.58118710 0.48924422 0.07766842
v -0.58228573 0.47703572 0.07825680
v -0.59656776 0.41595917 0.06797158
v -0.59654868 0.41311561 0.06797158
v -0.56654307 0.41311561 0.07787209
v -0.56473324 0.41311561 0.07683113
v -0.53176831 0.58703142 0.06797158
v -0.54057632 0.55030376 0.07644642
v -0.56616207 0.58703142 0.06797158
v -0.56684792 0.58342165 0.06797158
v -0.57922484 0.51105606 0.07528098
v -0.59103018 0.44769785 0.07453420
v -0.59168429 0.44039319 0.07567701
v -0.59475156 0.42818469 0.06797158
v -0.59656776 0.41595917 -0.01752358
v -0.59654868 0.41311561 -0.01752358
v -0.56345680 0.41311561 0.07004220
v -0.55393757 0.46959483 0.07459078
v -0.54140185 0.54109203 0.07516784
v -0.53170482 0.58703142 0.05575152
v -0.56307576 0.41311561 0.06797158
v -0.56619381 0.58703142 0.06074138
v -0.56684792 0.58342165 -0.01752358
v -0.56841009 0.57473778 0.06797158
v -0.58377805 0.48924422 0.06797158
v -0.59113816 0.44829381 0.06797158
v -0.59475156 0.42818469 -0.01752358
v -0.59369103 0.41595917 -0.02745803
v -0.59588824 0.41311561 -0.01984313
v -0.59103018 0.44769785 -0.02408620
v -0.59168429 0.44039319 -0.02522901
v -0.59278289 0.42818469 -0.02668862
v -0.53169848 0.58703142 0.04354277
v -0.56306306 0.41311561 0.05861418
v -0.56619381 0.58703142 -0.00530352
v -0.56668916 0.58257030 -0.02427856
v -0.56841009 0.57473778 -0.01752358
v -0.56616207 0.58703142 -0.01752358
v -0.58377805 0.48924422 -0.01752358
v -0.59003955 0.45440657 0.05575152
v -0.59113816 0.44829381 -0.01752358
v -0.58118710 0.48924422 -0.02722042
v -0.58228573 0.47703572 -0.02780880
v -0.58470522 0.42818469 -0.03115800
v -0.58470522 0.41595917 -0.03192741
v -0.59159539 0.41311561 -0.02849900
v -0.59368470 0.41311561 -0.02744672
v -0.57922484 0.51105606 -0.02483298
v -0.56739405 0.57473778 -0.02545530
v -0.58008849 0.50145273 -0.02613419
v -0.56849266 0.56252928 -0.02682440
v -0.53169848 0.58703142 0.00674682
v -0.56306306 0.41311561 -0.00530352
v -0.56164694 0.58703142 -0.02659811
v -0.56114525 0.58703142 -0.02759382
v -0.59003955 0.45440657 -0.00530352
v -0.56959126 0.55030376 -0.02760513
v -0.57249340 0.48924422 -0.03168980
v -0.56028160 0.56252928 -0.03129377
v -0.58470522 0.41311561 -0.03191609
v -0.56028160 0.55030376 -0.03206319
v -0.57249340 0.47703572 -0.03227817
v -0.57249340 0.46482722 -0.03252710
v -0.57249340 0.45260169 -0.03252710
v -0.56028160 0.57473778 -0.02992468
v -0.53170482 0.58703142 -0.00547324
v -0.56307576 0.41311561 -0.01752358
v -0.54813963 0.58703142 -0.03248184
v -0.54806977 0.58703142 -0.03250447
v -0.58185387 0.41311561 -0.03166717
v -0.57249340 0.44039319 -0.03230080
v -0.57249340 0.42818469 -0.03171243
v -0.56028160 0.53809525 -0.03244789
v -0.56028160 0.52588675 -0.03257236
v -0.54806977 0.58696332 -0.03250447
v -0.56028160 0.51366122 -0.03242526
v -0.53176831 0.58703142 -0.01752358
v -0.56473324 0.41311561 -0.02638313
v -0.55393757 0.46959483 -0.02414278
v -0.53689309 0.58703142 -0.02804641
v -0.57249340 0.41311561 -0.03084118
v -0.54806977 0.57473778 -0.03224423
v -0.56028160 0.50145273 -0.03201793
v -0.54140185 0.54109203 -0.02471984
v -0.54057632 0.55030376 -0.02599842
v -0.53947771 0.56252928 -0.02714122
v -0.53837274 0.57473778 -0.02777485
v -0.54806977 0.56252928 -0.03161060
f 1 2 3
f 1 3 4
f 1 4 5
f 1 5 6
f 1 6 2
f 2 7 8
f 2 8 3
f 2 6 9
f 2 9 7
f 3 8 19
f 3 19 31
f 3 31 44
f 3 44 57
f 3 57 70
f 3 70 89
f 3 89 103
f 3 103 114
f 3 114 117
f 3 117 106
f 3 106 105
f 3 105 92
f 3 92 91
f 3 91 75
f 3 75 72
f 3 72 59
f 3 59 46
f 3 46 33
f 3 33 21
f 3 21 10
f 3 10 11
f 3 11 12
f 3 12 13
f 3 13 4
f 4 13 14
f 4 14 5
f 5 14 15
f 5 15 6
f 6 15 16
f 6 16 17
f 6 17 9
f 7 18 19
f 7 19 8
f 7 9 17
f 7 17 20
f 7 20 18
f 10 21 11
f 11 22 23
f 11 23 12
f 11 21 22
f 12 23 24
f 12 24 25
f 12 25 13
f 13 25 15
f 13 15 14
f 15 24 26
f 15 26 16
f 15 25 24
f 16 27 41
f 16 41 53
f 16 53 66
f 16 66 84
f 16 84 83
f 16 83 97
f 16 97 107
f 16 107 118
f 16 118 115
f 16 115 104
f 16 104 90
f 16 90 71
f 16 71 58
f 16 58 54
f 16 54 43
f 16 43 42
f 16 42 28
f 16 28 29
f 16 29 17
f 16 26 27
f 17 29 20
f 18 30 19
f 18 20 28
f 18 28 30
f 19 30 32
f 19 32 31
f 20 29 28
f 21 33 34
f 21 34 35
f 21 35 22
f 22 35 36
f 22 36 37
f 22 37 38
f 22 38 23
f 23 38 39
f 23 39 24
f 24 39 26
f 26 40 27
f 26 39 38
f 26 38 37
f 26 37 40
f 27 40 41
f 28 42 30
f 30 42 43
f 30 43 32
f 31 32 44
f 32 45 44
f 32 43 45
f 33 46 47
f 33 47 34
f 34 48 35
f 34 47 49
f 34 49 48
f 35 48 50
f 35 50 36
f 36 50 37
f 37 50 40
f 40 50 49
f 40 49 51
f 40 51 64
f 40 64 52
f 40 52 53
f 40 53 41
f 43 54 55
f 43 55 56
f 43 56 45
f 44 45 56
f 44 56 55
f 44 55 58
f 44 58 57
f 46 59 47
f 47 60 74
f 47 74 61
f 47 61 49
f 47 59 72
f 47 72 60
f 48 49 50
f 49 62 63
f 49 63 51
f 49 61 62
f 51 63 78
f 51 78 64
f 52 65 66
f 52 66 53
f 52 64 67
f 52 67 68
f 52 68 69
f 52 69 65
f 54 58 55
f 57 58 71
f 57 71 70
f 60 73 67
f 60 67 74
f 60 72 75
f 60 75 73
f 61 74 76
f 61 76 62
f 62 76 93
f 62 93 77
f 62 77 63
f 63 77 93
f 63 93 78
f 64 78 67
f 65 69 79
f 65 79 80
f 65 80 81
f 65 81 82
f 65 82 83
f 65 83 84
f 65 84 66
f 67 78 76
f 67 76 74
f 67 73 85
f 67 85 68
f 68 85 86
f 68 86 87
f 68 87 69
f 69 87 88
f 69 88 79
f 70 71 90
f 70 90 89
f 73 75 91
f 73 91 92
f 73 92 86
f 73 86 85
f 76 78 93
f 79 88 94
f 79 94 80
f 80 94 81
f 81 95 82
f 81 94 96
f 81 96 95
f 82 97 83
f 82 95 98
f 82 98 99
f 82 99 100
f 82 100 101
f 82 101 97
f 86 92 88
f 86 88 87
f 88 92 102
f 88 102 94
f 89 90 103
f 90 104 103
f 92 105 102
f 94 102 96
f 95 96 98
f 96 102 105
f 96 105 106
f 96 106 98
f 97 101 108
f 97 108 109
f 97 109 107
f 98 106 110
f 98 110 99
f 99 110 100
f 100 110 111
f 100 111 101
f 101 111 112
f 101 112 113
f 101 113 108
f 103 104 114
f 104 115 116
f 104 116 114
f 106 117 112
f 106 112 111
f 106 111 110
f 107 109 118
f 108 113 119
f 108 119 120
f 108 120 109
f 109 120 118
f 112 117 119
f 112 119 113
f 114 121 122
f 114 122 123
f 114 123 117
f 114 116 121
f 115 118 124
f 115 124 123
f 115 123 122
f 115 122 121
f 115 121 116
f 117 123 124
f 117 124 125
f 117 125 119
f 118 120 125
f 118 125 124
f 119 125 120

