# https://github.com/mikedh/trimesh
v 0.60016901 0.25715585 0.08302036
v 0.60016901 0.26937692 0.08294115
v 0.58795295 0.23273255 0.07918461
v 0.60016901 0.24495363 0.08296378
v 0.61237410 0.34264682 0.08300904
v 0.61237410 0.35486790 0.08300904
v 0.60016901 0.28159800 0.08272617
v 0.61237410 0.36708898 0.08288458
v 0.58127182 0.23273255 0.07523572
v 0.58131004 0.22598079 0.07512258
v 0.58795295 0.22494350 0.07658219
v 0.60016901 0.23273255 0.08225095
v 0.60016901 0.29381908 0.08233015
v 0.58966693 0.26937692 0.07848309
v 0.61237410 0.30602129 0.08209254
v 0.61237410 0.31824239 0.08257908
v 0.61237410 0.33044461 0.08288458
v 0.62459012 0.40373335 0.08234146
v 0.62459012 0.41563381 0.08237541
v 0.61237410 0.37929119 0.08256776
v 0.58161569 0.24057818 0.07457946
v 0.58069325 0.23273255 0.06797158
v 0.59043655 0.28159800 0.07825680
v 0.59124443 0.29381908 0.07786077
v 0.60461762 0.41563381 0.07683113
v 0.58104258 0.22566018 0.06797158
v 0.59898995 0.22298212 0.06681746
v 0.60016901 0.22371762 0.07782683
v 0.60848767 0.22433999 0.07679718
v 0.60998876 0.23273255 0.07830206
v 0.61237410 0.29381908 0.08131181
v 0.60016901 0.30602129 0.08168520
v 0.61237410 0.41563381 0.08130050
v 0.62459012 0.39151227 0.08170783
v 0.63353650 0.40373335 0.07787209
v 0.63357472 0.41563381 0.07790603
v 0.58149563 0.24144573 0.06797158
v 0.60295279 0.41563381 0.06797158
v 0.58069325 0.23273255 -0.01752358
v 0.58104258 0.22566018 -0.01752358
v 0.59898995 0.22298212 -0.01636946
v 0.60958482 0.22326501 0.06797158
v 0.61371140 0.23273255 0.06797158
v 0.61878231 0.27324315 0.07470393
v 0.61933362 0.28159800 0.07569964
v 0.62014146 0.29381908 0.07684244
v 0.62095477 0.30602129 0.07762316
v 0.62176261 0.31824239 0.07810971
v 0.63272323 0.39151227 0.07723846
v 0.63636946 0.40373335 0.06797158
v 0.63638038 0.41563381 0.06823182
v 0.58149563 0.24144573 -0.01752358
v 0.60293641 0.41563381 0.05575152
v 0.58127182 0.23273255 -0.02478772
v 0.58131004 0.22598079 -0.02467458
v 0.58161569 0.24057818 -0.02413146
v 0.58795295 0.22494350 -0.02613419
v 0.60016901 0.22371762 -0.02737883
v 0.60958482 0.22326501 -0.01752358
v 0.61371140 0.23273255 -0.01752358
v 0.61533255 0.24495363 0.05575152
v 0.61812183 0.26600106 0.05575152
v 0.63070360 0.36095958 0.07408161
v 0.63110747 0.36708898 0.07488497
v 0.63191535 0.37929119 0.07626538
v 0.63645130 0.41563381 0.06797158
v 0.63313256 0.37929119 0.06797158
v 0.63636946 0.40373335 -0.01752358
v 0.60293641 0.41563381 -0.00563165
v 0.60295279 0.41563381 -0.01752358
v 0.59124443 0.29381908 -0.02741277
v 0.59043655 0.28159800 -0.02780880
v 0.58966693 0.26937692 -0.02803509
v 0.58795295 0.23273255 -0.02873661
v 0.60461762 0.41563381 -0.02638313
v 0.60299101 0.41563381 -0.01774988
v 0.60016901 0.23273255 -0.03180295
v 0.60848767 0.22433999 -0.02634918
v 0.61812183 0.26600106 -0.00530352
v 0.61533255 0.24495363 -0.00530352
v 0.60998876 0.23273255 -0.02785406
v 0.61878231 0.27324315 -0.02425593
v 0.63070360 0.36095958 -0.02363361
v 0.63645130 0.41563381 -0.01752358
v 0.63313256 0.37929119 -0.01752358
v 0.63110747 0.36708898 -0.02443697
v 0.63191535 0.37929119 -0.02581738
v 0.63272323 0.39151227 -0.02679046
v 0.63353650 0.40373335 -0.02742409
v 0.61237410 0.41563381 -0.03085250
v 0.60016901 0.30602129 -0.03123720
v 0.60016901 0.29381908 -0.03188215
v 0.60016901 0.25715585 -0.03257236
v 0.60016901 0.24495363 -0.03251578
v 0.60016901 0.28159800 -0.03227817
v 0.60016901 0.26937692 -0.03249315
v 0.61237410 0.30602129 -0.03164454
v 0.61237410 0.29381908 -0.03086381
v 0.62176261 0.31824239 -0.02766171
v 0.62095477 0.30602129 -0.02717516
v 0.62014146 0.29381908 -0.02639444
v 0.61933362 0.28159800 -0.02525164
v 0.63365117 0.41563381 -0.02719779
v 0.62459012 0.39151227 -0.03125983
v 0.62459012 0.40373335 -0.03189346
v 0.63357472 0.41563381 -0.02745803
v 0.62459012 0.41563381 -0.03192741
v 0.61237410 0.37929119 -0.03211976
v 0.61237410 0.35486790 -0.03256104
v 0.61237410 0.34264682 -0.03256104
v 0.61237410 0.33044461 -0.03243658
v 0.61237410 0.31824239 -0.03213108
v 0.61237410 0.36708898 -0.03243658
f 1 2 3
f 1 3 4
f 1 4 5
f 1 5 6
f 1 6 2
f 2 7 3
f 2 6 8
f 2 8 7
f 3 9 10
f 3 10 11
f 3 11 12
f 3 12 4
f 3 7 13
f 3 13 14
f 3 14 9
f 4 12 15
f 4 15 16
f 4 16 17
f 4 17 5
f 5 17 18
f 5 18 19
f 5 19 6
f 6 19 8
f 7 8 20
f 7 20 13
f 8 19 20
f 9 21 22
f 9 22 10
f 9 14 23
f 9 23 24
f 9 24 25
f 9 25 21
f 10 26 11
f 10 22 26
f 11 26 27
f 11 27 28
f 11 28 12
f 12 28 29
f 12 29 30
f 12 30 31
f 12 31 15
f 13 32 23
f 13 23 14
f 13 20 33
f 13 33 32
f 15 31 34
f 15 34 18
f 15 18 16
f 16 18 17
f 18 34 35
f 18 35 36
f 18 36 19
f 19 36 51
f 19 51 66
f 19 66 84
f 19 84 103
f 19 103 106
f 19 106 107
f 19 107 90
f 19 90 75
f 19 75 76
f 19 76 70
f 19 70 69
f 19 69 53
f 19 53 38
f 19 38 25
f 19 25 33
f 19 33 20
f 21 37 22
f 21 25 38
f 21 38 37
f 22 37 52
f 22 52 39
f 22 39 40
f 22 40 26
f 23 32 33
f 23 33 24
f 24 33 25
f 26 40 41
f 26 41 27
f 27 41 59
f 27 59 42
f 27 42 28
f 28 42 29
f 29 42 43
f 29 43 30
f 30 43 44
f 30 44 45
f 30 45 46
f 30 46 47
f 30 47 48
f 30 48 31
f 31 48 34
f 34 48 35
f 35 49 50
f 35 50 51
f 35 51 36
f 35 48 47
f 35 47 49
f 37 38 53
f 37 53 69
f 37 69 52
f 39 54 55
f 39 55 40
f 39 52 56
f 39 56 54
f 40 57 41
f 40 55 57
f 41 58 59
f 41 57 58
f 42 59 60
f 42 60 43
f 43 60 80
f 43 80 61
f 43 61 62
f 43 62 63
f 43 63 44
f 44 63 64
f 44 64 45
f 45 64 65
f 45 65 46
f 46 65 49
f 46 49 47
f 49 65 50
f 50 66 51
f 50 65 64
f 50 64 63
f 50 63 67
f 50 67 85
f 50 85 68
f 50 68 84
f 50 84 66
f 52 69 70
f 52 70 56
f 54 71 72
f 54 72 73
f 54 73 74
f 54 74 55
f 54 56 75
f 54 75 71
f 55 74 57
f 56 70 76
f 56 76 75
f 57 74 77
f 57 77 58
f 58 77 78
f 58 78 59
f 59 78 60
f 60 79 80
f 60 78 81
f 60 81 82
f 60 82 83
f 60 83 79
f 61 80 79
f 61 79 62
f 62 79 85
f 62 85 67
f 62 67 63
f 68 85 83
f 68 83 86
f 68 86 87
f 68 87 88
f 68 88 89
f 68 89 84
f 71 75 90
f 71 90 72
f 72 90 91
f 72 91 92
f 72 92 73
f 73 92 74
f 74 93 94
f 74 94 77
f 74 92 95
f 74 95 96
f 74 96 93
f 77 94 97
f 77 97 98
f 77 98 81
f 77 81 78
f 79 83 85
f 81 98 99
f 81 99 100
f 81 100 101
f 81 101 102
f 81 102 82
f 82 102 86
f 82 86 83
f 84 89 103
f 86 102 87
f 87 102 101
f 87 101 88
f 88 101 100
f 88 100 89
f 89 104 105
f 89 105 106
f 89 106 103
f 89 100 99
f 89 99 104
f 90 107 108
f 90 108 92
f 90 92 91
f 92 108 95
f 93 109 110
f 93 110 94
f 93 96 109
f 94 110 111
f 94 111 112
f 94 112 97
f 95 108 113
f 95 113 96
f 96 113 109
f 97 112 105
f 97 105 104
f 97 104 98
f 98 104 99
f 105 107 106
f 105 112 111
f 105 111 110
f 105 110 107
f 107 110 109
f 107 109 113
f 107 113 108

