# https://github.com/mikedh/trimesh
v -0.50190597 0.22777665 -0.02284788
v -0.50190597 0.22205302 -0.02284788
v -0.50190597 0.23098427 -0.03152692
v -0.51648184 0.22769925 0.01972544
v -0.51648184 0.22209947 0.01972544
v -0.50190597 0.20595301 -0.05847618
v -0.50190597 0.23124491 -0.03267389
v -0.52499076 0.23123458 0.01972544
v -0.57257164 0.20609495 0.01972544
v -0.57257164 0.20595301 -0.03431758
v -0.50190597 0.20595301 -0.07236624
v -0.50190597 0.23166553 -0.04365589
v -0.57257164 0.23228744 0.01972544
v -0.50190597 0.23170683 -0.04476673
v -0.57257164 0.20595301 -0.07253784
v -0.50190597 0.20604075 -0.07233915
v -0.57257164 0.23231583 -0.04476673
v -0.50190597 0.23073397 -0.05685055
v -0.57257164 0.21813317 -0.06813962
v -0.50190597 0.21813317 -0.06808543
v -0.50190597 0.20714522 -0.07195080
v -0.57257164 0.23223841 -0.04553439
v -0.57257164 0.23082169 -0.05685055
v -0.50190597 0.22710055 -0.06380461
v -0.57257164 0.22673670 -0.06450002
v -0.50190597 0.22673670 -0.06450002
v -0.50190597 0.21891766 -0.06776030
v -0.57257164 0.23056623 -0.05733824
f 1 2 6
f 1 6 11
f 1 11 16
f 1 16 21
f 1 21 20
f 1 20 27
f 1 27 26
f 1 26 24
f 1 24 18
f 1 18 14
f 1 14 12
f 1 12 7
f 1 7 3
f 1 3 4
f 1 4 5
f 1 5 2
f 2 5 6
f 3 7 4
f 4 8 13
f 4 13 9
f 4 9 5
f 4 7 8
f 5 9 6
f 6 10 15
f 6 15 11
f 6 9 10
f 7 12 8
f 8 12 14
f 8 14 13
f 9 13 17
f 9 17 22
f 9 22 23
f 9 23 28
f 9 28 25
f 9 25 19
f 9 19 15
f 9 15 10
f 11 15 16
f 13 14 17
f 14 18 17
f 15 19 20
f 15 20 21
f 15 21 16
f 17 18 22
f 18 23 22
f 18 24 23
f 19 25 26
f 19 26 27
f 19 27 20
f 23 24 26
f 23 26 28
f 25 28 26

