# https://github.com/mikedh/trimesh
v -0.19622259 0.22624946 0.05678616
v -0.19622259 0.22915857 0.06217780
v -0.19622259 0.22355606 0.05746153
v -0.50088596 0.22354579 0.05727580
v -0.50088596 0.22535337 0.05727580
v -0.19622259 0.22989546 0.06405193
v -0.50088596 0.22888383 0.06405193
v -0.19622259 0.20613489 0.10096042
v -0.50079649 0.20613489 0.10096042
v -0.50088596 0.20619393 0.10093229
v -0.19622259 0.23162088 0.07280911
v -0.50088596 0.23124602 0.07614652
v -0.19622259 0.20613489 0.11427630
v -0.50088596 0.20613489 0.10523771
v -0.19622259 0.23199063 0.07614652
v -0.50088596 0.23167994 0.08822987
v -0.19622259 0.23229874 0.08470110
v -0.50088596 0.20613489 0.11352215
v -0.19622259 0.20882060 0.11400053
v -0.50088596 0.23155413 0.10031883
v -0.19622259 0.23236035 0.08822987
v -0.50088596 0.21804856 0.11203073
v -0.19622259 0.21813327 0.11284679
v -0.50088596 0.22758463 0.10860326
v -0.19622259 0.22816490 0.10939682
v -0.19622259 0.23223456 0.10031883
v -0.50088596 0.21813327 0.11201947
v -0.19622259 0.22067521 0.11211514
f 1 2 6
f 1 6 11
f 1 11 15
f 1 15 17
f 1 17 21
f 1 21 26
f 1 26 25
f 1 25 28
f 1 28 23
f 1 23 19
f 1 19 13
f 1 13 8
f 1 8 3
f 1 3 4
f 1 4 5
f 1 5 2
f 2 5 7
f 2 7 6
f 3 8 4
f 4 9 10
f 4 10 14
f 4 14 18
f 4 18 22
f 4 22 27
f 4 27 24
f 4 24 20
f 4 20 16
f 4 16 12
f 4 12 7
f 4 7 5
f 4 8 9
f 6 7 11
f 7 12 11
f 8 13 18
f 8 18 14
f 8 14 9
f 9 14 10
f 11 12 15
f 12 16 17
f 12 17 15
f 13 19 18
f 16 20 26
f 16 26 21
f 16 21 17
f 18 19 23
f 18 23 22
f 20 24 25
f 20 25 26
f 22 23 27
f 23 28 27
f 24 27 28
f 24 28 25

