# https://github.com/mikedh/trimesh
v -0.54847142 -0.38377340 -0.01748894
v -0.57243979 -0.36320613 -0.01748894
v -0.54847142 -0.39444698 -0.01748894
v -0.54847142 -0.36320613 -0.27432470
v -0.58604404 -0.36320613 -0.01748894
v -0.57334821 -0.39444698 -0.01748894
v -0.54847142 -0.39444698 -0.27448691
v -0.54847142 -0.36320613 -0.28751795
v -0.58604404 -0.37432622 -0.01748894
v -0.58604404 -0.36320613 -0.26337539
v -0.58083989 -0.39345608 -0.01748894
v -0.57334821 -0.39444698 -0.27448691
v -0.54847142 -0.39345608 -0.28416556
v -0.54847142 -0.37749158 -0.29365497
v -0.57334821 -0.36320613 -0.28795052
v -0.58464644 -0.38331771 -0.01748894
v -0.58604404 -0.37432622 -0.27448691
v -0.58583808 -0.36320613 -0.27448691
v -0.58169318 -0.39165165 -0.01748894
v -0.58083989 -0.39345608 -0.27448691
v -0.58035812 -0.39312270 -0.28294899
v -0.57334821 -0.39345608 -0.28416556
v -0.54847142 -0.39005521 -0.29022148
v -0.54847142 -0.38400888 -0.29365497
v -0.57334821 -0.37749158 -0.29365497
v -0.58035077 -0.37845192 -0.29333055
v -0.58153138 -0.36320613 -0.28486849
v -0.58416466 -0.38641579 -0.01748894
v -0.58416466 -0.38641579 -0.27448691
v -0.58262732 -0.37438431 -0.28719352
v -0.58187709 -0.38666353 -0.28681504
v -0.58556595 -0.36320613 -0.27548723
v -0.58035077 -0.38279778 -0.29333055
v -0.57334821 -0.39005521 -0.29022148
v -0.54847142 -0.38435754 -0.29346574
v -0.57334821 -0.38400888 -0.29365497
v -0.58250595 -0.36320613 -0.28438186
f 1 2 5
f 1 5 9
f 1 9 16
f 1 16 28
f 1 28 19
f 1 19 11
f 1 11 6
f 1 6 3
f 1 3 7
f 1 7 13
f 1 13 23
f 1 23 35
f 1 35 24
f 1 24 14
f 1 14 8
f 1 8 4
f 1 4 2
f 2 4 8
f 2 8 15
f 2 15 27
f 2 27 37
f 2 37 32
f 2 32 18
f 2 18 10
f 2 10 5
f 3 6 12
f 3 12 7
f 5 10 17
f 5 17 9
f 6 11 20
f 6 20 12
f 7 12 22
f 7 22 13
f 8 14 15
f 9 17 16
f 10 18 17
f 11 19 20
f 12 20 21
f 12 21 22
f 13 22 34
f 13 34 23
f 14 24 36
f 14 36 25
f 14 25 15
f 15 25 26
f 15 26 27
f 16 17 29
f 16 29 28
f 17 18 30
f 17 30 31
f 17 31 29
f 18 32 30
f 19 28 29
f 19 29 20
f 20 29 21
f 21 29 31
f 21 31 33
f 21 33 34
f 21 34 22
f 23 34 35
f 24 35 36
f 25 36 33
f 25 33 26
f 26 30 37
f 26 37 27
f 26 33 30
f 30 32 37
f 30 33 31
f 33 36 34
f 34 36 35

