# https://github.com/mikedh/trimesh
v 0.02525158 -0.13979073 0.18809339
v 0.02525158 -0.14891469 0.19138250
v 0.02525158 -0.13979073 0.17581048
v -0.56113724 -0.13979073 0.18837051
v 0.02525158 -0.20714256 0.20395457
v -0.54914085 -0.14891469 0.19138250
v -0.56113724 -0.16866513 0.19564749
v 0.02525158 -0.14225136 0.17633458
v -0.56113724 -0.20598846 0.18801509
v -0.56113724 -0.14469023 0.17518398
v -0.56113724 -0.14460313 0.17516593
v -0.56113724 -0.13985605 0.17445509
v -0.56113724 -0.13979073 0.17490086
v -0.56113724 -0.14884937 0.19135840
v 0.02525158 -0.33803550 0.23221310
v -0.54914085 -0.20714256 0.20395457
v -0.56113724 -0.15662325 0.19304512
v -0.56113724 -0.33803550 0.23221310
v 0.02525158 -0.36222817 0.22370722
v -0.56113724 -0.31392996 0.21165925
v 0.02525158 -0.34398025 0.23308657
v -0.56113724 -0.35001207 0.23411066
v -0.56113724 -0.36222817 0.23599616
v 0.02525158 -0.36222817 0.23555039
v -0.56113724 -0.36222817 0.22246027
v 0.02525158 -0.35014273 0.23399018
f 1 2 5
f 1 5 15
f 1 15 21
f 1 21 26
f 1 26 24
f 1 24 19
f 1 19 8
f 1 8 3
f 1 3 13
f 1 13 4
f 1 4 2
f 2 4 6
f 2 6 7
f 2 7 5
f 3 8 9
f 3 9 10
f 3 10 11
f 3 11 12
f 3 12 13
f 4 13 12
f 4 12 11
f 4 11 10
f 4 10 9
f 4 9 20
f 4 20 25
f 4 25 23
f 4 23 22
f 4 22 18
f 4 18 7
f 4 7 17
f 4 17 14
f 4 14 6
f 5 7 16
f 5 16 18
f 5 18 15
f 6 14 17
f 6 17 7
f 7 18 16
f 8 19 9
f 9 19 20
f 15 18 22
f 15 22 23
f 15 23 21
f 19 24 23
f 19 23 25
f 19 25 20
f 21 23 26
f 23 24 26

