# https://github.com/mikedh/trimesh
v -0.50190593 -0.13979073 -0.20593916
v -0.19874530 -0.13979073 -0.20593916
v -0.50190593 -0.13979073 -0.19292925
v -0.50190593 -0.12039104 -0.19990171
v -0.19874530 -0.13979073 -0.19292925
v -0.19874530 -0.12039104 -0.19990171
v -0.50190593 0.12763903 -0.08724708
v -0.50190593 -0.11961381 -0.19962120
v -0.19874530 -0.12026668 -0.19986164
v -0.19874530 0.12763903 -0.08724708
v -0.50190593 0.13311073 -0.08516336
v -0.50190593 -0.11187258 -0.19680284
v -0.19874530 0.01260879 -0.15148185
v -0.19874530 0.13357708 -0.08498971
v -0.50190593 0.16976496 -0.07179280
v -0.50190593 0.10929636 -0.11612535
v -0.19874530 0.10929636 -0.11621885
v -0.19874530 0.16976496 -0.07179280
v -0.50190593 0.17781708 -0.06948200
v -0.50190593 0.11784589 -0.11259905
v -0.19874530 0.11784589 -0.11266583
v -0.19874530 0.17781708 -0.06948200
v -0.50190593 0.17781708 -0.08238506
v -0.19874530 0.17781708 -0.08238506
f 1 2 5
f 1 5 3
f 1 3 7
f 1 7 11
f 1 11 15
f 1 15 19
f 1 19 23
f 1 23 20
f 1 20 16
f 1 16 12
f 1 12 8
f 1 8 4
f 1 4 6
f 1 6 2
f 2 6 9
f 2 9 13
f 2 13 17
f 2 17 21
f 2 21 24
f 2 24 22
f 2 22 18
f 2 18 14
f 2 14 10
f 2 10 5
f 3 5 10
f 3 10 7
f 4 8 9
f 4 9 6
f 7 10 11
f 8 12 9
f 9 12 13
f 10 14 11
f 11 14 15
f 12 16 17
f 12 17 13
f 14 18 15
f 15 18 22
f 15 22 19
f 16 20 17
f 17 20 21
f 19 22 24
f 19 24 23
f 20 23 21
f 21 23 24

