# https://github.com/mikedh/trimesh
v -0.19622259 0.20613233 0.10095549
v -0.15203804 0.20613233 0.10095549
v -0.19622259 0.20613233 0.11426638
v -0.19622259 0.22356024 0.05745951
v -0.18064381 0.23583722 0.01972544
v -0.17853752 0.23564017 0.01972544
v -0.17434657 0.23525065 0.01972544
v -0.15203804 0.20613233 0.11414725
v -0.17221432 0.23539271 0.01972544
v -0.16795417 0.23567684 0.01972544
v -0.15203804 0.22356024 0.05747034
v -0.18344211 0.20613233 0.12532450
v -0.19622259 0.20882235 0.11399562
v -0.19622259 0.22625028 0.05678800
v -0.18089466 0.24231254 0.01972544
v -0.15203804 0.21813436 0.11271760
v -0.16522940 0.20613233 0.12562776
v -0.16771629 0.24009455 0.01972544
v -0.15203804 0.22455926 0.05691797
v -0.17673399 0.20613233 0.13021996
v -0.18055731 0.24957152 0.11875028
v -0.19622259 0.21813436 0.11284756
v -0.18064381 0.25030474 0.01972544
v -0.18081248 0.24497966 0.01972544
v -0.19622259 0.22916028 0.06218168
v -0.16807093 0.25000227 0.11885858
v -0.15203804 0.22806501 0.10926261
v -0.17434657 0.20898733 0.12989505
v -0.17434657 0.20613233 0.13037159
v -0.16759950 0.24231254 0.01972544
v -0.15203804 0.22607612 0.05691797
v -0.17434657 0.25279770 0.11241434
v -0.18065680 0.25024060 0.11241434
v -0.19622259 0.23223524 0.10031647
v -0.19622259 0.22817041 0.10939258
v -0.19622259 0.22067773 0.11211108
v -0.17434657 0.25050181 0.11897773
v -0.17644853 0.25206449 0.01972544
v -0.19622259 0.22989349 0.06405539
v -0.19622259 0.23162117 0.07281740
v -0.19622259 0.23199236 0.07613159
v -0.19622259 0.23229940 0.08469865
v -0.19622259 0.23235898 0.08822944
v -0.18066977 0.25030474 0.06405539
v -0.15203804 0.23135537 0.10233098
v -0.15203804 0.23210693 0.10031647
v -0.16793255 0.25091425 0.11241434
v -0.16783306 0.24809590 0.01972544
v -0.16795417 0.25099673 0.01972544
v -0.15203804 0.22970561 0.06405539
v -0.17434657 0.25294436 0.10031647
v -0.18067409 0.25030474 0.10031647
v -0.17434657 0.25294436 0.01972544
v -0.18067409 0.25030474 0.07613159
v -0.15203804 0.23220775 0.09104542
v -0.15203804 0.23223524 0.08822944
v -0.16791091 0.25099673 0.10031647
v -0.15203804 0.23185489 0.07613159
v -0.16791523 0.25099673 0.06405539
v -0.16791091 0.25099673 0.07613159
f 1 2 8
f 1 8 17
f 1 17 29
f 1 29 20
f 1 20 12
f 1 12 3
f 1 3 13
f 1 13 22
f 1 22 36
f 1 36 35
f 1 35 34
f 1 34 43
f 1 43 42
f 1 42 41
f 1 41 40
f 1 40 39
f 1 39 25
f 1 25 14
f 1 14 4
f 1 4 5
f 1 5 6
f 1 6 7
f 1 7 2
f 2 7 9
f 2 9 10
f 2 10 11
f 2 11 19
f 2 19 31
f 2 31 50
f 2 50 58
f 2 58 56
f 2 56 55
f 2 55 46
f 2 46 45
f 2 45 27
f 2 27 16
f 2 16 8
f 3 12 13
f 4 14 5
f 5 14 15
f 5 15 24
f 5 24 23
f 5 23 38
f 5 38 53
f 5 53 49
f 5 49 48
f 5 48 30
f 5 30 18
f 5 18 10
f 5 10 9
f 5 9 7
f 5 7 6
f 8 16 17
f 10 18 19
f 10 19 11
f 12 20 21
f 12 21 22
f 12 22 13
f 14 23 24
f 14 24 15
f 14 25 23
f 16 26 17
f 16 27 26
f 17 26 28
f 17 28 29
f 18 30 19
f 19 30 31
f 20 29 28
f 20 28 21
f 21 32 33
f 21 33 34
f 21 34 35
f 21 35 36
f 21 36 22
f 21 28 37
f 21 37 32
f 23 25 39
f 23 39 40
f 23 40 41
f 23 41 42
f 23 42 43
f 23 43 44
f 23 44 38
f 26 37 28
f 26 27 45
f 26 45 46
f 26 46 47
f 26 47 32
f 26 32 37
f 30 48 31
f 31 48 49
f 31 49 50
f 32 51 33
f 32 47 51
f 33 51 52
f 33 52 43
f 33 43 34
f 38 44 53
f 43 52 54
f 43 54 44
f 44 54 53
f 46 55 47
f 47 55 56
f 47 56 57
f 47 57 51
f 49 58 50
f 49 53 59
f 49 59 56
f 49 56 58
f 51 53 54
f 51 54 52
f 51 57 60
f 51 60 53
f 53 60 59
f 56 59 60
f 56 60 57

