# https://github.com/mikedh/trimesh
v -0.56983765 -0.39444687 -0.01748894
v -0.56983765 -0.39444687 0.22122942
v -0.56983765 -0.37253469 -0.01748894
v 0.02525158 -0.39444687 -0.01748894
v -0.56983765 -0.39431131 0.22472027
v 0.02525158 -0.39444687 0.22122942
v -0.56983765 -0.36230038 0.21819390
v 0.02525158 -0.36224995 0.22370844
v 0.02525158 -0.38377444 -0.01748894
v -0.56983765 -0.39397724 0.23332090
v 0.02525158 -0.39397724 0.23332090
v -0.56983765 -0.36224995 0.23253673
v -0.56121651 -0.36224995 0.22244364
v 0.02525158 -0.36224995 0.23554696
v -0.56983765 -0.39298437 0.23992317
v 0.02525158 -0.39347291 0.23668527
v -0.56983765 -0.36224995 0.23645761
v 0.02525158 -0.37578747 0.24035319
v -0.56983765 -0.39107432 0.24022672
v 0.02525158 -0.39298437 0.23992317
v -0.56983765 -0.37578747 0.24035319
v 0.02525158 -0.38641576 0.24093501
v -0.56983765 -0.38641576 0.24093501
f 1 2 5
f 1 5 10
f 1 10 15
f 1 15 19
f 1 19 23
f 1 23 21
f 1 21 17
f 1 17 12
f 1 12 7
f 1 7 3
f 1 3 9
f 1 9 4
f 1 4 6
f 1 6 2
f 2 6 5
f 3 7 8
f 3 8 9
f 4 9 8
f 4 8 14
f 4 14 18
f 4 18 22
f 4 22 20
f 4 20 16
f 4 16 11
f 4 11 6
f 5 6 11
f 5 11 10
f 7 12 13
f 7 13 8
f 8 13 12
f 8 12 17
f 8 17 14
f 10 11 16
f 10 16 15
f 14 17 18
f 15 16 20
f 15 20 19
f 17 21 18
f 18 21 23
f 18 23 22
f 19 20 22
f 19 22 23

