# https://github.com/mikedh/trimesh
v -0.56619993 0.58704844 -0.00530610
v -0.56619993 0.58704844 0.06073883
v -0.56574662 0.58954266 -0.00530610
v -0.56616108 0.58704844 -0.01752492
v -0.56616108 0.58704844 0.06797292
v -0.56568186 0.58954266 0.06797292
v -0.56574662 0.58954266 0.05575410
v -0.56303976 0.59919491 -0.00530610
v -0.56568186 0.58954266 -0.01752492
v -0.56164100 0.58704844 -0.02659013
v -0.56604452 0.58704844 0.07039181
v -0.56297500 0.59919491 0.06797292
v -0.56303976 0.59919491 0.05575410
v -0.55771668 0.61140972 -0.01752492
v -0.56297500 0.59919491 -0.01752492
v -0.55854556 0.59919491 -0.02783348
v -0.56113586 0.58704844 -0.02759611
v -0.56113586 0.58704844 0.07804411
v -0.55854556 0.59919491 0.07828148
v -0.55594231 0.61140972 0.07620168
v -0.55427158 0.61771359 0.07429143
v -0.55771668 0.61140972 0.06797292
v -0.55427158 0.61771359 -0.02384343
v -0.54498533 0.63544642 -0.01752492
v -0.55594231 0.61140972 -0.02575368
v -0.54804189 0.62251410 -0.02704226
v -0.53400243 0.64805415 -0.02761872
v -0.54805485 0.61140972 -0.03022977
v -0.54805485 0.59919491 -0.03229827
v -0.54813253 0.58704844 -0.03247912
v -0.56090277 0.58704844 0.07814585
v -0.54805485 0.59919491 0.08274627
v -0.54805485 0.61140972 0.08067777
v -0.53400243 0.64805415 0.07806672
v -0.54804189 0.62251410 0.07749026
v -0.54397511 0.63353305 0.07657469
v -0.53151574 0.65750141 0.07641645
v -0.54498533 0.63544642 0.06797292
v -0.51905639 0.68145269 0.07622429
v -0.50659702 0.70542105 0.07599823
v -0.49415060 0.72940649 0.07573825
v -0.48167830 0.75337485 0.07542176
v -0.48207980 0.75412653 0.06797292
v -0.48652216 0.74575554 0.06797292
v -0.49143078 0.73649621 0.06797292
v -0.51905639 0.68145269 -0.02577629
v -0.53151574 0.65750141 -0.02596845
v -0.49143078 0.73649621 -0.01752492
v -0.48652216 0.74575554 -0.01752492
v -0.48207980 0.75412653 -0.01752492
v -0.48167830 0.75337485 -0.02497376
v -0.49415060 0.72940649 -0.02529025
v -0.50659702 0.70542105 -0.02555023
v -0.54397511 0.63353305 -0.02612669
v -0.52141356 0.67248377 -0.02748308
v -0.53584156 0.62362453 -0.03220785
v -0.47477514 0.74575554 -0.03125837
v -0.48698842 0.72132593 -0.03154095
v -0.49921467 0.69689631 -0.03177832
v -0.51141499 0.67248377 -0.03194787
v -0.52362828 0.64805415 -0.03208351
v -0.54805485 0.58704844 -0.03250173
v -0.46256185 0.75797035 -0.03241130
v -0.47477514 0.73354073 -0.03246782
v -0.48698842 0.70911111 -0.03247912
v -0.54805485 0.58704844 0.08294973
v -0.53584156 0.62362453 0.08265585
v -0.48698842 0.70911111 0.08292712
v -0.47477514 0.73354073 0.08291582
v -0.46256185 0.75797035 0.08285930
v -0.52362828 0.64805415 0.08253151
v -0.51141499 0.67248377 0.08239587
v -0.49921467 0.69689631 0.08222632
v -0.48698842 0.72132593 0.08198895
v -0.47477514 0.74575554 0.08170637
v -0.52141356 0.67248377 0.07793108
v -0.50885058 0.69689631 0.07775023
v -0.49628759 0.72132593 0.07752417
v -0.48369873 0.74575554 0.07724159
v -0.47517664 0.75764576 0.07833800
v -0.47363540 0.76157500 0.07773893
v -0.47741724 0.76157500 0.06964580
v -0.47788350 0.76157500 0.06797292
v -0.47881599 0.76022539 0.06797292
v -0.48369873 0.74575554 -0.02679359
v -0.49628759 0.72132593 -0.02707617
v -0.47881599 0.76022539 -0.01752492
v -0.47788350 0.76157500 -0.01752492
v -0.47363540 0.76157500 -0.02729093
v -0.47517664 0.75764576 -0.02789000
v -0.50885058 0.69689631 -0.02730223
v -0.46276906 0.76157500 -0.03139401
v -0.53689062 0.58704844 -0.02804824
v -0.46256185 0.74575554 -0.03184614
v -0.45034856 0.76157500 -0.03104361
v -0.45034856 0.75797035 -0.03046714
v -0.43902893 0.76157500 -0.02681619
v -0.54795124 0.58704844 0.08292712
v -0.44674805 0.76157500 0.08094905
v -0.46256185 0.74575554 0.08229414
v -0.45896134 0.76157500 0.08285930
v -0.46276906 0.76157500 0.08184201
v -0.47166677 0.76157500 0.07858667
v -0.51735975 0.61721816 -0.02394517
v -0.53176183 0.58704844 -0.01752492
v -0.43538954 0.76157500 -0.02480421
v -0.53689062 0.58704844 0.07849624
v -0.43676241 0.76157500 0.07621299
v -0.53169706 0.58704844 -0.00547564
v -0.43392602 0.76157500 -0.01752492
v -0.53681293 0.58704844 0.07834930
v -0.51735975 0.61721816 0.07439317
v -0.43538954 0.76157500 0.07525221
v -0.53169706 0.58704844 0.05575410
v -0.43388718 0.76157500 -0.00530610
v -0.53176183 0.58704844 0.06797292
v -0.43405554 0.76157500 0.07201948
v -0.43388718 0.76157500 0.06357595
v -0.43392602 0.76157500 0.06797292
f 1 2 7
f 1 7 3
f 1 3 4
f 1 4 10
f 1 10 17
f 1 17 30
f 1 30 62
f 1 62 93
f 1 93 105
f 1 105 109
f 1 109 114
f 1 114 116
f 1 116 111
f 1 111 107
f 1 107 98
f 1 98 66
f 1 66 31
f 1 31 18
f 1 18 11
f 1 11 5
f 1 5 2
f 2 5 6
f 2 6 7
f 3 7 13
f 3 13 8
f 3 8 15
f 3 15 9
f 3 9 4
f 4 9 10
f 5 11 6
f 6 12 13
f 6 13 7
f 6 11 12
f 8 13 22
f 8 22 14
f 8 14 15
f 9 15 16
f 9 16 10
f 10 16 17
f 11 18 19
f 11 19 20
f 11 20 12
f 12 20 21
f 12 21 22
f 12 22 13
f 14 23 15
f 14 22 38
f 14 38 24
f 14 24 23
f 15 23 25
f 15 25 16
f 16 25 26
f 16 26 27
f 16 27 28
f 16 28 29
f 16 29 17
f 17 29 30
f 18 31 19
f 19 32 33
f 19 33 34
f 19 34 35
f 19 35 20
f 19 31 32
f 20 35 34
f 20 34 36
f 20 36 37
f 20 37 21
f 21 38 22
f 21 37 39
f 21 39 40
f 21 40 41
f 21 41 42
f 21 42 43
f 21 43 44
f 21 44 45
f 21 45 38
f 23 46 47
f 23 47 25
f 23 24 48
f 23 48 49
f 23 49 50
f 23 50 51
f 23 51 52
f 23 52 53
f 23 53 46
f 24 38 45
f 24 45 48
f 25 47 54
f 25 54 27
f 25 27 26
f 27 54 55
f 27 55 28
f 28 56 29
f 28 55 57
f 28 57 58
f 28 58 59
f 28 59 60
f 28 60 61
f 28 61 56
f 29 62 30
f 29 56 63
f 29 63 64
f 29 64 65
f 29 65 62
f 31 66 32
f 32 67 33
f 32 66 68
f 32 68 69
f 32 69 70
f 32 70 67
f 33 67 71
f 33 71 72
f 33 72 73
f 33 73 74
f 33 74 75
f 33 75 76
f 33 76 34
f 34 76 36
f 36 76 77
f 36 77 78
f 36 78 37
f 37 78 79
f 37 79 39
f 39 79 40
f 40 79 41
f 41 79 42
f 42 79 80
f 42 80 81
f 42 81 82
f 42 82 83
f 42 83 84
f 42 84 43
f 43 50 49
f 43 49 44
f 43 84 87
f 43 87 50
f 44 49 48
f 44 48 45
f 46 53 85
f 46 85 47
f 47 85 86
f 47 86 54
f 50 87 51
f 51 87 88
f 51 88 89
f 51 89 90
f 51 90 85
f 51 85 52
f 52 85 53
f 54 86 91
f 54 91 55
f 55 91 57
f 56 61 63
f 57 90 92
f 57 92 63
f 57 63 58
f 57 91 86
f 57 86 90
f 58 63 59
f 59 63 60
f 60 63 61
f 62 65 94
f 62 94 95
f 62 95 96
f 62 96 97
f 62 97 93
f 63 92 95
f 63 95 94
f 63 94 64
f 64 94 65
f 66 98 99
f 66 99 100
f 66 100 101
f 66 101 68
f 67 70 71
f 68 101 69
f 69 101 70
f 70 101 102
f 70 102 75
f 70 75 74
f 70 74 73
f 70 73 72
f 70 72 71
f 75 102 103
f 75 103 80
f 75 80 78
f 75 78 77
f 75 77 76
f 78 80 79
f 80 103 81
f 81 103 102
f 81 102 101
f 81 101 99
f 81 99 108
f 81 108 113
f 81 113 117
f 81 117 119
f 81 119 118
f 81 118 115
f 81 115 110
f 81 110 106
f 81 106 97
f 81 97 95
f 81 95 92
f 81 92 89
f 81 89 88
f 81 88 83
f 81 83 82
f 83 88 87
f 83 87 84
f 85 90 86
f 89 92 90
f 93 104 105
f 93 97 106
f 93 106 104
f 95 97 96
f 98 107 99
f 99 101 100
f 99 107 108
f 104 106 105
f 105 106 110
f 105 110 109
f 107 111 112
f 107 112 113
f 107 113 108
f 109 110 115
f 109 115 118
f 109 118 114
f 111 116 112
f 112 116 113
f 113 116 117
f 114 118 116
f 116 118 119
f 116 119 117

