# https://github.com/mikedh/trimesh
v 0.56294795 0.23097752 -0.05340059
v 0.56294795 0.21486189 -0.05340059
v 0.56294795 0.23072344 -0.05686500
v -0.00040734 0.23097752 -0.05340059
v 0.56294795 0.12764151 -0.08725325
v -0.00040734 0.21486189 -0.05340059
v 0.56294795 0.22673082 -0.06451059
v -0.00040734 0.23072344 -0.05686500
v 0.56294795 -0.13979073 -0.19293269
v -0.00040734 0.12764151 -0.08725325
v 0.56294795 0.11784146 -0.11259421
v -0.00040734 0.22673082 -0.06451059
v 0.56294795 -0.13979073 -0.20593916
v -0.00040734 -0.13979073 -0.19293269
v 0.56294795 0.10931180 -0.11611836
v -0.00040734 0.11784146 -0.11259421
v 0.56294795 -0.13964555 -0.20589437
v -0.00040734 -0.13979073 -0.20593916
v 0.56294795 0.08426726 -0.12525723
v -0.00040734 0.10931180 -0.11611836
v 0.56294795 -0.12040844 -0.19990630
v -0.00040734 -0.12040844 -0.19990630
v 0.56294795 -0.08411198 -0.18667585
v -0.00040734 0.08426726 -0.12525723
v 0.56294795 -0.11187876 -0.19680030
v -0.00040734 -0.11187876 -0.19680030
v -0.00040734 -0.08411198 -0.18667585
f 1 2 5
f 1 5 9
f 1 9 13
f 1 13 17
f 1 17 21
f 1 21 25
f 1 25 23
f 1 23 19
f 1 19 15
f 1 15 11
f 1 11 7
f 1 7 3
f 1 3 8
f 1 8 4
f 1 4 6
f 1 6 2
f 2 6 10
f 2 10 5
f 3 7 12
f 3 12 8
f 4 8 12
f 4 12 16
f 4 16 20
f 4 20 24
f 4 24 27
f 4 27 26
f 4 26 22
f 4 22 18
f 4 18 14
f 4 14 10
f 4 10 6
f 5 10 14
f 5 14 9
f 7 11 16
f 7 16 12
f 9 14 18
f 9 18 13
f 11 15 20
f 11 20 16
f 13 18 17
f 15 19 24
f 15 24 20
f 17 18 22
f 17 22 21
f 19 23 27
f 19 27 24
f 21 22 26
f 21 26 25
f 23 25 26
f 23 26 27

