# https://github.com/mikedh/trimesh
v -0.15005746 0.17781708 -0.06948200
v -0.15005746 0.17781708 -0.06978922
v -0.19871564 0.17781708 -0.06948200
v -0.15005746 0.16976496 -0.07179280
v -0.15005746 0.17775489 -0.08239842
v -0.15016700 0.17781708 -0.08238506
v -0.19871564 0.17781708 -0.08238506
v -0.19871564 0.16976496 -0.07179280
v -0.15005746 0.16239680 -0.07447760
v -0.16795183 0.17781708 -0.12431331
v -0.15005746 0.11778374 -0.11270591
v -0.18064505 0.17781708 -0.12405952
v -0.19871564 0.11784589 -0.11266583
v -0.19871564 0.13357708 -0.08498971
v -0.15005746 0.13376359 -0.08492293
v -0.16817091 0.14106958 -0.13564021
v -0.17434844 0.17781708 -0.12500789
v -0.15005746 0.10920311 -0.11625892
v -0.15005746 0.08433168 -0.12532846
v -0.15005746 0.01260879 -0.15148185
v -0.15005746 -0.11187258 -0.19680284
v -0.15005746 -0.12039104 -0.19990171
v -0.15005746 -0.12051539 -0.19994178
v -0.15005746 -0.13979073 -0.20593916
v -0.19871564 0.10929636 -0.11621885
v -0.17853983 0.17781708 -0.12447360
v -0.18045930 0.14035452 -0.13554672
v -0.19871564 -0.13979073 -0.20593916
v -0.19871564 -0.12039104 -0.19990171
v -0.19871564 -0.12026668 -0.19986164
v -0.19871564 0.01260879 -0.15148185
v -0.19871564 0.12763903 -0.08724708
v -0.18643679 0.12763903 -0.08722036
v -0.17434844 0.12763903 -0.08720701
v -0.16226010 0.12763903 -0.08722036
v -0.15005746 0.12763903 -0.08724708
v -0.17434844 0.14131830 -0.13566693
v -0.15005746 -0.13979073 -0.19292925
v -0.19871564 -0.13979073 -0.19292925
v -0.17434844 0.00595568 -0.13519943
f 1 2 6
f 1 6 10
f 1 10 17
f 1 17 26
f 1 26 12
f 1 12 7
f 1 7 3
f 1 3 8
f 1 8 4
f 1 4 9
f 1 9 15
f 1 15 36
f 1 36 38
f 1 38 24
f 1 24 23
f 1 23 22
f 1 22 21
f 1 21 20
f 1 20 19
f 1 19 18
f 1 18 11
f 1 11 5
f 1 5 2
f 2 5 6
f 3 7 13
f 3 13 25
f 3 25 31
f 3 31 30
f 3 30 29
f 3 29 28
f 3 28 39
f 3 39 32
f 3 32 14
f 3 14 8
f 4 8 9
f 5 10 6
f 5 11 10
f 7 12 13
f 8 14 9
f 9 14 15
f 10 16 17
f 10 11 18
f 10 18 19
f 10 19 20
f 10 20 21
f 10 21 22
f 10 22 23
f 10 23 24
f 10 24 16
f 12 25 13
f 12 26 27
f 12 27 28
f 12 28 29
f 12 29 30
f 12 30 31
f 12 31 25
f 14 32 33
f 14 33 34
f 14 34 15
f 15 34 35
f 15 35 36
f 16 37 17
f 16 24 37
f 17 37 27
f 17 27 26
f 24 38 39
f 24 39 28
f 24 28 37
f 27 37 28
f 32 39 40
f 32 40 33
f 33 40 34
f 34 40 35
f 35 40 36
f 36 40 38
f 38 40 39

