# https://github.com/mikedh/trimesh
v -0.19847829 0.17781707 -0.08237577
v -0.19847829 0.19380339 -0.07717739
v -0.19847829 0.17781707 -0.06961293
v -0.50187624 0.17781707 -0.08236994
v -0.50187624 0.19385088 -0.07715991
v -0.19853769 0.19385088 -0.07715991
v -0.19847829 0.21807050 -0.06811520
v -0.19847829 0.17783818 -0.06947307
v -0.19853769 0.17781707 -0.06947889
v -0.50187624 0.17781707 -0.06947889
v -0.50187624 0.21812855 -0.06809188
v -0.19853769 0.21812855 -0.06809188
v -0.19847829 0.22669964 -0.06451945
v -0.19847829 0.22209215 -0.02310142
v -0.50187624 0.22204992 -0.02283917
v -0.50187624 0.22673657 -0.06450197
v -0.19853769 0.22673657 -0.06450197
v -0.19847829 0.23073710 -0.05690254
v -0.19847829 0.22772352 -0.02308976
v -0.50187624 0.22777629 -0.02283917
v -0.50187624 0.23073184 -0.05685592
v -0.19847829 0.23172933 -0.04484487
v -0.19847829 0.22775517 -0.02315970
v -0.50187624 0.23097990 -0.03154005
v -0.19847829 0.23127017 -0.03268229
v -0.50187624 0.23082156 -0.05575447
v -0.19847829 0.23173461 -0.04476911
v -0.50187624 0.23170293 -0.04476911
v -0.50187624 0.23124377 -0.03268229
v -0.19847829 0.23127545 -0.03275805
f 1 2 7
f 1 7 13
f 1 13 18
f 1 18 22
f 1 22 27
f 1 27 30
f 1 30 25
f 1 25 23
f 1 23 19
f 1 19 14
f 1 14 8
f 1 8 3
f 1 3 9
f 1 9 10
f 1 10 4
f 1 4 5
f 1 5 2
f 2 6 7
f 2 5 6
f 3 8 9
f 4 10 15
f 4 15 20
f 4 20 24
f 4 24 29
f 4 29 28
f 4 28 26
f 4 26 21
f 4 21 16
f 4 16 11
f 4 11 5
f 5 11 7
f 5 7 6
f 7 12 13
f 7 11 12
f 8 14 9
f 9 14 15
f 9 15 10
f 11 16 13
f 11 13 12
f 13 17 18
f 13 16 17
f 14 19 15
f 15 19 20
f 16 21 18
f 16 18 17
f 18 21 22
f 19 23 20
f 20 23 25
f 20 25 24
f 21 26 22
f 22 26 28
f 22 28 27
f 24 25 29
f 25 30 29
f 27 28 29
f 27 29 30

