# https://github.com/mikedh/trimesh
v 0.62001651 -0.38211310 0.16073225
v 0.61183607 -0.37917184 -0.01748893
v 0.63011193 -0.38211310 0.16073225
v 0.62001651 -0.38211310 0.24069422
v 0.62305449 -0.13981444 -0.01748893
v 0.63559520 -0.37917184 -0.01748893
v 0.61183607 -0.37917184 0.16073225
v 0.62001651 -0.13979072 0.17003249
v 0.63514161 -0.38211310 0.16075751
v 0.62365683 -0.38211310 0.24069422
v 0.62001651 -0.37577990 0.24034040
v 0.63634867 -0.13981444 -0.01748893
v 0.62292732 -0.13979072 0.16078278
v 0.62299690 -0.13979072 0.16073225
v 0.63634867 -0.37430925 -0.01748893
v 0.62001651 -0.14892288 0.19136242
v 0.62001651 -0.13979072 0.18868355
v 0.62001651 -0.15670301 0.19305568
v 0.63514161 -0.38211310 0.22120917
v 0.62695875 -0.38211310 0.24049203
v 0.63064228 -0.37729797 0.24001185
v 0.62365683 -0.37577990 0.24034040
v 0.63634867 -0.13979072 0.16073225
v 0.63634867 -0.37430925 0.16073225
v 0.62365683 -0.13979072 0.18880992
v 0.62365683 -0.14892288 0.19136242
v 0.62365683 -0.15670301 0.19305568
v 0.63634867 -0.37428554 0.22120917
v 0.63430894 -0.38211310 0.22899306
v 0.63072386 -0.38211310 0.24008766
v 0.63292437 -0.37366882 0.23430028
v 0.63295795 -0.35013869 0.23086323
v 0.63243957 -0.33804155 0.22972597
v 0.63123496 -0.32592069 0.22843707
v 0.63053187 -0.20845980 0.20364484
v 0.63022234 -0.31833032 0.22760309
v 0.62973278 -0.25941011 0.21519433
v 0.63634867 -0.13979072 0.17286300
v 0.63009031 -0.14949216 0.19123606
v 0.62643324 -0.13979072 0.18762210
v 0.63634867 -0.36221212 0.22120917
v 0.63309474 -0.38211310 0.23364319
v 0.63151574 -0.38211310 0.23816697
v 0.63628388 -0.35013869 0.22120917
v 0.63576312 -0.33804155 0.22120917
v 0.63265080 -0.22923842 0.20586881
v 0.63233882 -0.16880014 0.19333368
v 0.63206525 -0.27755584 0.21716556
v 0.63161173 -0.21716500 0.20457992
v 0.63107418 -0.15670301 0.19201951
v 0.63417936 -0.13979072 0.18024255
v 0.63566474 -0.16880014 0.18494322
v 0.63624784 -0.18087357 0.18494322
v 0.63634867 -0.24133556 0.19704872
v 0.63277555 -0.13979072 0.18456415
v 0.63614472 -0.28967670 0.20912894
v 0.63597673 -0.22923842 0.19704872
v 0.63440010 -0.15670301 0.18494322
f 1 2 6
f 1 6 3
f 1 3 9
f 1 9 19
f 1 19 29
f 1 29 42
f 1 42 43
f 1 43 30
f 1 30 20
f 1 20 10
f 1 10 4
f 1 4 7
f 1 7 2
f 2 5 12
f 2 12 15
f 2 15 6
f 2 7 17
f 2 17 8
f 2 8 5
f 3 6 9
f 4 10 22
f 4 22 11
f 4 11 7
f 5 8 13
f 5 13 14
f 5 14 23
f 5 23 12
f 6 15 9
f 7 16 17
f 7 11 18
f 7 18 16
f 8 17 25
f 8 25 40
f 8 40 55
f 8 55 51
f 8 51 38
f 8 38 23
f 8 23 14
f 8 14 13
f 9 15 24
f 9 24 19
f 10 20 21
f 10 21 22
f 11 22 27
f 11 27 18
f 12 23 38
f 12 38 54
f 12 54 41
f 12 41 28
f 12 28 24
f 12 24 15
f 16 25 17
f 16 18 27
f 16 27 26
f 16 26 25
f 19 28 29
f 19 24 28
f 20 30 21
f 21 30 31
f 21 31 32
f 21 32 33
f 21 33 34
f 21 34 35
f 21 35 36
f 21 36 22
f 22 36 37
f 22 37 27
f 25 39 40
f 25 26 39
f 26 27 37
f 26 37 39
f 28 41 31
f 28 31 42
f 28 42 29
f 30 43 31
f 31 44 45
f 31 45 32
f 31 43 42
f 31 41 44
f 32 45 33
f 33 45 46
f 33 46 47
f 33 47 48
f 33 48 34
f 34 48 49
f 34 49 50
f 34 50 35
f 35 50 39
f 35 39 36
f 36 39 37
f 38 51 52
f 38 52 53
f 38 53 54
f 39 55 40
f 39 50 55
f 41 54 44
f 44 54 53
f 44 53 56
f 44 56 45
f 45 56 57
f 45 57 52
f 45 52 46
f 46 52 47
f 47 50 49
f 47 49 48
f 47 52 58
f 47 58 55
f 47 55 50
f 51 55 52
f 52 55 58
f 52 57 53
f 53 57 56

