# https://github.com/mikedh/trimesh
v 0.62365751 -0.13979072 -0.20650086
v 0.62292376 -0.13979072 -0.20642346
v 0.62292376 -0.13931718 -0.20630739
v 0.62292376 -0.11982900 -0.19969053
v 0.62365751 -0.12041181 -0.19988404
v 0.63054080 -0.11268940 -0.19647887
v 0.63189157 -0.12041181 -0.19787191
v 0.63304350 -0.13979072 -0.20166400
v 0.62023167 -0.13979072 0.16984571
v 0.62023167 0.21471204 0.00868147
v 0.62023167 0.23208749 0.00868147
v 0.62292376 -0.01379143 -0.16099566
v 0.62365751 -0.01379143 -0.16099566
v 0.63003424 -0.07746496 -0.18401913
v 0.63047926 0.02015808 -0.14807156
v 0.63091166 -0.01506636 -0.16053131
v 0.63126826 -0.05029079 -0.17302977
v 0.63275321 -0.09622462 -0.18726949
v 0.63292358 -0.13250542 -0.19992274
v 0.63182375 0.01261779 -0.14942588
v 0.63222928 0.10925730 -0.11367179
v 0.63227187 -0.02366301 -0.16207911
v 0.63253859 -0.05994382 -0.17465495
v 0.63521648 -0.12041181 -0.18982335
v 0.63624849 -0.13250542 -0.18982335
v 0.63631004 -0.13979072 -0.18982335
v 0.62023167 -0.13979072 0.18869015
v 0.62023167 0.23216035 0.07957053
v 0.62365751 0.23234248 -0.04475618
v 0.62292376 0.23226962 -0.04475618
v 0.62292376 0.23077614 -0.05686768
v 0.62292376 0.22673280 -0.06449057
v 0.62292376 0.11781754 -0.11254964
v 0.62292376 0.10925730 -0.11607088
v 0.62996167 0.05530965 -0.13557310
v 0.62365751 0.10925730 -0.11607088
v 0.63122566 0.08248382 -0.12458375
v 0.63085956 0.11697973 -0.11212400
v 0.63104737 0.22582214 -0.06394885
v 0.63237291 0.21806330 -0.06553534
v 0.63555571 0.10925730 -0.10519761
v 0.63250703 0.07297651 -0.12624763
v 0.63559678 -0.02366301 -0.15356623
v 0.63586344 -0.05994382 -0.16563903
v 0.63607805 -0.09622462 -0.17771185
v 0.63622795 0.00052419 -0.14145472
v 0.63634629 0.09716371 -0.10519761
v 0.63634946 -0.03575661 -0.15356623
v 0.63634946 -0.10831823 -0.17771185
v 0.63634946 -0.13979072 -0.17771185
v 0.62365593 -0.13979072 0.18880621
v 0.62023167 -0.12041181 0.18497542
v 0.62023167 0.23216035 0.08823818
v 0.63302462 0.22829914 -0.04475618
v 0.63237291 0.22749775 -0.05686768
v 0.62365751 0.23077614 -0.05686768
v 0.62365593 0.23230605 0.08823818
v 0.63302462 0.22833557 0.08823818
v 0.63302462 0.22833557 0.00868147
v 0.62365751 0.22673280 -0.06449057
v 0.62365751 0.11781754 -0.11254964
v 0.63569775 0.21806330 -0.05686768
v 0.63583028 0.07297651 -0.11727042
v 0.63605283 0.03676856 -0.12938192
v 0.63634946 0.20596969 -0.05686768
v 0.63634946 0.06088291 -0.11727042
v 0.63634946 -0.13979072 0.00864278
v 0.62365593 -0.10831823 0.18261502
v 0.62023167 -0.10831823 0.18261502
v 0.62643482 -0.13979072 0.18760668
v 0.63194685 -0.10831823 0.18075769
v 0.63080753 -0.09855591 0.17967423
v 0.62023167 0.23205107 0.09164333
v 0.63634946 0.21806330 -0.04475618
v 0.63442114 0.22403724 0.00868147
v 0.62023167 0.23157752 0.10031099
v 0.62365593 0.23161395 0.10031099
v 0.63267898 0.22793488 0.10031099
v 0.63634787 0.21809971 0.08823818
v 0.63600548 0.21809971 0.10031099
v 0.63634946 0.21806330 0.00864278
v 0.63634787 -0.13979072 0.17286394
v 0.63041296 -0.03958140 0.16729185
v 0.62995540 0.01939312 0.15487080
v 0.62981494 0.18819355 0.11849760
v 0.62365593 0.01261779 0.15649600
v 0.62023167 0.01261779 0.15649600
v 0.63277526 -0.13979072 0.18454979
v 0.63277526 -0.12041181 0.18195722
v 0.63258118 -0.05994382 0.16945878
v 0.63223872 0.00052419 0.15692163
v 0.63182058 0.06091934 0.14434579
v 0.63147026 -0.04785022 0.16818185
v 0.63634787 0.21809971 0.00868147
v 0.62023167 0.23048472 0.10263268
v 0.62365593 0.22753418 0.10855301
v 0.63145765 0.22640495 0.10781780
v 0.63634787 0.20600612 0.10031099
v 0.63267898 0.21809971 0.10921082
v 0.63545157 0.16972533 0.11238380
v 0.63581450 0.10925730 0.12445661
v 0.63590444 -0.05994382 0.16075243
v 0.63610169 -0.12041181 0.17286394
v 0.63616958 0.15763172 0.11238380
v 0.63634787 -0.13250542 0.17286394
v 0.63417972 -0.13979072 0.18021596
v 0.63070332 0.07024453 0.14333972
v 0.63029145 0.12921904 0.13091866
v 0.63073171 0.18181891 0.11919410
v 0.62365593 0.21809971 0.11203555
v 0.62365593 0.18833925 0.11853629
v 0.62023167 0.18833925 0.11853629
v 0.63302462 -0.13250542 0.18307939
v 0.63527169 -0.10831823 0.17286394
v 0.63556363 0.00052419 0.14864091
v 0.63249124 0.10925730 0.13304687
v 0.63212831 0.16972533 0.12047104
v 0.63132195 0.12135091 0.13176994
v 0.62023167 0.22753418 0.10855301
v 0.63630053 0.09716371 0.12445661
v 0.63633209 -0.07203742 0.16075243
v 0.63620900 -0.01156941 0.14864091
v 0.62023167 0.21809971 0.11203555
f 1 2 3
f 1 3 4
f 1 4 5
f 1 5 6
f 1 6 7
f 1 7 8
f 1 8 26
f 1 26 50
f 1 50 67
f 1 67 82
f 1 82 106
f 1 106 88
f 1 88 70
f 1 70 51
f 1 51 27
f 1 27 9
f 1 9 2
f 2 9 10
f 2 10 11
f 2 11 3
f 3 11 4
f 4 12 13
f 4 13 5
f 4 11 12
f 5 13 14
f 5 14 6
f 6 14 15
f 6 15 16
f 6 16 17
f 6 17 7
f 7 18 19
f 7 19 8
f 7 17 20
f 7 20 21
f 7 21 22
f 7 22 23
f 7 23 18
f 8 19 24
f 8 24 25
f 8 25 26
f 9 27 52
f 9 52 69
f 9 69 87
f 9 87 112
f 9 112 123
f 9 123 119
f 9 119 95
f 9 95 76
f 9 76 73
f 9 73 53
f 9 53 28
f 9 28 11
f 9 11 10
f 11 28 29
f 11 29 30
f 11 30 31
f 11 31 32
f 11 32 33
f 11 33 34
f 11 34 12
f 12 34 36
f 12 36 13
f 13 35 14
f 13 36 35
f 14 35 15
f 15 35 37
f 15 37 16
f 16 37 17
f 17 37 21
f 17 21 20
f 18 24 19
f 18 23 24
f 21 37 38
f 21 38 39
f 21 39 40
f 21 40 41
f 21 41 42
f 21 42 22
f 22 42 23
f 23 42 41
f 23 41 43
f 23 43 24
f 24 43 44
f 24 44 45
f 24 45 25
f 25 45 46
f 25 46 47
f 25 47 48
f 25 48 26
f 26 48 49
f 26 49 50
f 27 51 52
f 28 53 29
f 29 54 55
f 29 55 56
f 29 56 31
f 29 31 30
f 29 53 57
f 29 57 58
f 29 58 59
f 29 59 54
f 31 56 60
f 31 60 32
f 32 60 61
f 32 61 33
f 33 61 36
f 33 36 34
f 35 36 38
f 35 38 37
f 36 61 38
f 38 61 60
f 38 60 39
f 39 60 56
f 39 56 55
f 39 55 62
f 39 62 40
f 40 62 41
f 41 47 63
f 41 63 43
f 41 62 47
f 43 63 44
f 44 63 64
f 44 64 45
f 45 64 46
f 46 64 47
f 47 62 65
f 47 65 66
f 47 66 48
f 47 64 63
f 48 66 65
f 48 65 74
f 48 74 81
f 48 81 67
f 48 67 50
f 48 50 49
f 51 68 69
f 51 69 52
f 51 70 71
f 51 71 72
f 51 72 68
f 53 73 57
f 54 74 62
f 54 62 55
f 54 59 75
f 54 75 74
f 57 73 76
f 57 76 77
f 57 77 78
f 57 78 58
f 58 79 75
f 58 75 59
f 58 78 80
f 58 80 79
f 62 74 65
f 67 81 105
f 67 105 82
f 68 72 83
f 68 83 84
f 68 84 85
f 68 85 86
f 68 86 87
f 68 87 69
f 70 88 71
f 71 88 89
f 71 89 90
f 71 90 91
f 71 91 92
f 71 92 93
f 71 93 72
f 72 93 83
f 74 75 94
f 74 94 79
f 74 79 81
f 75 79 94
f 76 95 77
f 77 95 96
f 77 96 97
f 77 97 78
f 78 97 80
f 79 80 98
f 79 98 81
f 80 97 99
f 80 99 100
f 80 100 101
f 80 101 102
f 80 102 103
f 80 103 104
f 80 104 98
f 81 98 105
f 82 105 106
f 83 93 107
f 83 107 108
f 83 108 84
f 84 108 85
f 85 108 109
f 85 109 99
f 85 99 97
f 85 97 110
f 85 110 111
f 85 111 86
f 86 111 112
f 86 112 87
f 88 113 89
f 88 106 103
f 88 103 113
f 89 113 103
f 89 103 114
f 89 114 90
f 90 115 99
f 90 99 116
f 90 116 91
f 90 114 115
f 91 116 117
f 91 117 92
f 92 118 93
f 92 117 118
f 93 118 107
f 95 119 96
f 96 119 123
f 96 123 110
f 96 110 97
f 98 104 120
f 98 120 121
f 98 121 105
f 99 109 117
f 99 117 116
f 99 115 100
f 100 115 101
f 101 115 102
f 102 115 114
f 102 114 103
f 103 106 105
f 103 105 121
f 103 121 122
f 103 122 104
f 104 122 120
f 107 118 109
f 107 109 108
f 109 118 117
f 110 123 112
f 110 112 111
f 120 122 121

