# https://github.com/mikedh/trimesh
v 0.23372243 0.95341300 -0.03240259
v 0.25814883 0.94120500 -0.03240259
v 0.30698636 0.91677795 -0.03240259
v 0.19721268 0.96563201 -0.03172555
v 0.20928075 0.96563201 -0.03236874
v 0.22150159 0.96563201 -0.03201894
v 0.35325752 0.89493487 -0.03232360
v 0.33142802 0.90456993 -0.03240259
v 0.19721268 0.96548967 -0.03166914
v 0.19721268 0.97769771 -0.03129677
v 0.35325752 0.89235095 -0.03209792
v 0.34363359 0.89235095 -0.03093569
v 0.19721268 0.97786193 -0.03125164
v 0.22150159 0.97568311 -0.02755054
v 0.29478079 0.92899696 -0.03200765
v 0.34363359 0.90456993 -0.03199637
v 0.35325752 0.90525970 -0.02941237
v 0.19721268 0.95658821 -0.02724587
v 0.35325752 0.88271589 -0.02862250
v 0.19721268 0.98600793 -0.02679452
v 0.20987652 0.97880356 -0.02829527
v 0.20619499 0.98502254 -0.02545174
v 0.23085053 0.97336194 -0.02586924
v 0.25527693 0.96114294 -0.02586924
v 0.34363359 0.91456628 -0.02752797
v 0.35325752 0.90779985 -0.02828398
v 0.21433712 0.94677799 -0.02458288
v 0.19721268 0.95653346 -0.02711047
v 0.35325752 0.88074510 -0.02758439
v 0.34363359 0.88386553 -0.02646729
v 0.33640803 0.88568306 -0.02463931
v 0.28757050 0.91012103 -0.02461673
v 0.19721268 0.98804441 -0.01765460
v 0.19721268 0.98806633 -0.01751920
v 0.20770733 0.98554807 -0.01751920
v 0.21381774 0.98331450 -0.01751920
v 0.22150159 0.97964660 -0.01751920
v 0.23246980 0.97417215 -0.01751920
v 0.25688092 0.96195315 -0.01751920
v 0.35292144 0.91226701 -0.02584667
v 0.35325752 0.91162102 -0.02610620
v 0.19721268 0.95358822 -0.01751920
v 0.35325752 0.87636552 -0.01768846
v 0.35325752 0.87632173 -0.01751920
v 0.19721268 0.98806633 0.06796720
v 0.20770733 0.98554807 0.06796720
v 0.21381774 0.98334733 -0.00531008
v 0.22150159 0.97966852 -0.00531008
v 0.24592800 0.96743856 -0.00531008
v 0.33620944 0.92223052 -0.00531008
v 0.33009901 0.92528527 -0.01751920
v 0.35325752 0.91367942 -0.01751920
v 0.35325752 0.91215753 -0.02547431
v 0.19721268 0.95351155 -0.00531008
v 0.35325752 0.87621224 -0.00531008
v 0.19721268 0.98600793 0.07724252
v 0.20619499 0.98502254 0.07589974
v 0.21381774 0.98331450 0.06796720
v 0.21381774 0.98334733 0.05575808
v 0.22150159 0.97966852 0.05575808
v 0.24592800 0.96743856 0.05575808
v 0.33620944 0.92223052 0.05575808
v 0.34363359 0.91850790 -0.00531008
v 0.35325752 0.91367942 0.06796720
v 0.19721268 0.95351155 0.05592734
v 0.35325752 0.87621224 0.05575808
v 0.19721268 0.97786193 0.08169964
v 0.20987652 0.97880356 0.07874327
v 0.22150159 0.97568311 0.07799854
v 0.23085053 0.97336194 0.07631724
v 0.22150159 0.97964660 0.06796720
v 0.23246980 0.97417215 0.06796720
v 0.25688092 0.96195315 0.06796720
v 0.33009901 0.92528527 0.06796720
v 0.34363359 0.91850790 0.05575808
v 0.35292144 0.91226701 0.07629467
v 0.35325752 0.91243125 0.07448926
v 0.19721268 0.95358822 0.06796720
v 0.35325752 0.87632173 0.06796720
v 0.19721268 0.96563201 0.08217355
v 0.20928075 0.96563201 0.08281674
v 0.22150159 0.96563201 0.08246694
v 0.25527693 0.96114294 0.07631724
v 0.29478079 0.92899696 0.08245565
v 0.34363359 0.90456993 0.08244437
v 0.34363359 0.91456628 0.07797597
v 0.35325752 0.91162102 0.07655420
v 0.21433712 0.94677799 0.07503088
v 0.19721268 0.95658821 0.07769387
v 0.33640803 0.88568306 0.07508731
v 0.28757050 0.91012103 0.07506473
v 0.35325752 0.88074510 0.07803239
v 0.23372243 0.95341300 0.08285059
v 0.34363359 0.89235095 0.08138369
v 0.35325752 0.89235095 0.08254592
v 0.33142802 0.90456993 0.08285059
v 0.30698636 0.91677795 0.08285059
v 0.25814883 0.94120500 0.08285059
v 0.35325752 0.90525970 0.07986037
v 0.34363359 0.88386553 0.07691529
f 1 2 8
f 1 8 3
f 1 3 4
f 1 4 5
f 1 5 6
f 1 6 7
f 1 7 2
f 2 7 8
f 3 8 4
f 4 9 18
f 4 18 28
f 4 28 42
f 4 42 54
f 4 54 65
f 4 65 78
f 4 78 89
f 4 89 80
f 4 80 67
f 4 67 56
f 4 56 45
f 4 45 34
f 4 34 33
f 4 33 20
f 4 20 13
f 4 13 10
f 4 10 5
f 4 8 11
f 4 11 12
f 4 12 9
f 5 10 6
f 6 10 13
f 6 13 14
f 6 14 15
f 6 15 7
f 7 15 16
f 7 16 17
f 7 17 26
f 7 26 41
f 7 41 53
f 7 53 52
f 7 52 64
f 7 64 77
f 7 77 87
f 7 87 99
f 7 99 95
f 7 95 92
f 7 92 79
f 7 79 66
f 7 66 55
f 7 55 44
f 7 44 43
f 7 43 29
f 7 29 19
f 7 19 11
f 7 11 8
f 9 12 19
f 9 19 18
f 11 19 12
f 13 20 21
f 13 21 14
f 14 21 22
f 14 22 23
f 14 23 24
f 14 24 25
f 14 25 16
f 14 16 15
f 16 25 26
f 16 26 17
f 18 27 28
f 18 19 29
f 18 29 30
f 18 30 31
f 18 31 32
f 18 32 27
f 20 33 22
f 20 22 21
f 22 33 34
f 22 34 35
f 22 35 36
f 22 36 23
f 23 36 37
f 23 37 38
f 23 38 24
f 24 38 39
f 24 39 40
f 24 40 25
f 25 40 26
f 26 40 41
f 27 42 28
f 27 32 42
f 29 43 31
f 29 31 30
f 31 43 44
f 31 44 42
f 31 42 32
f 34 45 46
f 34 46 35
f 35 46 59
f 35 59 47
f 35 47 36
f 36 47 37
f 37 48 38
f 37 47 48
f 38 48 39
f 39 48 49
f 39 49 50
f 39 50 51
f 39 51 40
f 40 51 52
f 40 52 53
f 40 53 41
f 42 44 55
f 42 55 54
f 45 56 57
f 45 57 46
f 46 58 59
f 46 57 58
f 47 59 60
f 47 60 48
f 48 60 61
f 48 61 49
f 49 61 62
f 49 62 50
f 50 62 75
f 50 75 63
f 50 63 52
f 50 52 51
f 52 63 75
f 52 75 64
f 54 55 66
f 54 66 65
f 56 67 68
f 56 68 57
f 57 68 69
f 57 69 70
f 57 70 58
f 58 70 71
f 58 71 59
f 59 71 60
f 60 71 72
f 60 72 73
f 60 73 61
f 61 73 62
f 62 74 64
f 62 64 75
f 62 73 74
f 64 76 77
f 64 74 76
f 65 66 78
f 66 79 78
f 67 80 81
f 67 81 82
f 67 82 69
f 67 69 68
f 69 83 70
f 69 82 84
f 69 84 85
f 69 85 86
f 69 86 83
f 70 83 72
f 70 72 71
f 72 83 73
f 73 83 76
f 73 76 74
f 76 86 87
f 76 87 77
f 76 83 86
f 78 88 89
f 78 79 90
f 78 90 91
f 78 91 88
f 79 92 90
f 80 93 81
f 80 89 92
f 80 92 94
f 80 94 95
f 80 95 96
f 80 96 97
f 80 97 93
f 81 93 82
f 82 93 98
f 82 98 96
f 82 96 84
f 84 96 85
f 85 96 95
f 85 95 99
f 85 99 86
f 86 99 87
f 88 91 89
f 89 91 90
f 89 90 100
f 89 100 92
f 90 92 100
f 92 95 94
f 93 97 96
f 93 96 98

