# https://github.com/mikedh/trimesh
v -0.57334965 0.23230605 0.01970330
v -0.57257856 0.23226962 0.01970330
v -0.57334965 0.23234248 -0.04478093
v -0.57647875 0.23099471 0.01970330
v -0.57257856 0.23230605 -0.04478093
v -0.57257856 0.20607896 0.01970330
v -0.57257856 0.23223319 -0.04555599
v -0.57257856 0.23081256 -0.05687173
v -0.57334965 0.23081256 -0.05687173
v -0.58206605 0.22753416 -0.05687173
v -0.58271855 0.22833555 -0.04478093
v -0.58271855 0.22833555 0.01970330
v -0.57274464 -0.13979073 0.01970330
v -0.57257856 -0.13166762 -0.16650821
v -0.57257856 0.23055758 -0.05735891
v -0.57334965 0.22673280 -0.06451151
v -0.58074145 0.22585855 -0.06398005
v -0.58539162 0.21809971 -0.05687173
v -0.58604404 0.21809971 -0.04478093
v -0.58493291 0.22152379 0.01970330
v -0.58604404 -0.13979073 0.01970330
v -0.57257856 -0.13979073 -0.17443588
v -0.57257856 -0.13873436 -0.17149069
v -0.57257856 0.22673280 -0.06451151
v -0.57334965 0.11785397 -0.11258682
v -0.58055422 0.11701614 -0.11214393
v -0.58206605 0.21809971 -0.06557445
v -0.58192372 0.10929373 -0.11367189
v -0.58604404 0.20600610 -0.05687173
v -0.58524791 0.10929373 -0.10521276
v -0.58604008 0.09720013 -0.10521276
v -0.58604404 0.21809971 0.01970330
v -0.58604404 -0.13979073 -0.18504299
v -0.57257856 -0.13979073 -0.20645655
v -0.57257856 0.11785397 -0.11258682
v -0.57334965 0.10929373 -0.11610777
v -0.57965532 0.05534607 -0.13561690
v -0.58091938 0.08252025 -0.12461118
v -0.58151906 0.01261778 -0.14945709
v -0.58158500 -0.12041182 -0.19788672
v -0.58196588 -0.02366302 -0.16210149
v -0.58220053 0.07301292 -0.12624986
v -0.58604404 0.06091933 -0.11730356
v -0.58552473 0.07301292 -0.11730356
v -0.58223217 -0.05994382 -0.17467946
v -0.58490920 -0.12041182 -0.18984832
v -0.58529007 -0.02366302 -0.15357594
v -0.58574619 0.03676855 -0.12939435
v -0.58592146 0.00052418 -0.14148515
v -0.58594120 -0.13250543 -0.18984832
v -0.58604404 -0.03575662 -0.15357594
v -0.58600318 -0.13979073 -0.18984832
v -0.58604404 -0.10831824 -0.17775753
v -0.57334965 -0.13979073 -0.20647870
v -0.57257856 -0.12041182 -0.19990184
v -0.57257856 0.10929373 -0.11610777
v -0.57334965 0.05560106 -0.13570548
v -0.58017334 0.02015807 -0.14808415
v -0.57334965 -0.04850590 -0.17368298
v -0.57334965 -0.11188802 -0.19680163
v -0.57972782 -0.07746497 -0.18402435
v -0.58060567 -0.01506637 -0.16055140
v -0.58096154 -0.05029080 -0.17301865
v -0.58023395 -0.11268941 -0.19649161
v -0.57423932 -0.13979073 -0.20612439
v -0.58273830 -0.13979073 -0.20169553
v -0.58261701 -0.13250543 -0.19994612
v -0.58244700 -0.09622463 -0.18727958
v -0.58555766 -0.05994382 -0.16566673
v -0.58399048 -0.13979073 -0.19788672
v -0.58577249 -0.09622463 -0.17775753
v -0.57334965 -0.12041182 -0.19990184
v -0.57257856 -0.11243442 -0.19700093
v -0.57257856 0.05560106 -0.13570548
v -0.57257856 -0.04850590 -0.17368298
f 1 2 5
f 1 5 3
f 1 3 4
f 1 4 12
f 1 12 20
f 1 20 32
f 1 32 21
f 1 21 13
f 1 13 6
f 1 6 2
f 2 6 14
f 2 14 23
f 2 23 22
f 2 22 34
f 2 34 55
f 2 55 73
f 2 73 75
f 2 75 74
f 2 74 56
f 2 56 35
f 2 35 24
f 2 24 15
f 2 15 8
f 2 8 7
f 2 7 5
f 3 5 7
f 3 7 8
f 3 8 9
f 3 9 10
f 3 10 11
f 3 11 12
f 3 12 4
f 6 13 14
f 8 15 9
f 9 15 16
f 9 16 17
f 9 17 10
f 10 17 18
f 10 18 11
f 11 18 19
f 11 19 20
f 11 20 12
f 13 21 33
f 13 33 52
f 13 52 70
f 13 70 66
f 13 66 65
f 13 65 54
f 13 54 34
f 13 34 22
f 13 22 23
f 13 23 14
f 15 24 16
f 16 24 35
f 16 35 25
f 16 25 26
f 16 26 17
f 17 27 18
f 17 26 28
f 17 28 27
f 18 29 19
f 18 27 30
f 18 30 31
f 18 31 29
f 19 32 20
f 19 29 43
f 19 43 51
f 19 51 53
f 19 53 33
f 19 33 21
f 19 21 32
f 25 35 56
f 25 56 36
f 25 36 26
f 26 36 37
f 26 37 38
f 26 38 28
f 27 28 30
f 28 38 39
f 28 39 40
f 28 40 41
f 28 41 42
f 28 42 30
f 29 31 43
f 30 44 31
f 30 42 45
f 30 45 46
f 30 46 47
f 30 47 44
f 31 44 48
f 31 48 49
f 31 49 50
f 31 50 51
f 31 51 43
f 33 53 52
f 34 54 55
f 36 56 74
f 36 74 57
f 36 57 37
f 37 58 38
f 37 57 59
f 37 59 60
f 37 60 61
f 37 61 58
f 38 58 62
f 38 62 63
f 38 63 39
f 39 63 40
f 40 64 65
f 40 65 66
f 40 66 67
f 40 67 68
f 40 68 45
f 40 45 41
f 40 63 64
f 41 45 42
f 44 47 69
f 44 69 48
f 45 68 46
f 46 68 67
f 46 67 66
f 46 66 70
f 46 70 50
f 46 50 71
f 46 71 69
f 46 69 47
f 48 69 71
f 48 71 49
f 49 71 50
f 50 70 52
f 50 52 51
f 51 52 53
f 54 72 55
f 54 65 64
f 54 64 72
f 55 72 73
f 57 74 75
f 57 75 59
f 58 61 64
f 58 64 62
f 59 75 73
f 59 73 60
f 60 73 72
f 60 72 61
f 61 72 64
f 62 64 63

