# https://github.com/mikedh/trimesh
v 0.61133707 -0.13979072 -0.19355550
v 0.61133707 -0.13979072 -0.20613378
v 0.60341828 -0.13979072 -0.19273132
v 0.61133707 -0.13985634 -0.19202887
v 0.61133707 -0.14663656 -0.20947738
v 0.02523191 -0.14661468 -0.20947738
v -0.56110279 -0.14661468 -0.20947738
v -0.56110279 -0.13981259 -0.20614315
v -0.55020010 -0.13979072 -0.20596520
v -0.56110279 -0.13979072 -0.19200077
v 0.61133707 -0.14538987 -0.19362107
v -0.56110279 -0.14532425 -0.19357422
v 0.61133707 -0.18134689 -0.22213996
v 0.61133707 -0.34997747 -0.28365462
v -0.56110279 -0.34273795 -0.28101347
v -0.56110279 -0.13979072 -0.20574042
v 0.61133707 -0.24147211 -0.22863046
v -0.56110279 -0.24134089 -0.22858364
v 0.61133707 -0.35010869 -0.28370145
v -0.56110279 -0.35010869 -0.28370145
v 0.61133707 -0.27817277 -0.24206105
v -0.56110279 -0.27819464 -0.24206105
v 0.61133707 -0.36323169 -0.28767256
v -0.56110279 -0.36318795 -0.28767256
v -0.56110279 -0.35026178 -0.28374827
v 0.61133707 -0.34632490 -0.26703967
v -0.56110279 -0.34623741 -0.26699284
v 0.61133707 -0.36323169 -0.27391417
v 0.02523191 -0.36323169 -0.28755080
v -0.56110279 -0.36318795 -0.27558129
v -0.56110279 -0.36316608 -0.27391417
v 0.02523191 -0.36323169 -0.27433564
v -0.55020010 -0.36318795 -0.27428880
f 1 2 9
f 1 9 16
f 1 16 10
f 1 10 3
f 1 3 4
f 1 4 11
f 1 11 17
f 1 17 21
f 1 21 26
f 1 26 28
f 1 28 23
f 1 23 19
f 1 19 14
f 1 14 13
f 1 13 5
f 1 5 2
f 2 5 6
f 2 6 7
f 2 7 8
f 2 8 9
f 3 10 4
f 4 10 12
f 4 12 11
f 5 13 6
f 6 13 14
f 6 14 7
f 7 15 20
f 7 20 25
f 7 25 24
f 7 24 30
f 7 30 31
f 7 31 27
f 7 27 22
f 7 22 18
f 7 18 12
f 7 12 10
f 7 10 16
f 7 16 8
f 7 14 15
f 8 16 9
f 11 12 17
f 12 18 17
f 14 19 20
f 14 20 15
f 17 18 22
f 17 22 21
f 19 23 24
f 19 24 25
f 19 25 20
f 21 22 27
f 21 27 26
f 23 28 32
f 23 32 29
f 23 29 24
f 24 29 32
f 24 32 30
f 26 27 28
f 27 31 28
f 28 31 32
f 30 32 33
f 30 33 31
f 31 33 32

