# https://github.com/mikedh/trimesh
v 0.56294795 0.20613572 0.11352549
v 0.56294795 0.18835857 0.11856592
v 0.56294795 0.20613572 0.10096276
v -0.00040734 0.20613572 0.11352549
v 0.23676006 -0.01419939 0.18105546
v 0.56294795 0.18825699 0.11859151
v 0.56294795 -0.13979073 0.17580180
v -0.00040734 -0.13711569 0.17522185
v -0.00040734 0.20613572 0.10096276
v -0.00040734 -0.01507978 0.18105546
v -0.00040734 -0.13979073 0.18808308
v 0.49422458 -0.13979073 0.18809161
v 0.56294795 -0.13979073 0.18809161
v 0.56294795 -0.12038824 0.18487629
v 0.56294795 -0.10829978 0.18261621
v 0.24883905 -0.01358989 0.18026230
v 0.56294795 0.18185720 0.11998168
v -0.00040734 -0.13979073 0.17580180
f 1 2 6
f 1 6 17
f 1 17 15
f 1 15 14
f 1 14 13
f 1 13 7
f 1 7 3
f 1 3 9
f 1 9 4
f 1 4 5
f 1 5 2
f 2 5 6
f 3 7 8
f 3 8 9
f 4 9 8
f 4 8 18
f 4 18 11
f 4 11 10
f 4 10 5
f 5 10 11
f 5 11 12
f 5 12 13
f 5 13 14
f 5 14 15
f 5 15 16
f 5 16 6
f 6 16 17
f 7 13 12
f 7 12 11
f 7 11 18
f 7 18 8
f 15 17 16

