# https://github.com/mikedh/trimesh
v 0.62001316 -0.36221557 0.23646747
v 0.58692487 -0.35013199 0.23399005
v 0.58692487 -0.36221557 0.23554414
v 0.62001316 -0.36221557 0.21828031
v 0.62001316 -0.33804844 0.23220841
v 0.58692487 -0.33804844 0.23220841
v 0.58692487 -0.33850563 0.23227994
v 0.58692487 -0.36221557 0.22370979
v 0.62001316 -0.32746713 0.20883885
v 0.62001316 -0.32594308 0.22960095
v 0.58692487 -0.32594308 0.22960095
v 0.62001316 -0.26550344 0.19530088
v 0.58692487 -0.13979073 0.17580673
v 0.62001316 -0.15633760 0.17166472
v 0.62001316 -0.32006458 0.22833299
v 0.58692487 -0.14891328 0.19138645
v 0.58692487 -0.13979073 0.18809624
v 0.62001316 -0.13979073 0.17003912
v 0.62001316 -0.14431935 0.17024069
v 0.62001316 -0.14891328 0.19138645
v 0.62001316 -0.13979073 0.18870096
f 1 2 3
f 1 3 8
f 1 8 4
f 1 4 9
f 1 9 12
f 1 12 14
f 1 14 19
f 1 19 18
f 1 18 21
f 1 21 20
f 1 20 15
f 1 15 10
f 1 10 5
f 1 5 6
f 1 6 7
f 1 7 2
f 2 7 6
f 2 6 11
f 2 11 16
f 2 16 17
f 2 17 13
f 2 13 8
f 2 8 3
f 4 8 9
f 5 10 11
f 5 11 6
f 8 12 9
f 8 13 14
f 8 14 12
f 10 15 11
f 11 15 16
f 13 17 21
f 13 21 18
f 13 18 19
f 13 19 14
f 15 20 16
f 16 20 21
f 16 21 17

