# https://github.com/mikedh/trimesh
v 0.02525160 -0.38400945 -0.29365497
v 0.02525160 -0.38708148 -0.29192473
v 0.02525160 -0.37748985 -0.29365497
v 0.61133707 -0.38400945 -0.29365497
v 0.02525160 -0.39005575 -0.29022148
v 0.61133707 -0.39005575 -0.29022148
v 0.02525160 -0.36325357 -0.28754500
v 0.61133707 -0.36325357 -0.28768016
v 0.61133707 -0.37748985 -0.29365497
v 0.02525160 -0.39345450 -0.28416556
v 0.61133707 -0.39339039 -0.28430076
v 0.02525160 -0.36325357 -0.27432470
v 0.61133707 -0.36325357 -0.27389214
v 0.02525160 -0.39444694 -0.27448691
v 0.61133707 -0.39345450 -0.28416556
v 0.61133707 -0.39442864 -0.27467616
v 0.02525160 -0.38377433 -0.01748894
v 0.61133707 -0.37946861 -0.01748894
v 0.02525160 -0.39444694 -0.01748894
v 0.61133707 -0.39444694 -0.27448691
v 0.61133707 -0.39403165 -0.01748894
v 0.60255956 -0.39444694 -0.01748894
v 0.61133707 -0.39444694 -0.01757004
f 1 2 5
f 1 5 10
f 1 10 14
f 1 14 19
f 1 19 17
f 1 17 12
f 1 12 7
f 1 7 3
f 1 3 9
f 1 9 4
f 1 4 2
f 2 4 6
f 2 6 5
f 3 7 8
f 3 8 9
f 4 9 8
f 4 8 13
f 4 13 18
f 4 18 21
f 4 21 23
f 4 23 20
f 4 20 16
f 4 16 15
f 4 15 11
f 4 11 6
f 5 6 11
f 5 11 10
f 7 12 13
f 7 13 8
f 10 11 15
f 10 15 16
f 10 16 14
f 12 17 18
f 12 18 13
f 14 16 20
f 14 20 23
f 14 23 22
f 14 22 19
f 17 19 22
f 17 22 21
f 17 21 18
f 21 22 23

