# https://github.com/mikedh/trimesh
v 0.61133707 -0.39445001 -0.27448691
v 0.61133707 -0.39345291 -0.28416556
v 0.62365798 -0.39445001 -0.27448691
v 0.61133707 -0.39445001 -0.01757004
v 0.61133707 -0.39337811 -0.28430076
v 0.62365798 -0.39345291 -0.28416556
v 0.63066563 -0.39310393 -0.28294899
v 0.63114797 -0.39345291 -0.27448691
v 0.62365798 -0.39445001 -0.01748894
v 0.61156477 -0.39445001 -0.01748894
v 0.61133707 -0.39402625 -0.01748894
v 0.61133707 -0.39003784 -0.29022148
v 0.62365798 -0.39003784 -0.29022148
v 0.63066073 -0.38278394 -0.29333055
v 0.63218611 -0.38664771 -0.28681504
v 0.63447303 -0.38639842 -0.27448691
v 0.63362098 -0.38821813 -0.01748894
v 0.63114797 -0.39345291 -0.01748894
v 0.61133707 -0.37946858 -0.01748894
v 0.61133707 -0.38400538 -0.29365497
v 0.62365798 -0.38400538 -0.29365497
v 0.63066073 -0.37844655 -0.29333055
v 0.63293540 -0.37435844 -0.28719352
v 0.63635104 -0.37430860 -0.27448691
v 0.63447303 -0.38639842 -0.01748894
v 0.62305319 -0.13979072 -0.01748894
v 0.61133707 -0.13984057 -0.19200208
v 0.61133707 -0.37747439 -0.29365497
v 0.62365798 -0.37747439 -0.29365497
v 0.63149808 -0.35012892 -0.28211088
v 0.63280315 -0.36221875 -0.28413854
v 0.63017593 -0.34319908 -0.28084022
v 0.63010732 -0.21036046 -0.23244695
v 0.63060192 -0.24560795 -0.24491026
v 0.63096435 -0.14796694 -0.20895325
v 0.63101328 -0.28080557 -0.25737354
v 0.63612821 -0.36221875 -0.27448691
v 0.63635104 -0.33803908 -0.26240213
v 0.63635104 -0.37430860 -0.01748894
v 0.61133707 -0.13979072 -0.19354309
v 0.63635104 -0.13979072 -0.01748894
v 0.61133707 -0.35012892 -0.28370597
v 0.62365798 -0.35012892 -0.28370597
v 0.63234776 -0.28967975 -0.25894159
v 0.63259992 -0.32594925 -0.27154006
v 0.63195600 -0.25343516 -0.24634313
v 0.63482321 -0.35012892 -0.27448691
v 0.62365798 -0.20998655 -0.23258213
v 0.62365798 -0.14662086 -0.20943989
v 0.62365798 -0.13979072 -0.20649304
v 0.63304559 -0.13979072 -0.20168074
v 0.63231100 -0.15669157 -0.21052130
v 0.63130955 -0.18318949 -0.22144357
v 0.63592498 -0.32594925 -0.26240213
v 0.63610378 -0.22925550 -0.22612069
v 0.63626781 -0.26552500 -0.23820548
v 0.63635104 -0.30176958 -0.25029030
v 0.61133707 -0.13979072 -0.20611454
v 0.63635104 -0.13979072 -0.17775446
v 0.61133707 -0.20998655 -0.23258213
v 0.63528106 -0.25343516 -0.23820548
v 0.63567282 -0.28967975 -0.25029030
v 0.61133707 -0.14662086 -0.20943989
v 0.63563606 -0.15669157 -0.20192406
v 0.63630939 -0.13979072 -0.18983926
v 0.63589565 -0.19298600 -0.21403589
v 0.63635104 -0.16878140 -0.20192406
v 0.63635104 -0.14460173 -0.18983926
f 1 2 6
f 1 6 3
f 1 3 9
f 1 9 10
f 1 10 4
f 1 4 11
f 1 11 19
f 1 19 27
f 1 27 40
f 1 40 58
f 1 58 63
f 1 63 60
f 1 60 42
f 1 42 28
f 1 28 20
f 1 20 12
f 1 12 5
f 1 5 2
f 2 5 6
f 3 6 7
f 3 7 8
f 3 8 18
f 3 18 9
f 4 10 11
f 5 12 13
f 5 13 6
f 6 13 7
f 7 13 14
f 7 14 15
f 7 15 16
f 7 16 8
f 8 16 17
f 8 17 18
f 9 18 17
f 9 17 25
f 9 25 39
f 9 39 41
f 9 41 26
f 9 26 19
f 9 19 11
f 9 11 10
f 12 20 21
f 12 21 13
f 13 21 14
f 14 21 29
f 14 29 22
f 14 22 23
f 14 23 15
f 15 23 24
f 15 24 16
f 16 24 39
f 16 39 25
f 16 25 17
f 19 26 27
f 20 28 29
f 20 29 21
f 22 30 31
f 22 31 23
f 22 29 32
f 22 32 33
f 22 33 34
f 22 34 35
f 22 35 36
f 22 36 30
f 23 31 37
f 23 37 24
f 24 37 38
f 24 38 57
f 24 57 67
f 24 67 68
f 24 68 59
f 24 59 41
f 24 41 39
f 26 40 27
f 26 41 59
f 26 59 65
f 26 65 51
f 26 51 50
f 26 50 58
f 26 58 40
f 28 42 43
f 28 43 29
f 29 43 32
f 30 44 45
f 30 45 31
f 30 36 46
f 30 46 44
f 31 45 47
f 31 47 37
f 32 43 33
f 33 43 48
f 33 48 49
f 33 49 35
f 33 35 34
f 35 49 50
f 35 50 51
f 35 51 52
f 35 52 53
f 35 53 36
f 36 53 46
f 37 47 54
f 37 54 55
f 37 55 56
f 37 56 57
f 37 57 38
f 42 60 48
f 42 48 43
f 44 46 52
f 44 52 45
f 45 61 47
f 45 52 61
f 46 53 52
f 47 61 62
f 47 62 54
f 48 60 63
f 48 63 49
f 49 63 50
f 50 63 58
f 51 64 52
f 51 65 64
f 52 64 61
f 54 62 66
f 54 66 55
f 55 66 67
f 55 67 56
f 56 67 57
f 59 68 65
f 61 64 62
f 62 64 66
f 64 67 66
f 64 65 67
f 65 68 67

