# https://github.com/mikedh/trimesh
v 0.60016489 0.52587955 0.08302036
v 0.60016489 0.53808861 0.08289589
v 0.58795142 0.58695954 0.08295247
v 0.61237836 0.45260784 0.08297510
v 0.61237836 0.46481690 0.08297510
v 0.60016489 0.55031501 0.08251119
v 0.58795142 0.59280393 0.08286195
v 0.61237836 0.47704331 0.08272617
v 0.57562692 0.59280393 0.07884517
v 0.58795142 0.57473313 0.08269223
v 0.60016489 0.51367049 0.08287326
v 0.61237836 0.44039878 0.08274880
v 0.62459179 0.41563381 0.08237541
v 0.62459179 0.41596332 0.08237541
v 0.60016489 0.56252408 0.08174177
v 0.61237836 0.48925237 0.08213780
v 0.60016489 0.57473313 0.08037268
v 0.59979914 0.59280393 0.07815497
v 0.58795142 0.56252408 0.08205860
v 0.56984024 0.59280393 0.06797158
v 0.58046008 0.55031501 0.07644642
v 0.57936282 0.56252408 0.07758922
v 0.60461267 0.41563381 0.07683113
v 0.60364603 0.42817239 0.07770237
v 0.61237836 0.41563381 0.08130050
v 0.60016489 0.50146143 0.08246593
v 0.61237836 0.42817239 0.08216043
v 0.63357880 0.41563381 0.07790603
v 0.63357880 0.41596332 0.07790603
v 0.62459179 0.42817239 0.08160600
v 0.60947848 0.55031501 0.07805313
v 0.60837467 0.56252408 0.07727240
v 0.60465840 0.59280393 0.06797158
v 0.60727742 0.57473313 0.07590330
v 0.60657860 0.58257191 0.07472656
v 0.58128955 0.54110620 0.07516784
v 0.56983372 0.59280393 0.06717954
v 0.60295374 0.41563381 0.06797158
v 0.59382304 0.46960341 0.07459078
v 0.63638075 0.41563381 0.06823182
v 0.63645261 0.41596332 0.06797158
v 0.63267095 0.42817239 0.07713662
v 0.62107144 0.48925237 0.07766842
v 0.62216870 0.47704331 0.07825680
v 0.61997422 0.50146143 0.07658219
v 0.60557931 0.58952622 0.06797158
v 0.60471719 0.59280393 0.05575152
v 0.63156718 0.44039878 0.07567701
v 0.61911206 0.51105179 0.07528098
v 0.60672881 0.58342169 0.06797158
v 0.63091409 0.44769995 0.07453420
v 0.56974227 0.59280393 0.05575152
v 0.60293415 0.41563381 0.05575152
v 0.63645261 0.41563381 0.06797158
v 0.63463692 0.42817239 0.06797158
v 0.63645261 0.41596332 -0.01752358
v 0.60563155 0.58952622 0.05575152
v 0.60471719 0.59280393 -0.00530352
v 0.61268532 0.55031501 0.06797158
v 0.63244241 0.44039878 0.06797158
v 0.56973572 0.59280393 0.04354277
v 0.60293415 0.41563381 -0.00563165
v 0.63645261 0.41563381 -0.01752358
v 0.63463692 0.42817239 -0.01752358
v 0.63357880 0.41596332 -0.02745803
v 0.63267095 0.42817239 -0.02668862
v 0.63156718 0.44039878 -0.02522901
v 0.63091409 0.44769995 -0.02408620
v 0.60563155 0.58952622 -0.00530352
v 0.60557931 0.58952622 -0.01752358
v 0.60469757 0.59280393 -0.00944476
v 0.61268532 0.55031501 -0.01752358
v 0.62805338 0.46481690 0.05575152
v 0.63244241 0.44039878 -0.01752358
v 0.56973572 0.59280393 0.00631685
v 0.60295374 0.41563381 -0.01752358
v 0.56974227 0.59280393 -0.00590321
v 0.63357880 0.41563381 -0.02745803
v 0.62459179 0.41596332 -0.03192741
v 0.62459179 0.42817239 -0.03115800
v 0.62216870 0.47704331 -0.02780880
v 0.62107144 0.48925237 -0.02722042
v 0.60837467 0.56252408 -0.02682440
v 0.61997422 0.50146143 -0.02613419
v 0.60727742 0.57473313 -0.02545530
v 0.61911206 0.51105179 -0.02483298
v 0.60657860 0.58257191 -0.02427856
v 0.60672881 0.58342169 -0.01752358
v 0.60465840 0.59280393 -0.01752358
v 0.62805338 0.46481690 -0.00530352
v 0.59382304 0.46960341 -0.02414278
v 0.60299291 0.41563381 -0.01774988
v 0.56984024 0.59280393 -0.01752358
v 0.62459179 0.41563381 -0.03192741
v 0.61237836 0.46481690 -0.03252710
v 0.61237836 0.47704331 -0.03227817
v 0.60016489 0.55031501 -0.03206319
v 0.61237836 0.48925237 -0.03168980
v 0.60016489 0.56252408 -0.03129377
v 0.60947848 0.55031501 -0.02760513
v 0.60016489 0.57473313 -0.02992468
v 0.59979914 0.59280393 -0.02770697
v 0.60315622 0.59280393 -0.02100856
v 0.60461267 0.41563381 -0.02638313
v 0.58128955 0.54110620 -0.02471984
v 0.57016678 0.59280393 -0.01820247
v 0.58046008 0.55031501 -0.02599842
v 0.61237836 0.41563381 -0.03085250
v 0.61237836 0.42817239 -0.03171243
v 0.61237836 0.44039878 -0.03230080
v 0.61237836 0.45260784 -0.03252710
v 0.60016489 0.52587955 -0.03257236
v 0.60016489 0.53808861 -0.03244789
v 0.58795142 0.59280393 -0.03241395
v 0.59470475 0.59280393 -0.02987942
v 0.60364603 0.42817239 -0.02725437
v 0.57936282 0.56252408 -0.02714122
v 0.57562692 0.59280393 -0.02839717
v 0.58795142 0.56252408 -0.03161060
v 0.60016489 0.50146143 -0.03201793
v 0.58795142 0.57473313 -0.03224423
v 0.60016489 0.51367049 -0.03242526
v 0.58795142 0.58695954 -0.03250447
v 0.58091072 0.59280393 -0.03051305
f 1 2 3
f 1 3 4
f 1 4 5
f 1 5 2
f 2 6 7
f 2 7 3
f 2 5 8
f 2 8 6
f 3 7 9
f 3 9 10
f 3 10 11
f 3 11 4
f 4 12 13
f 4 13 14
f 4 14 5
f 4 11 12
f 5 14 8
f 6 15 7
f 6 8 14
f 6 14 16
f 6 16 15
f 7 15 17
f 7 17 18
f 7 18 33
f 7 33 47
f 7 47 58
f 7 58 71
f 7 71 89
f 7 89 103
f 7 103 102
f 7 102 115
f 7 115 114
f 7 114 124
f 7 124 118
f 7 118 106
f 7 106 93
f 7 93 77
f 7 77 75
f 7 75 61
f 7 61 52
f 7 52 37
f 7 37 20
f 7 20 9
f 9 19 10
f 9 20 21
f 9 21 22
f 9 22 23
f 9 23 24
f 9 24 25
f 9 25 19
f 10 19 26
f 10 26 12
f 10 12 11
f 12 27 13
f 12 26 27
f 13 25 23
f 13 23 38
f 13 38 53
f 13 53 62
f 13 62 76
f 13 76 92
f 13 92 104
f 13 104 108
f 13 108 94
f 13 94 78
f 13 78 63
f 13 63 54
f 13 54 40
f 13 40 28
f 13 28 29
f 13 29 14
f 13 27 25
f 14 29 30
f 14 30 16
f 15 31 17
f 15 16 30
f 15 30 31
f 17 31 32
f 17 32 18
f 18 32 34
f 18 34 35
f 18 35 33
f 19 25 27
f 19 27 26
f 20 36 21
f 20 37 38
f 20 38 39
f 20 39 36
f 21 36 23
f 21 23 22
f 23 39 38
f 23 25 24
f 23 36 39
f 28 40 29
f 29 40 41
f 29 41 42
f 29 42 43
f 29 43 44
f 29 44 30
f 30 44 31
f 31 44 43
f 31 43 32
f 32 43 42
f 32 42 45
f 32 45 34
f 33 35 46
f 33 46 47
f 34 45 48
f 34 48 49
f 34 49 35
f 35 50 46
f 35 49 51
f 35 51 50
f 37 52 38
f 38 52 53
f 40 54 41
f 41 55 51
f 41 51 48
f 41 48 42
f 41 54 63
f 41 63 56
f 41 56 64
f 41 64 55
f 42 48 45
f 46 57 47
f 46 50 57
f 47 57 69
f 47 69 58
f 48 51 49
f 50 51 59
f 50 59 57
f 51 55 60
f 51 60 59
f 52 61 53
f 53 61 75
f 53 75 62
f 55 64 74
f 55 74 60
f 56 63 78
f 56 78 65
f 56 65 66
f 56 66 67
f 56 67 68
f 56 68 64
f 57 59 72
f 57 72 69
f 58 69 70
f 58 70 71
f 59 60 73
f 59 73 90
f 59 90 72
f 60 74 90
f 60 90 73
f 62 75 77
f 62 77 76
f 64 68 74
f 65 79 80
f 65 80 81
f 65 81 82
f 65 82 66
f 65 78 94
f 65 94 79
f 66 82 83
f 66 83 84
f 66 84 67
f 67 84 85
f 67 85 86
f 67 86 68
f 68 86 87
f 68 87 88
f 68 88 72
f 68 72 74
f 69 72 88
f 69 88 70
f 70 89 71
f 70 88 87
f 70 87 89
f 72 90 74
f 76 91 92
f 76 77 93
f 76 93 91
f 79 94 111
f 79 111 95
f 79 95 96
f 79 96 97
f 79 97 98
f 79 98 80
f 80 98 99
f 80 99 100
f 80 100 81
f 81 100 82
f 82 100 83
f 83 100 101
f 83 101 102
f 83 102 85
f 83 85 84
f 85 102 87
f 85 87 86
f 87 102 103
f 87 103 89
f 91 104 92
f 91 93 105
f 91 105 104
f 93 106 107
f 93 107 105
f 94 108 109
f 94 109 110
f 94 110 111
f 95 111 112
f 95 112 113
f 95 113 96
f 96 113 97
f 97 113 114
f 97 114 99
f 97 99 98
f 99 114 101
f 99 101 100
f 101 114 115
f 101 115 102
f 104 116 108
f 104 105 107
f 104 107 117
f 104 117 118
f 104 118 116
f 106 118 107
f 107 118 117
f 108 116 118
f 108 118 119
f 108 119 109
f 109 120 110
f 109 119 120
f 110 120 121
f 110 121 122
f 110 122 111
f 111 122 123
f 111 123 112
f 112 123 113
f 113 123 114
f 114 123 124
f 118 124 119
f 119 124 121
f 119 121 120
f 121 124 123
f 121 123 122

