# https://github.com/mikedh/trimesh
v -0.31597177 0.89235433 -0.03241563
v -0.30375066 0.89235433 -0.03093740
v -0.31798416 0.87984679 -0.02840974
v -0.31798416 0.89235433 -0.03233664
v -0.30375066 0.90456485 -0.03199812
v -0.18161302 0.96562847 -0.03202068
v -0.19383412 0.95341796 -0.03240435
v -0.16792302 0.96562847 -0.03229150
v -0.20604056 0.94119644 -0.03089227
v -0.31629493 0.87979180 -0.02792453
v -0.31798416 0.87714069 -0.02679611
v -0.18161302 0.95341796 -0.03088098
v -0.16792302 0.95369295 -0.02756343
v -0.31798416 0.90513689 -0.02842103
v -0.30375066 0.91456429 -0.02752958
v -0.18161302 0.97568292 -0.02755215
v -0.16792302 0.97865303 -0.02878212
v -0.16940660 0.96562847 -0.03237049
v -0.30375066 0.88387298 -0.02646886
v -0.29652376 0.88567706 -0.02464083
v -0.31798416 0.87338952 -0.01752050
v -0.18161302 0.94499161 -0.02641244
v -0.20604056 0.93275906 -0.02642373
v -0.16792302 0.94950178 -0.01752050
v -0.17445956 0.94678466 -0.02458440
v -0.31798416 0.91136315 -0.01752050
v -0.31303404 0.91226519 -0.02584824
v -0.21538265 0.96114029 -0.02587080
v -0.19096980 0.97336180 -0.02587080
v -0.16792302 0.98228321 -0.02670583
v -0.16999414 0.97879606 -0.02829690
v -0.31798416 0.87316952 -0.00840288
v -0.16792302 0.94941380 -0.00531101
v -0.31798416 0.87313652 -0.00531101
v -0.31798416 0.91138516 -0.00531101
v -0.31462042 0.91305722 -0.01752050
v -0.29020757 0.92528974 -0.01752050
v -0.21699841 0.96195432 -0.01752050
v -0.28862119 0.92448671 -0.02584824
v -0.19258558 0.97417583 -0.01752050
v -0.18161302 0.97964307 -0.01752050
v -0.17393075 0.98331723 -0.01752050
v -0.16792302 0.98550632 -0.01752050
v -0.16792302 0.94941380 0.05597341
v -0.31798416 0.87313652 0.05575901
v -0.31798416 0.91138516 0.06126570
v -0.22310897 0.95889619 -0.00531101
v -0.18161302 0.97967609 -0.00531101
v -0.17393075 0.98333925 -0.00531101
v -0.16792302 0.98550632 0.06796850
v -0.16792302 0.94950178 0.06796850
v -0.31798416 0.87338952 0.06796850
v -0.31798416 0.91136315 0.06796850
v -0.31462042 0.91305722 0.06796850
v -0.29020757 0.92528974 0.06796850
v -0.21699841 0.96195432 0.06796850
v -0.18161302 0.97967609 0.05575901
v -0.22310897 0.95889619 0.05575901
v -0.17393075 0.98333925 0.05575901
v -0.16792302 0.98465930 0.07421994
v -0.17393075 0.98331723 0.06796850
v -0.16792302 0.94951278 0.06808134
v -0.17445956 0.94678466 0.07503240
v -0.31798416 0.87419256 0.07268529
v -0.31798416 0.91079114 0.07094753
v -0.31303404 0.91226519 0.07629624
v -0.19258558 0.97417583 0.06796850
v -0.18161302 0.97964307 0.06796850
v -0.16792302 0.98228321 0.07715383
v -0.19096980 0.97336180 0.07631880
v -0.16792302 0.95369295 0.07801143
v -0.18161302 0.94499161 0.07686044
v -0.20604056 0.93275906 0.07687173
v -0.29652376 0.88567706 0.07508883
v -0.31798416 0.87714069 0.07724411
v -0.31798416 0.90513689 0.07886903
v -0.28862119 0.92448671 0.07629624
v -0.30375066 0.91456429 0.07797758
v -0.21538265 0.96114029 0.07631880
v -0.18161302 0.97568292 0.07800015
v -0.16999414 0.97879606 0.07874490
v -0.16792302 0.97996208 0.07850793
v -0.16792302 0.95513401 0.07873362
v -0.31798416 0.87828473 0.07825968
v -0.30375066 0.88387298 0.07691686
v -0.31798416 0.90398184 0.07937681
v -0.30375066 0.90456485 0.08244612
v -0.18161302 0.96562847 0.08246868
v -0.16792302 0.97865303 0.07923012
v -0.16792302 0.96562847 0.08273950
v -0.18161302 0.95341796 0.08132898
v -0.30375066 0.89235433 0.08138540
v -0.31798416 0.87984679 0.07885774
v -0.20604056 0.94119644 0.08134027
v -0.31798416 0.89235433 0.08278464
v -0.31597177 0.89235433 0.08286363
v -0.19383412 0.95341796 0.08285235
v -0.16940660 0.96562847 0.08281849
v -0.16792302 0.96710255 0.08268308
v -0.31798416 0.89034126 0.08269437
f 1 2 3
f 1 3 4
f 1 4 5
f 1 5 6
f 1 6 7
f 1 7 8
f 1 8 2
f 2 8 9
f 2 9 3
f 3 10 11
f 3 11 21
f 3 21 32
f 3 32 34
f 3 34 45
f 3 45 52
f 3 52 64
f 3 64 75
f 3 75 84
f 3 84 93
f 3 93 100
f 3 100 95
f 3 95 86
f 3 86 76
f 3 76 65
f 3 65 53
f 3 53 46
f 3 46 35
f 3 35 26
f 3 26 14
f 3 14 4
f 3 9 12
f 3 12 13
f 3 13 10
f 4 14 5
f 5 14 15
f 5 15 16
f 5 16 6
f 6 16 17
f 6 17 18
f 6 18 7
f 7 18 8
f 8 18 17
f 8 17 30
f 8 30 43
f 8 43 50
f 8 50 60
f 8 60 69
f 8 69 82
f 8 82 89
f 8 89 99
f 8 99 90
f 8 90 83
f 8 83 71
f 8 71 62
f 8 62 51
f 8 51 44
f 8 44 33
f 8 33 24
f 8 24 13
f 8 13 12
f 8 12 9
f 10 13 11
f 11 19 20
f 11 20 21
f 11 13 22
f 11 22 23
f 11 23 19
f 13 24 25
f 13 25 22
f 14 26 27
f 14 27 15
f 15 27 28
f 15 28 16
f 16 28 29
f 16 29 30
f 16 30 31
f 16 31 17
f 17 31 30
f 19 23 20
f 20 23 25
f 20 25 21
f 21 25 24
f 21 24 32
f 22 25 23
f 24 33 34
f 24 34 32
f 26 35 36
f 26 36 27
f 27 36 37
f 27 37 38
f 27 38 40
f 27 40 39
f 27 39 29
f 27 29 28
f 29 40 41
f 29 41 42
f 29 42 30
f 29 39 40
f 30 42 43
f 33 44 45
f 33 45 34
f 35 37 36
f 35 46 58
f 35 58 47
f 35 47 38
f 35 38 37
f 38 47 48
f 38 48 40
f 40 48 41
f 41 48 42
f 42 48 49
f 42 49 43
f 43 49 59
f 43 59 50
f 44 51 45
f 45 51 52
f 46 53 54
f 46 54 55
f 46 55 56
f 46 56 57
f 46 57 58
f 47 58 57
f 47 57 48
f 48 57 59
f 48 59 49
f 50 59 61
f 50 61 60
f 51 62 63
f 51 63 52
f 52 63 64
f 53 65 66
f 53 66 54
f 54 66 55
f 55 66 56
f 56 67 57
f 56 66 77
f 56 77 67
f 57 67 68
f 57 68 61
f 57 61 59
f 60 61 70
f 60 70 69
f 61 68 70
f 62 71 63
f 63 71 72
f 63 72 73
f 63 73 74
f 63 74 64
f 64 74 75
f 65 76 66
f 66 76 78
f 66 78 79
f 66 79 70
f 66 70 77
f 67 70 68
f 67 77 70
f 69 70 80
f 69 80 81
f 69 81 82
f 70 79 80
f 71 83 84
f 71 84 72
f 72 84 73
f 73 84 85
f 73 85 74
f 74 85 75
f 75 85 84
f 76 86 87
f 76 87 78
f 78 87 80
f 78 80 79
f 80 88 89
f 80 89 81
f 80 87 88
f 81 89 82
f 83 90 91
f 83 91 84
f 84 92 93
f 84 91 94
f 84 94 92
f 86 95 87
f 87 95 96
f 87 96 88
f 88 97 98
f 88 98 99
f 88 99 89
f 88 96 97
f 90 94 91
f 90 99 98
f 90 98 97
f 90 97 96
f 90 96 100
f 90 100 92
f 90 92 94
f 92 100 93
f 95 100 96

