# https://github.com/mikedh/trimesh
v -0.31798416 0.91137529 0.06126786
v -0.31798416 0.91136062 0.06796982
v -0.31798416 0.91137529 -0.00531165
v -0.32820435 0.90625779 0.05576188
v -0.31798416 0.91078875 0.07094846
v -0.32820435 0.90622846 0.06796982
v -0.31798416 0.91136062 -0.01751959
v -0.32820435 0.90625779 -0.00531165
v -0.33756374 0.90081770 0.06796982
v -0.31798416 0.90512871 0.07886895
v -0.33648381 0.90002590 0.07628520
v -0.32820435 0.90232804 0.07796634
v -0.31798416 0.90512871 -0.02841873
v -0.32820435 0.90232804 -0.02752739
v -0.33648381 0.90002590 -0.02584626
v -0.32820435 0.90622846 -0.01751959
v -0.33756374 0.90081770 -0.01751959
v -0.34368334 0.89586150 0.06796982
v -0.31798416 0.90397032 0.07937668
v -0.32820435 0.89234232 0.08243430
v -0.34892648 0.88857386 0.07649958
v -0.34049052 0.89251828 0.07864330
v -0.31798416 0.89234232 -0.03234512
v -0.32820435 0.89234232 -0.03199536
v -0.34049052 0.89251828 -0.02820435
v -0.34892648 0.88857386 -0.02606064
v -0.34368334 0.89586150 -0.01751959
v -0.35013164 0.88974692 0.06796982
v -0.31798416 0.89234232 0.08278407
v -0.35285492 0.88036240 0.07880126
v -0.34041225 0.88012780 0.08260355
v -0.36122830 0.87646198 0.07655599
v -0.41801069 0.82342480 0.06796982
v -0.46133310 0.78107718 0.06796982
v -0.46743705 0.77510924 0.06796982
v -0.37705163 0.84348421 -0.03225487
v -0.35263580 0.86791325 -0.03218716
v -0.34041225 0.88012780 -0.03215332
v -0.31798416 0.87983452 -0.02840744
v -0.43812243 0.77019702 -0.03057373
v -0.45033033 0.76157500 -0.03103632
v -0.45033033 0.77019702 -0.03240154
v -0.43812243 0.78241156 -0.03237898
v -0.41369098 0.80684062 -0.03233384
v -0.40146743 0.81905514 -0.03231127
v -0.35285492 0.88036240 -0.02835103
v -0.35013164 0.88974692 -0.01751959
v -0.37354577 0.86433542 -0.02615089
v -0.46743705 0.77510924 -0.01751959
v -0.46133310 0.78107718 -0.01751959
v -0.41801069 0.82342480 -0.01751959
v -0.31798416 0.89033345 0.08269381
v -0.35263580 0.86791325 0.08263739
v -0.36484370 0.85569873 0.08267124
v -0.38927518 0.83126967 0.08272766
v -0.41369098 0.80684062 0.08278407
v -0.43812243 0.78241156 0.08282920
v -0.45895413 0.76157500 0.08286304
v -0.37739594 0.85605065 0.07891408
v -0.41045120 0.82798509 0.07671395
v -0.42276863 0.81585854 0.07674780
v -0.44738793 0.79162010 0.07680421
v -0.45970537 0.77949355 0.07682678
v -0.40192132 0.83173890 0.07900435
v -0.42646230 0.80742715 0.07908332
v -0.46328950 0.77094485 0.07918487
v -0.37354577 0.86433542 0.07658983
v -0.47269584 0.76900930 0.06796982
v -0.47134984 0.76736701 0.07686063
v -0.46328950 0.77094485 -0.02873464
v -0.41419183 0.81958302 -0.02859925
v -0.37739594 0.85605065 -0.02846386
v -0.31798416 0.87712182 -0.02679401
v -0.42699446 0.77123812 -0.02589139
v -0.43901455 0.76157500 -0.02681658
v -0.46275734 0.76157500 -0.03139738
v -0.45970537 0.77949355 -0.02637655
v -0.43508611 0.80373200 -0.02633142
v -0.41045120 0.82798509 -0.02626372
v -0.47134984 0.76736701 -0.02641040
v -0.47269584 0.76900930 -0.01751959
v -0.31798416 0.87983452 0.07885767
v -0.44673058 0.76157500 0.08095626
v -0.46275734 0.76157500 0.08183632
v -0.47166284 0.76157500 0.07858688
v -0.47787636 0.76157500 0.06796982
v -0.47740682 0.76157500 0.06963966
v -0.47361923 0.76157500 0.07774068
v -0.47361923 0.76157500 -0.02729045
v -0.31798416 0.87336801 -0.01751959
v -0.32061355 0.87297210 -0.02503390
v -0.43179936 0.76389181 -0.02396204
v -0.43538349 0.76157500 -0.02480824
v -0.47787636 0.76157500 -0.01751959
v -0.31798416 0.87826554 0.07825968
v -0.43674512 0.76157500 0.07620623
v -0.31798416 0.87316273 -0.00840313
v -0.43391226 0.76157500 -0.01751959
v -0.31798416 0.87712182 0.07724423
v -0.43538349 0.76157500 0.07525847
v -0.43179936 0.76389181 0.07441227
v -0.31798416 0.87313340 -0.00531165
v -0.43388095 0.76157500 -0.00531165
v -0.32061355 0.87297210 0.07548413
v -0.31798416 0.87417449 0.07268600
v -0.43403749 0.76157500 0.07202033
v -0.31798416 0.87336801 0.06796982
v -0.31798416 0.87313340 0.05576188
v -0.43388095 0.76157500 0.06356954
v -0.43391226 0.76157500 0.06796982
f 1 2 5
f 1 5 10
f 1 10 19
f 1 19 29
f 1 29 52
f 1 52 82
f 1 82 95
f 1 95 99
f 1 99 105
f 1 105 107
f 1 107 108
f 1 108 102
f 1 102 97
f 1 97 90
f 1 90 73
f 1 73 39
f 1 39 23
f 1 23 13
f 1 13 7
f 1 7 3
f 1 3 8
f 1 8 4
f 1 4 2
f 2 4 6
f 2 6 5
f 3 7 8
f 4 8 17
f 4 17 9
f 4 9 6
f 5 6 11
f 5 11 12
f 5 12 10
f 6 9 11
f 7 13 14
f 7 14 15
f 7 15 16
f 7 16 8
f 8 16 17
f 9 17 27
f 9 27 18
f 9 18 11
f 10 12 20
f 10 20 19
f 11 18 21
f 11 21 22
f 11 22 12
f 12 22 20
f 13 23 24
f 13 24 14
f 14 24 25
f 14 25 15
f 15 25 26
f 15 26 27
f 15 27 17
f 15 17 16
f 18 27 47
f 18 47 28
f 18 28 21
f 19 20 29
f 20 22 30
f 20 30 31
f 20 31 29
f 21 32 30
f 21 30 22
f 21 28 33
f 21 33 34
f 21 34 35
f 21 35 32
f 23 36 37
f 23 37 38
f 23 38 24
f 23 39 40
f 23 40 41
f 23 41 42
f 23 42 43
f 23 43 44
f 23 44 45
f 23 45 36
f 24 38 46
f 24 46 25
f 25 46 26
f 26 47 27
f 26 46 48
f 26 48 49
f 26 49 50
f 26 50 51
f 26 51 47
f 28 47 51
f 28 51 33
f 29 31 53
f 29 53 54
f 29 54 55
f 29 55 56
f 29 56 57
f 29 57 58
f 29 58 52
f 30 59 31
f 30 32 60
f 30 60 61
f 30 61 62
f 30 62 63
f 30 63 59
f 31 59 64
f 31 64 65
f 31 65 66
f 31 66 53
f 32 67 61
f 32 61 60
f 32 35 67
f 33 51 50
f 33 50 34
f 34 50 49
f 34 49 35
f 35 49 81
f 35 81 68
f 35 68 69
f 35 69 63
f 35 63 62
f 35 62 61
f 35 61 67
f 36 45 70
f 36 70 37
f 37 70 38
f 38 70 71
f 38 71 72
f 38 72 46
f 39 73 74
f 39 74 75
f 39 75 40
f 40 75 41
f 41 75 93
f 41 93 98
f 41 98 103
f 41 103 109
f 41 109 110
f 41 110 106
f 41 106 100
f 41 100 96
f 41 96 83
f 41 83 58
f 41 58 84
f 41 84 85
f 41 85 88
f 41 88 87
f 41 87 86
f 41 86 94
f 41 94 89
f 41 89 76
f 41 76 42
f 42 76 70
f 42 70 43
f 43 70 44
f 44 70 45
f 46 72 77
f 46 77 78
f 46 78 79
f 46 79 48
f 48 79 78
f 48 78 49
f 49 78 77
f 49 77 80
f 49 80 81
f 52 58 83
f 52 83 82
f 53 66 54
f 54 66 55
f 55 66 56
f 56 66 57
f 57 66 58
f 58 66 84
f 59 63 64
f 63 69 66
f 63 66 65
f 63 65 64
f 66 69 85
f 66 85 84
f 68 81 94
f 68 94 86
f 68 86 69
f 69 86 87
f 69 87 88
f 69 88 85
f 70 76 89
f 70 89 80
f 70 80 77
f 70 77 71
f 71 77 72
f 73 90 91
f 73 91 92
f 73 92 93
f 73 93 74
f 74 93 75
f 80 89 94
f 80 94 81
f 82 83 95
f 83 96 95
f 90 97 98
f 90 98 92
f 90 92 91
f 92 98 93
f 95 96 100
f 95 100 101
f 95 101 99
f 97 102 98
f 98 102 103
f 99 104 105
f 99 101 104
f 100 106 101
f 101 106 107
f 101 107 105
f 101 105 104
f 102 108 109
f 102 109 103
f 106 110 107
f 107 110 108
f 108 110 109

