# https://github.com/mikedh/trimesh
v 0.62001316 -0.38211310 0.24069420
v 0.62001316 -0.37898316 0.24052987
v 0.58692487 -0.38211310 0.24069420
v 0.62001316 -0.38211310 0.16075398
v 0.62001316 -0.37578509 0.24035770
v 0.58692487 -0.37619018 0.24038117
v 0.58692487 -0.38211310 0.21114411
v 0.60695471 -0.38211310 0.16075398
v 0.62001316 -0.38138273 0.16075398
v 0.62001316 -0.37156055 0.23922296
v 0.58692487 -0.37578509 0.24035770
v 0.58692487 -0.38211115 0.20912506
v 0.58738488 -0.38211310 0.20912506
v 0.60680247 -0.38211310 0.16076181
v 0.60697741 -0.38207220 0.16075398
v 0.61301258 -0.37846511 0.16075398
v 0.62001316 -0.37263764 0.16076181
v 0.62001316 -0.36449435 0.23716478
v 0.62001316 -0.36223505 0.23646830
v 0.58692487 -0.36223505 0.23554484
v 0.58692487 -0.36221557 0.22370446
v 0.62001316 -0.36221557 0.21828121
v 0.62001316 -0.36221557 0.23646046
v 0.58692487 -0.36221557 0.23553702
f 1 2 3
f 1 3 7
f 1 7 13
f 1 13 14
f 1 14 8
f 1 8 4
f 1 4 9
f 1 9 17
f 1 17 22
f 1 22 23
f 1 23 19
f 1 19 18
f 1 18 10
f 1 10 5
f 1 5 2
f 2 5 6
f 2 6 3
f 3 6 11
f 3 11 20
f 3 20 24
f 3 24 21
f 3 21 12
f 3 12 7
f 4 8 15
f 4 15 16
f 4 16 9
f 5 10 11
f 5 11 6
f 7 12 13
f 8 14 15
f 9 16 17
f 10 18 11
f 11 18 19
f 11 19 20
f 12 21 14
f 12 14 13
f 14 21 17
f 14 17 15
f 15 17 16
f 17 21 22
f 19 23 24
f 19 24 20
f 21 24 23
f 21 23 22

