# https://github.com/mikedh/trimesh
v -0.15005746 -0.13979073 -0.20593916
v -0.00046247 -0.13979073 -0.20593916
v -0.15005746 -0.13979073 -0.19292925
v -0.15005746 -0.12051539 -0.19994178
v -0.00046247 -0.13979073 -0.19292925
v -0.00046247 -0.12039104 -0.19990171
v -0.15005746 0.12763903 -0.08724708
v -0.15005746 -0.12039104 -0.19990171
v -0.00046247 0.12763903 -0.08724708
v -0.00046247 -0.11187258 -0.19680284
v -0.15005746 0.13376359 -0.08492293
v -0.15005746 -0.11187258 -0.19680284
v -0.00046247 0.13367033 -0.08496300
v -0.15005746 0.01260879 -0.15148185
v -0.15005746 0.08433168 -0.12532846
v -0.15005746 0.10920311 -0.11625892
v -0.00046247 0.05302482 -0.13665537
v -0.00046247 0.16976496 -0.07179280
v -0.15005746 0.16239680 -0.07447760
v -0.15005746 0.11778374 -0.11270591
v -0.00046247 0.11784589 -0.11259905
v -0.00046247 0.10929636 -0.11612535
v -0.00046247 0.17436616 -0.07047044
v -0.15005746 0.16976496 -0.07179280
v -0.15005746 0.17775489 -0.08239842
v -0.14556200 0.17781708 -0.08238506
v -0.00047711 0.17781708 -0.08238506
v -0.00046247 0.17778599 -0.08238506
v -0.00046247 0.17781708 -0.06948200
v -0.15005746 0.17781708 -0.06948200
v -0.15005746 0.17781708 -0.06978922
v -0.00046247 0.17781708 -0.07526567
f 1 2 5
f 1 5 3
f 1 3 7
f 1 7 11
f 1 11 19
f 1 19 24
f 1 24 30
f 1 30 31
f 1 31 25
f 1 25 20
f 1 20 16
f 1 16 15
f 1 15 14
f 1 14 12
f 1 12 8
f 1 8 4
f 1 4 2
f 2 4 6
f 2 6 10
f 2 10 17
f 2 17 22
f 2 22 21
f 2 21 28
f 2 28 32
f 2 32 29
f 2 29 23
f 2 23 18
f 2 18 13
f 2 13 9
f 2 9 5
f 3 5 9
f 3 9 7
f 4 8 6
f 6 8 12
f 6 12 10
f 7 9 11
f 9 13 11
f 10 12 14
f 10 14 15
f 10 15 16
f 10 16 17
f 11 13 18
f 11 18 19
f 16 20 21
f 16 21 22
f 16 22 17
f 18 23 24
f 18 24 19
f 20 25 26
f 20 26 27
f 20 27 21
f 21 27 28
f 23 29 30
f 23 30 24
f 25 31 26
f 26 31 30
f 26 30 29
f 26 29 32
f 26 32 27
f 27 32 28

