# https://github.com/mikedh/trimesh
v -0.00051699 0.20613233 0.11353338
v -0.00051699 -0.01508100 0.18105479
v -0.00051699 0.20613233 0.10097245
v -0.17440066 0.20613233 0.13037291
v -0.00051699 -0.13979073 0.18809132
v -0.16229208 -0.01386201 0.18105479
v -0.00051699 -0.13711572 0.17522109
v -0.55767561 -0.03759850 0.15245335
v -0.55767561 -0.03577001 0.15205813
v -0.55767561 0.13143516 0.11599057
v -0.55767561 0.13346682 0.11555240
v -0.55767561 0.18273444 0.10495895
v -0.55767561 0.19394241 0.10265640
v -0.55767561 0.20613233 0.10051709
v -0.55767561 0.20613233 0.11367943
v -0.55767561 0.18838920 0.11856805
v -0.00051699 -0.13979073 0.17580531
v -0.55767561 -0.13979073 0.18828033
v -0.55767561 0.18378411 0.11956468
v -0.55767561 0.01261723 0.15651717
v -0.55767561 -0.10830008 0.18261846
v -0.55767561 -0.11683303 0.18423368
v -0.55767561 -0.12038842 0.18490382
v -0.55767561 -0.09594085 0.16510018
v -0.55767561 -0.13979073 0.17492039
f 1 2 5
f 1 5 17
f 1 17 7
f 1 7 3
f 1 3 14
f 1 14 15
f 1 15 4
f 1 4 2
f 2 4 6
f 2 6 5
f 3 7 8
f 3 8 9
f 3 9 10
f 3 10 11
f 3 11 12
f 3 12 13
f 3 13 14
f 4 15 16
f 4 16 6
f 5 6 18
f 5 18 25
f 5 25 17
f 6 16 19
f 6 19 20
f 6 20 21
f 6 21 22
f 6 22 23
f 6 23 18
f 7 17 24
f 7 24 8
f 8 24 25
f 8 25 18
f 8 18 23
f 8 23 22
f 8 22 21
f 8 21 20
f 8 20 19
f 8 19 16
f 8 16 15
f 8 15 14
f 8 14 13
f 8 13 12
f 8 12 11
f 8 11 10
f 8 10 9
f 17 25 24

