# https://github.com/mikedh/trimesh
v 0.62023005 0.23183312 0.09663129
v 0.62023005 0.20607896 0.09663129
v 0.62023005 0.23210936 0.09165487
v 0.56300312 0.23159269 0.09663129
v 0.56300312 0.21503883 0.09663129
v 0.57529325 0.22000857 0.00867446
v 0.62023005 0.21474213 0.00867446
v 0.62023005 0.23220656 0.08822821
v 0.56300312 0.23167966 0.08822821
v 0.56300312 0.22229008 0.05293699
v 0.56671706 0.22209058 0.00867446
v 0.57031893 0.22121583 0.00867446
v 0.62023005 0.23213237 0.00867446
v 0.62023005 0.23220400 0.07956684
v 0.56300312 0.23125251 0.07633819
v 0.57529325 0.23124484 0.00867446
v 0.56300312 0.22742098 0.05293699
v 0.56671706 0.22771001 0.00867446
v 0.56300312 0.23124484 0.07614017
v 0.57169135 0.22976132 0.00867446
v 0.56300312 0.22753351 0.05315224
v 0.56300312 0.23006570 0.06404352
v 0.56300312 0.23010408 0.06424154
f 1 2 7
f 1 7 13
f 1 13 14
f 1 14 8
f 1 8 3
f 1 3 4
f 1 4 5
f 1 5 2
f 2 5 6
f 2 6 7
f 3 8 4
f 4 8 9
f 4 9 15
f 4 15 19
f 4 19 23
f 4 23 22
f 4 22 21
f 4 21 17
f 4 17 10
f 4 10 5
f 5 10 11
f 5 11 12
f 5 12 6
f 6 12 11
f 6 11 18
f 6 18 20
f 6 20 16
f 6 16 13
f 6 13 7
f 8 14 9
f 9 14 13
f 9 13 16
f 9 16 15
f 10 17 18
f 10 18 11
f 15 16 19
f 16 20 19
f 17 21 18
f 18 21 22
f 18 22 23
f 18 23 19
f 18 19 20

