# https://github.com/mikedh/trimesh
v -0.50088599 0.20613233 0.11352186
v -0.50088599 0.21813239 0.11202280
v -0.55767006 0.20613233 0.11367820
v -0.50088599 0.20613233 0.10523569
v -0.55767006 0.22092990 0.11101118
v -0.55767006 0.21813239 0.11202280
v -0.55767006 0.20962417 0.11323676
v -0.50088599 0.22758403 0.10860166
v -0.55767006 0.20613233 0.10049943
v -0.50093046 0.20613233 0.10095926
v -0.50088599 0.20619271 0.10093168
v -0.55767006 0.22758403 0.10860166
v -0.55767006 0.22876140 0.10614616
v -0.50088599 0.23155386 0.10031550
v -0.55767006 0.21918146 0.01973463
v -0.52498935 0.22001669 0.01973463
v -0.52214873 0.22071103 0.01973463
v -0.51648421 0.22209972 0.01973463
v -0.50088599 0.22354628 0.05727528
v -0.55767006 0.23155386 0.10031550
v -0.50088599 0.23167966 0.08831390
v -0.55767006 0.23183060 0.08823113
v -0.55767006 0.23155136 0.01973463
v -0.51648421 0.22769723 0.01973463
v -0.50088599 0.22535256 0.05727528
v -0.50088599 0.23167966 0.08823113
v -0.52498935 0.23123437 0.01973463
v -0.51932483 0.22887963 0.01973463
v -0.50088599 0.23124694 0.07613756
v -0.50088599 0.22888215 0.06405319
f 1 2 3
f 1 3 9
f 1 9 10
f 1 10 4
f 1 4 11
f 1 11 19
f 1 19 25
f 1 25 30
f 1 30 29
f 1 29 26
f 1 26 21
f 1 21 14
f 1 14 8
f 1 8 2
f 2 5 6
f 2 6 7
f 2 7 3
f 2 8 5
f 3 7 6
f 3 6 5
f 3 5 12
f 3 12 13
f 3 13 20
f 3 20 22
f 3 22 23
f 3 23 15
f 3 15 9
f 4 10 11
f 5 8 12
f 8 13 12
f 8 14 13
f 9 15 10
f 10 15 16
f 10 16 17
f 10 17 18
f 10 18 19
f 10 19 11
f 13 14 20
f 14 21 22
f 14 22 20
f 15 23 27
f 15 27 28
f 15 28 24
f 15 24 18
f 15 18 17
f 15 17 16
f 18 24 25
f 18 25 19
f 21 26 22
f 22 26 23
f 23 26 27
f 24 28 29
f 24 29 30
f 24 30 25
f 26 29 27
f 27 29 28

